<svg width="24" height="24" viewBox="0 0 24 24" fill="none" xmlns="http://www.w3.org/2000/svg">
<path d="M18.5 13C21.5376 13 24 15.4624 24 18.5C24 21.5376 21.5376 24 18.5 24C15.4624 24 13 21.5376 13 18.5C13 15.4624 15.4624 13 18.5 13ZM7 4H17V2H19V4H21V11.4277C20.218 11.1513 19.3767 11 18.5 11C14.3579 11 11 14.3579 11 18.5C11 19.7643 11.3137 20.955 11.8662 22H6C4.34315 22 3 20.6569 3 19V4H5V2H7V4ZM17.5439 16.2783C17.0317 16.5448 16.6896 17.0324 16.6924 17.625C16.691 18.0101 16.8163 18.3333 17.0791 18.5742C17.4886 18.9496 18.0363 19.0564 18.5566 19.1904L18.5586 19.1914C18.7642 19.2422 19.2011 19.3242 19.2012 19.6084C19.201 19.9204 18.8146 20.0116 18.5664 20.0117C18.209 20.0116 17.8712 19.8504 17.8457 19.4668L17.8359 19.3066H16.5684L16.5723 19.4824C16.587 20.1478 16.9231 20.7234 17.5439 20.9912V21.6123H19.5439V21.0146C19.5605 21.008 19.5785 21.0041 19.5947 20.9971C20.1754 20.7427 20.5113 20.238 20.5146 19.6113V19.6094C20.5114 19.1866 20.3534 18.831 20.0723 18.5742C19.8027 18.3281 19.4381 18.1678 19.0186 18.0713L18.6113 17.9717C18.4126 17.926 18.0132 17.8328 18.0225 17.5645V17.5586C18.0226 17.2752 18.3567 17.2081 18.582 17.208C18.8668 17.2081 19.1577 17.3167 19.1885 17.6348L19.2031 17.7891H20.4551L20.4531 17.6152C20.4433 17.0015 20.1046 16.496 19.5459 16.2344L19.5439 16.2334V15.6113H17.5439V16.2783ZM7 9H17V7H7V9Z" fill="#0C2776"/>
</svg>
