<svg width="24" height="24" viewBox="0 0 24 24" fill="none" xmlns="http://www.w3.org/2000/svg">
<path d="M8 9C11.3137 9 14 11.6863 14 15C14 18.3137 11.3137 21 8 21C4.68629 21 2 18.3137 2 15C2 11.6863 4.68629 9 8 9ZM22 20H14.2422C14.7245 19.3983 15.1221 18.7258 15.416 18H22V20ZM7 12.1963C6.97718 12.2058 6.9541 12.2154 6.93164 12.2256C6.27829 12.5228 5.83636 13.1201 5.83984 13.8496C5.83819 14.299 5.98434 14.6759 6.29102 14.957C6.76875 15.3949 7.40758 15.5193 8.01465 15.6758L8.0166 15.6768C8.25626 15.736 8.7663 15.8314 8.7666 16.1631C8.7666 16.5275 8.31504 16.6338 8.02539 16.6338C7.60854 16.6337 7.21544 16.4464 7.18555 15.999L7.17383 15.8115H5.69531L5.7002 16.0166C5.71752 16.7957 6.1113 17.4704 6.84082 17.7812C6.8923 17.8031 6.94523 17.8223 6.99902 17.8408V18.5H8.99902V17.8662C9.0772 17.8417 9.15297 17.8148 9.22559 17.7832C9.90313 17.4864 10.296 16.8982 10.2998 16.167V16.1641C10.2959 15.671 10.1111 15.2566 9.7832 14.957C9.46867 14.6697 9.04337 14.4828 8.55371 14.3701L8.07812 14.2539C7.84629 14.2006 7.3797 14.0924 7.39062 13.7793V13.7725C7.39062 13.4415 7.78104 13.3633 8.04395 13.3633C8.37633 13.3633 8.71601 13.4892 8.75195 13.8604L8.76953 14.041H10.2305L10.2266 13.8379C10.2151 13.1218 9.82075 12.5318 9.16895 12.2266C9.11418 12.2008 9.05749 12.1775 9 12.1562V11.5H7V12.1963ZM22 16H15.9355C15.9764 15.6723 16 15.3388 16 15C16 14.6612 15.9764 14.3277 15.9355 14H22V16ZM22 12H15.416C14.229 9.06862 11.357 7 8 7C5.60992 7 3.46592 8.04925 2 9.71094V4H22V12Z" fill="#0C2776"/>
</svg>
