<svg width="32" height="31" viewBox="0 0 32 31" fill="none" xmlns="http://www.w3.org/2000/svg">
<g clip-path="url(#clip0_752_6098)">
<path d="M6.15985 7.14326L6.88556 7.86884C7.08306 8.05938 7.34751 8.16474 7.62195 8.16223C7.8964 8.15971 8.15887 8.04953 8.35285 7.85541C8.54683 7.66128 8.65678 7.39875 8.65904 7.12436C8.66129 6.84996 8.55567 6.58566 8.3649 6.38838L7.64058 5.6628C9.51851 4.06766 11.8138 3.04322 14.2554 2.71048C16.697 2.37775 19.1828 2.75062 21.4192 3.78506C23.6556 4.81949 25.5492 6.47227 26.8762 8.54816C28.2033 10.6241 28.9084 13.0363 28.9082 15.5C28.9146 18.5626 27.8256 21.5265 25.8379 23.8567L25.1122 23.1312C25.0156 23.0312 24.9 22.9516 24.7723 22.8968C24.6446 22.842 24.5072 22.8132 24.3682 22.8121C24.2293 22.8109 24.0914 22.8375 23.9628 22.8901C23.8342 22.9428 23.7174 23.0206 23.6192 23.1189C23.5209 23.2172 23.4433 23.3341 23.3907 23.4627C23.3381 23.5914 23.3117 23.7292 23.313 23.8681C23.3143 24.0071 23.3432 24.1444 23.3981 24.272C23.453 24.3997 23.5328 24.5151 23.6328 24.6116L24.3572 25.3372C22.0265 27.3245 19.062 28.4133 15.9989 28.407C13.5347 28.4071 11.122 27.7022 9.04575 26.3753C6.96947 25.0485 5.31639 23.1553 4.28176 20.9193C3.24713 18.6833 2.87419 16.198 3.20698 13.7568C3.53978 11.3157 4.56441 9.02083 6.15985 7.14326ZM5.39226 4.89396C3.99698 6.28524 2.89036 7.9384 2.13593 9.7585C1.3815 11.5786 0.994145 13.5298 0.996101 15.5C0.996101 23.7842 7.71316 30.5 15.9989 30.5C17.9689 30.5023 19.92 30.1156 21.7402 29.362C23.5604 28.6085 25.2138 27.5029 26.6055 26.1088L26.6069 26.106M26.6069 26.106C28.0017 24.7145 29.1092 23.0613 29.8631 21.2412C30.617 19.4211 31.004 17.47 31.0016 15.5C31.0016 7.21582 24.2846 0.500009 15.9989 0.500009C14.0284 0.49787 12.0769 0.884937 10.2565 1.63898C8.43603 2.39303 6.78391 3.49919 5.39226 4.89396" fill="#5B5B5B"/>
<path d="M25.8402 7.14326L25.1144 7.86884C24.9169 8.05938 24.6525 8.16474 24.378 8.16223C24.1036 8.15971 23.8411 8.04953 23.6472 7.85541C23.4532 7.66128 23.3432 7.39875 23.341 7.12436C23.3387 6.84996 23.4443 6.58566 23.6351 6.38838L24.3594 5.6628C22.4815 4.06766 20.1862 3.04322 17.7446 2.71048C15.303 2.37775 12.8172 2.75062 10.5808 3.78506C8.34441 4.81949 6.45083 6.47227 5.12377 8.54816C3.79671 10.6241 3.09161 13.0363 3.09177 15.5C3.08542 18.5626 4.1744 21.5265 6.1621 23.8567L6.88782 23.1312C6.98442 23.0312 7.09995 22.9516 7.22768 22.8968C7.35541 22.842 7.49277 22.8132 7.63175 22.8121C7.77073 22.8109 7.90855 22.8375 8.03716 22.8901C8.16577 22.9428 8.2826 23.0206 8.38083 23.1189C8.47906 23.2172 8.55673 23.3341 8.6093 23.4627C8.66187 23.5914 8.68828 23.7292 8.68701 23.8681C8.68574 24.0071 8.6568 24.1444 8.60188 24.272C8.54697 24.3997 8.46717 24.5151 8.36716 24.6116L7.64284 25.3372C9.97349 27.3245 12.938 28.4133 16.0011 28.407C18.4653 28.4071 20.878 27.7022 22.9543 26.3753C25.0305 25.0485 26.6836 23.1553 27.7182 20.9193C28.7529 18.6833 29.1258 16.198 28.793 13.7568C28.4602 11.3157 27.4356 9.02083 25.8402 7.14326ZM26.6077 4.89396C28.003 6.28524 29.1096 7.9384 29.8641 9.7585C30.6185 11.5786 31.0059 13.5298 31.0039 15.5C31.0039 23.7842 24.2868 30.5 16.0011 30.5C14.0311 30.5023 12.08 30.1156 10.2598 29.362C8.43962 28.6085 6.78623 27.5029 5.39452 26.1088L5.39312 26.106M5.39312 26.106C3.99835 24.7145 2.89084 23.0613 2.13689 21.2412C1.38295 19.4211 0.996035 17.47 0.998356 15.5C0.998356 7.21582 7.71541 0.500009 16.0011 0.500009C17.9716 0.49787 19.9231 0.884937 21.7435 1.63898C23.564 2.39303 25.2161 3.49919 26.6077 4.89396" fill="#5B5B5B"/>
<path d="M16.7028 23.8196C16.5566 24.2874 15.8899 24.2853 15.7186 23.8165L12.8516 15.9745L13.9905 15.9782C14.2452 16.8685 15.0737 17.529 16.0413 17.532C17.0089 17.5351 17.8019 16.8798 18.0087 15.9909L19.1476 15.9945L16.7028 23.8196Z" fill="#5B5B5B"/>
<path d="M18.0105 15.0227L19.1494 15.0263L16.2824 7.18434C16.111 6.71559 15.4443 6.71348 15.2982 7.18122L12.8533 15.0064L13.9923 15.01C14.1991 14.1211 14.9921 13.4658 15.9597 13.4688C16.9273 13.4719 17.7557 14.1323 18.0105 15.0227Z" fill="#EB1C25"/>
</g>
<defs>
<clipPath id="clip0_752_6098">
<rect width="31" height="30" fill="white" transform="translate(0.5 0.5)"/>
</clipPath>
</defs>
</svg>
