<svg width="25" height="24" viewBox="0 0 25 24" fill="none" xmlns="http://www.w3.org/2000/svg">
<path d="M12.75 3H8.75C7.09315 3 5.75 4.34315 5.75 6V20C5.75 20.5523 6.19772 21 6.75 21H18.75C19.3023 21 19.75 20.5523 19.75 20V7" stroke="white" stroke-width="1.4"/>
<path d="M8.75 7C9.85457 7 10.75 6.10457 10.75 5C10.75 3.89543 9.85457 3 8.75 3H19.75C20.8546 3 21.75 3.89543 21.75 5C21.75 6.10457 20.8546 7 19.75 7H8.75Z" stroke="white" stroke-width="1.4"/>
<path d="M11.1602 11.417C11.1514 13.5998 12.8852 15.9744 15.1839 16.8289" stroke="white" stroke-width="0.5"/>
<path d="M12.227 10.0041C12.996 9.94726 13.641 10.4904 13.7011 11.2613C13.7575 11.9857 13.4669 13.1945 13.0351 14.4139C13.0351 14.4139 14.3406 14.211 15.4108 14.3005C16.144 14.3618 16.8781 15.0904 16.731 15.919C16.5895 16.7166 15.8682 17.1787 15.1889 17.0702C14.5655 16.9706 13.7444 16.1743 13.55 16H13.95C13.95 16 14.4899 16.2107 14.6742 16.1808C15.1504 16.1038 15.1563 15.5169 14.7862 15.2705C14.3114 14.9544 13.8083 14.8 13.15 14.8L13.0351 14.4139C12.4941 15.9421 11.7314 17.4871 11.1521 18.1171C10.6922 18.6173 9.82376 18.6548 9.315 18.226C8.74341 17.7443 8.58264 17.0174 8.93816 16.4763C9.34158 15.8622 10.1866 15.3987 10.1866 15.3987C9.96967 15.7282 9.64073 16.2463 9.53766 16.629C9.47382 16.8661 9.54398 17.0677 9.71623 17.1577C9.88848 17.2478 10.1719 17.2352 10.308 17.0212C11.4409 15.2392 12.2647 12.4668 12.3706 11.3685C12.3852 11.2166 12.234 10.9708 11.9924 10.9708C11.7718 10.9463 11.5904 11.0925 11.5267 11.2439C11.3465 11.6724 11.2571 12.1368 11.2186 12.655C11.2186 12.655 10.9662 12.0177 10.9241 11.489C10.8766 10.8903 11.3199 10.0711 12.227 10.0041Z" fill="white"/>
<path d="M9.26172 16.4165C10.7499 14.7998 12.5558 14.5433 14.6872 14.5029" stroke="white" stroke-width="0.5"/>
</svg>
