<svg width="41" height="41" viewBox="0 0 41 41" fill="none" xmlns="http://www.w3.org/2000/svg">
<path d="M3.43359 25.5H36.7669M13.5213 25.5L11.5664 32.1667M26.6792 25.5L28.6341 32.1667M10.1003 37.1667L11.5664 32.1667M11.5664 32.1667H28.6341M28.6341 32.1667L30.1003 37.1667" stroke="white" stroke-width="3.33333"/>
<rect x="18.4336" y="3.83337" width="3.33333" height="3.33333" fill="white"/>
<path d="M35.1016 25.5H5.10156V5.5H35.1016V25.5ZM25.0996 13.833C25.0996 14.6576 24.2999 15.4999 23.0625 15.5C22.5162 15.4999 21.8322 15.2453 20.7324 14.792C19.8124 14.4127 18.4733 13.8331 17.1367 13.833C14.6161 13.8332 11.7659 15.6445 11.7656 18.833H15.0996C15.0999 17.9988 15.8978 17.1662 17.1367 17.166C17.6797 17.1661 18.3611 17.4202 19.4619 17.874C20.3833 18.2538 21.7232 18.8329 23.0625 18.833C25.5966 18.8329 28.4326 16.9994 28.4326 13.833H25.0996Z" fill="white"/>
</svg>
