<svg width="72" height="152" viewBox="0 0 72 152" fill="none" xmlns="http://www.w3.org/2000/svg">
<path d="M2.05298 150C2.05298 145.089 1.76499 140.028 2.30715 135.149C2.94917 129.371 1.42089 104.996 8.51629 106.608C13.9231 107.837 14.8486 120.794 15.1249 125.49C15.1704 126.264 15.2463 123.741 15.1249 123.202C13.6746 116.767 11.9438 102.215 19.2098 103.123C26.1427 103.989 22.5336 116.804 24.7654 121.714C25.258 122.798 24.9687 123.914 25.2737 124.982C25.2737 124.982 22.9344 100.99 31.9214 101.798C37.4486 102.295 35.7036 117.85 36.7116 122.385C36.8454 122.987 37.0202 125.827 37.0202 124.183" stroke="white" stroke-width="3.23849" stroke-linecap="round"/>
<path d="M35.7145 110.784C35.7145 104.821 35.2234 77.4382 45.8452 81.0456C51.012 82.8004 51.3755 91.959 51.7457 96.5866C52.1705 101.897 52.3811 107.065 52.3811 112.418C52.3811 119.347 52.3811 126.277 52.3811 133.206C52.3811 142.829 54.5268 149.259 51.7457 149.259" stroke="white" stroke-width="3.23849" stroke-linecap="round"/>
<path d="M45.5577 79.9225C44.1547 79.7277 42.7581 79.8205 41.3585 79.5872C31.1018 77.8777 13.523 63.6878 16.6883 51.9717C18.5673 45.0166 27.0149 41.2297 30.8605 40.1615C37.802 38.2333 45.6461 38.7477 52.1481 41.9986C65.465 48.6571 73.4323 67.3611 56.2015 76.9044C52.7585 78.8112 49.5994 80.4839 45.5577 79.9225Z" stroke="white" stroke-width="3.23849" stroke-linecap="round"/>
<path d="M21.9368 3.15635C20.4192 3.24066 19.3606 4.40334 18.6562 5.64961C17.5478 7.61059 16.2516 9.41912 15.2006 11.4381C13.0705 15.5301 11.7161 19.875 10.7973 24.3856C10.1818 27.407 10.389 30.4876 10.389 33.5567C10.389 35.7622 10.7677 37.6689 11.118 39.8409C11.2806 40.849 11.9373 42.89 11.9637 40.4825C12.022 35.1823 11.3737 29.6415 12.1095 24.3856C12.6593 20.4582 13.8854 16.7997 15.7838 13.3481C17.671 9.91693 18.9657 5.49938 21.6743 2.63145C22.6109 1.63975 22.1237 1.91807 22.5929 2.76267C22.8318 3.19275 23.2105 3.43628 23.5115 3.81247C23.8751 4.26698 25.4079 4.52148 25.9318 4.73104C27.8624 5.50328 29.6655 6.78928 31.6474 7.35553C34.0767 8.04961 36.4035 9.54258 38.7481 10.5195C41.9286 11.8447 44.7375 13.9961 47.5402 15.958C52.6616 19.543 57.2651 23.704 61.9603 27.8266C64.4016 29.9701 66.4981 32.2331 68.7694 34.5044C69.1679 34.903 69.5664 35.3015 69.965 35.7C70.2687 36.0037 69.333 35.4874 69.0464 35.4376C67.4576 35.1613 65.9197 34.6502 64.2932 34.6502C59.474 34.6502 54.4549 34.9191 49.7564 36.0937C44.3441 37.4468 38.6814 38.0338 33.1638 38.8494C28.2684 39.5731 22.8618 39.6076 18.1167 41.0803C16.6602 41.5323 15.0054 42.2087 13.4801 42.2613C12.4967 42.2952 11.5098 42.6195 10.6515 43.0486" stroke="white" stroke-width="3.23849" stroke-linecap="round"/>
<path d="M22.7227 40.1618C22.7227 37.1264 23.0712 34.2815 24.7931 31.603C25.3332 30.7629 25.85 31.1259 26.6594 30.9177C28.1428 30.5363 29.5128 29.7328 31.0335 29.4014C34.3252 28.6839 37.8248 30.6502 40.0297 33.0756C40.79 33.912 42.6688 36.0677 42.6688 37.2748" stroke="white" stroke-width="3.23849" stroke-linecap="round"/>
<path d="M15.6411 14.1791C16.1905 14.1791 17.2151 13.9874 17.5949 14.4707C18.5124 15.6386 19.2112 17.1508 19.8257 18.4949C20.4077 19.7682 21.3058 21.6859 20.8317 23.1607C20.1946 25.1428 18.6098 26.1054 16.9533 27.1703C15.693 27.9806 10.866 30.9953 9.86719 29.6636" stroke="white" stroke-width="3.23849" stroke-linecap="round"/>
<path d="M32.9599 7.88037C32.9599 10.5804 31.4545 13.0516 31.3852 15.7538C31.3259 18.069 32.3531 17.591 34.418 17.591C36.3813 17.591 39.6299 16.1215 41.0375 14.7624" stroke="white" stroke-width="3.23849" stroke-linecap="round"/>
<path d="M52.9078 35.4375C52.9078 35.0333 52.7057 32.3537 52.8204 32.2882C54.5646 31.2915 56.3715 30.3432 58.4193 30.451C60.1236 30.5407 62.356 33.1931 62.356 34.9127" stroke="white" stroke-width="3.23849" stroke-linecap="round"/>
<path d="M27.1484 58.5336C27.1954 58.1113 27.7304 57.6179 27.9755 57.3148C28.6128 56.5266 29.2688 55.443 30.1171 54.8598C31.3321 54.0245 32.3507 52.8844 33.4949 51.9521C34.8943 50.8118 36.2908 49.6519 37.8043 48.6613C38.4473 48.2404 39.6847 47.251 40.4682 47.251" stroke="white" stroke-width="3.23849" stroke-linecap="round"/>
<path d="M28.0938 60.2576C28.0938 58.8741 28.8574 56.8171 29.9742 55.9396C30.9866 55.1441 31.8245 54.0757 32.6991 53.1363C33.19 52.6091 33.6515 51.8757 34.3619 51.6389" stroke="white" stroke-width="3.23849" stroke-linecap="round"/>
<path d="M36.082 64.0182C36.8631 63.0635 37.4102 61.9761 38.3107 61.0756C39.4595 59.9268 40.6092 58.6371 41.8452 57.5933C42.8977 56.7046 43.8863 55.8335 45.049 55.0861C45.921 54.5255 47.3898 53.519 48.4616 53.519" stroke="white" stroke-width="3.23849" stroke-linecap="round"/>
<path d="M36.7109 66.5256C36.7109 65.2759 37.1914 64.5411 37.8949 63.5221C38.5601 62.5588 39.0182 61.389 39.8102 60.5361C41.3942 58.8302 42.6499 56.8218 44.5461 55.3997" stroke="white" stroke-width="3.23849" stroke-linecap="round"/>
<path d="M43.7617 70.4431C43.8147 69.4902 44.7564 68.496 45.3288 67.7965C46.4318 66.4483 47.743 65.197 49.02 64.0182C50.1264 62.997 51.2023 61.8557 52.5023 61.0757C53.4444 60.5104 54.459 59.581 55.5145 59.3171" stroke="white" stroke-width="3.23849" stroke-linecap="round"/>
<path d="M41.7266 70.6C41.7266 69.3677 43.4315 68.1802 44.2251 67.466C45.796 66.0522 47.5713 64.9629 49.2483 63.7051" stroke="white" stroke-width="3.23849" stroke-linecap="round"/>
</svg>
