<svg width="41" height="41" viewBox="0 0 41 41" fill="none" xmlns="http://www.w3.org/2000/svg">
<path fill-rule="evenodd" clip-rule="evenodd" d="M3.43359 25.5H16.7669V27.1667C16.7669 29.0076 18.2593 30.5 20.1003 30.5C21.9412 30.5 23.4336 29.0076 23.4336 27.1667V25.5H36.7669V30.5C36.7669 33.2614 34.5284 35.5 31.7669 35.5H8.43359C5.67217 35.5 3.43359 33.2614 3.43359 30.5V25.5Z" fill="#0C2776"/>
<path fill-rule="evenodd" clip-rule="evenodd" d="M5.10156 12.1667H16.7682V13.8334C16.7682 15.6743 18.2606 17.1667 20.1016 17.1667C21.9425 17.1667 23.4349 15.6743 23.4349 13.8334V12.1667H35.1016V18.0834C35.1016 19.418 34.0196 20.5 32.6849 20.5H7.51823C6.18354 20.5 5.10156 19.418 5.10156 18.0834V12.1667Z" fill="#0C2776"/>
<path d="M7.51823 20.5C6.18354 20.5 5.10156 19.418 5.10156 18.0834V12.1667L11.7682 7.16669H28.4349L35.1016 12.1667V18.0834C35.1016 19.418 34.0196 20.5 32.6849 20.5H7.51823Z" stroke="#0C2776" stroke-width="2.41667"/>
</svg>
