<svg width="21" height="14" viewBox="0 0 21 14" fill="none" xmlns="http://www.w3.org/2000/svg">
<path d="M21 6.90208C21 8.73651 19.8929 10.451 17.9922 11.7271C16.0943 13.0015 13.446 13.8042 10.5 13.8042C7.55256 13.8042 4.90564 13.0015 3.00779 11.7271C1.10707 10.451 0 8.73651 0 6.90208C0 5.0678 1.10707 3.35332 3.00779 2.07705C4.90564 0.802804 7.55256 0 10.5 0C13.446 0 16.0943 0.802804 17.9922 2.07705C19.8929 3.35332 21 5.0678 21 6.90208Z" fill="white"/>
<path d="M10.3523 4.19009V9.44155H9.15173V6.38824L7.79449 8.61631H7.65933L6.30209 6.38824V9.44155H5.10156V4.19009H6.30209L7.72692 6.52329L9.15173 4.19009H10.3523ZM13.7583 9.54668C12.1768 9.54668 11.0295 8.36132 11.0295 6.81582C11.0295 5.27033 12.1768 4.08496 13.7583 4.08496C14.7116 4.08496 15.5512 4.5577 16.0084 5.30039L14.9747 5.90055C14.7418 5.49541 14.2917 5.25537 13.7583 5.25537C12.8295 5.25537 12.2286 5.87797 12.2286 6.81582C12.2286 7.75367 12.8295 8.37627 13.7583 8.37627C14.2917 8.37627 14.7489 8.13624 14.9747 7.7311L16.0084 8.33126C15.5584 9.07395 14.7188 9.54668 13.7583 9.54668Z" fill="#8B8B8B"/>
</svg>
