<svg width="150" height="111" viewBox="0 0 150 111" fill="none" xmlns="http://www.w3.org/2000/svg">
<path d="M79.0072 29.135C71.7935 29.135 64.5773 29.0778 57.3638 29.135C51.5137 29.1815 46.5152 32.6767 42.2889 36.529C37.7712 40.6468 34.6165 45.497 33.208 51.4962C32.252 55.5683 31.4672 59.4802 33.3157 63.2511C35.3557 67.4127 38.5011 71.7161 42.3607 74.3779C46.936 77.5333 52.6065 79.54 57.8484 81.2872C64.7978 83.6037 72.357 84.5388 79.6533 84.6791C83.3774 84.7507 87.1833 84.8709 90.9056 84.6612C95.3566 84.4104 99.3184 82.7692 103.235 80.7489C108.453 78.057 112.192 73.5377 115.187 68.6171C116.282 66.8188 118.848 63.4277 118.023 61.0437C117.716 60.1575 116.842 59.5485 116.407 58.7107C115.43 56.825 114.483 54.922 113.5 53.0396C112.236 50.6198 110.357 48.5023 108.906 46.1841C107.325 43.6596 105.621 41.0534 103.414 39.0235C102.253 37.9554 100.756 37.2635 99.3584 36.5648C97.0653 35.4183 95.0799 33.748 92.7362 32.7064C89.0665 31.0754 85.3054 29.9333 81.5915 28.489C78.3378 27.2237 75.0117 27.5199 71.5774 27.5199C70.7739 27.5199 65.0446 27.6988 65.4397 28.489" stroke="white" stroke-width="3.99752" stroke-linecap="round"/>
<path d="M65.7647 41.7332C63.564 42.5373 61.2422 43.7447 61.2422 46.2736C61.2422 48.0095 62.0666 48.4843 63.8265 48.5169C66.9285 48.5743 68.0962 47.8005 70.1256 45.7711C72.1664 43.7304 69.2429 44.1218 67.5773 44.9815C66.4547 45.5608 64.1495 47.7305 64.1495 49.163C64.1495 50.5172 67.8667 46.4281 68.1695 45.9326C69.5262 43.7126 64.7023 43.3449 63.5752 44.138C62.8041 44.6806 63.0165 47.3091 64.1495 45.6096" stroke="white" stroke-width="3.99752" stroke-linecap="round"/>
<path d="M83.5277 45.6096C82.1651 45.6096 81.5326 46.0549 81.5895 47.476C81.628 48.439 83.5033 48.535 84.1737 48.5169C86.3694 48.4576 88.6054 46.8009 89.3423 44.7841C90.0907 42.7358 87.7616 43.3315 86.2914 43.3484C84.7605 43.366 82.5297 43.2627 81.9843 45.0353C81.5349 46.4958 83.224 46.6025 84.2455 46.5787C84.5357 46.572 86.9395 45.6837 86.3632 45.0353C85.6942 44.2828 84.1129 45.7376 83.5277 45.9326" stroke="white" stroke-width="3.99752" stroke-linecap="round"/>
<path d="M53.81 53.3625C53.81 55.6519 53.3434 58.1642 54.6175 60.1463C55.7053 61.8383 57.801 63.3494 59.5169 64.3457C62.294 65.9582 65.5724 68.1228 68.6696 68.9939C72.4518 70.0576 76.3498 70.2936 80.2809 70.1424C84.0614 69.997 87.7913 69.0034 90.959 66.93C92.6196 65.843 96.2225 64.8588 97.0966 62.8921C97.6831 61.5725 97.8947 60.2867 98.317 58.9259C98.6103 57.9808 98.6397 56.9729 99.1784 56.1263C99.8311 55.1006 98.8485 55.0756 98.0658 54.9777" stroke="white" stroke-width="3.99752" stroke-linecap="round"/>
<path d="M104.201 19.1209C102.366 18.6621 108.157 9.87046 108.903 8.94525C110.772 6.62766 112.752 4.38121 114.538 2" stroke="white" stroke-width="3.99752" stroke-linecap="round"/>
<path d="M114.543 28.8118C117.873 27.3134 122.15 27.3524 125.275 25.5815C127.192 24.4952 129.036 23.265 130.874 22.0281C133.781 20.0714 129.441 22.423 128.469 22.8536C128.043 23.0425 124.773 24.6124 125.849 24.6124" stroke="white" stroke-width="3.99752" stroke-linecap="round"/>
<path d="M120.68 51.7473C124.819 51.7473 128.959 51.7473 133.099 51.7473C136.823 51.7473 140.814 51.4289 144.441 52.4652C144.844 52.5804 147.748 53.3886 147.617 53.7035C147.443 54.1221 146.834 55.2777 146.522 54.6546" stroke="white" stroke-width="3.99752" stroke-linecap="round"/>
<path d="M91.6094 85.02C91.6094 90.5714 91.6094 96.1229 91.6094 101.674C91.6094 103.832 91.889 105.279 92.5785 107.309C92.6704 107.58 93.0834 109.278 93.6194 108.961C94.8557 108.228 95.8635 106.417 96.9574 105.479C101.574 101.522 107.141 98.6877 112.463 95.8237C113.987 95.0036 115.527 94.0598 117.129 93.4189" stroke="white" stroke-width="3.99752" stroke-linecap="round"/>
<path d="M65.4379 85.02C65.4379 90.5026 66.0915 96.3886 65.1866 101.818C64.904 103.514 64.4688 105.267 64.4688 106.986C64.4688 108.667 65.0575 108.471 66.407 108.027C71.3609 106.398 77.2331 107.489 82.2357 108.279" stroke="white" stroke-width="3.99752" stroke-linecap="round"/>
<path d="M47.0284 90.1887C46.0749 92.6784 44.6405 95.3446 44.1211 97.9416" stroke="white" stroke-width="3.99752" stroke-linecap="round"/>
<path d="M30.8768 79.8516C26.7035 79.8516 22.0709 84.2094 19.1399 86.8148C18.2699 87.588 16.4342 88.8624 16.0172 90.0092C15.7747 90.676 15.799 91.7089 16.1787 90.4938C16.6127 89.105 16.0172 87.9458 16.0172 86.6353" stroke="white" stroke-width="3.99752" stroke-linecap="round"/>
<path d="M2.125 60.4693C9.31552 60.4693 16.506 60.4693 23.6966 60.4693C24.6238 60.4693 25.551 60.4693 26.4782 60.4693C27.0097 60.4693 25.4484 60.1463 24.9169 60.1463C24.0152 60.1463 24.0603 59.7928 23.3735 59.572C22.0989 59.1623 20.6072 59.4355 19.2638 59.0157C18.3883 58.7421 14.2145 58.3939 13.7543 58.8542" stroke="white" stroke-width="3.99752" stroke-linecap="round"/>
<path d="M13.4329 31.7191C12.5071 30.2533 10.9732 29.1251 9.8795 27.7709C7.78675 25.1799 5.94382 22.5353 5.06987 19.2823C4.81243 18.324 3.8094 10.4326 4.38791 10.7219" stroke="white" stroke-width="3.99752" stroke-linecap="round"/>
<path d="M63.1797 14.5983C63.1797 13.1947 63.2044 11.8359 63.3771 10.4347C63.6743 8.02405 64.334 5.7459 64.9205 3.39976C65.1639 2.42616 65.1179 2.27542 65.1179 3.29208" stroke="white" stroke-width="3.99752" stroke-linecap="round"/>
<path d="M41.5354 23.6433C40.5616 20.0139 38.9575 16.2262 37.3359 12.9832" stroke="white" stroke-width="3.99752" stroke-linecap="round"/>
</svg>
