<svg width="41" height="41" viewBox="0 0 41 41" fill="none" xmlns="http://www.w3.org/2000/svg">
<path d="M27.4385 22.167C28.5478 22.1671 29.6133 22.3849 30.5898 22.7842C33.1788 23.8429 35.1428 26.1727 35.6475 29.0703L36.7676 35.5H27.6357L27.5615 35.0713L26.4414 28.6416C25.9993 26.1028 24.6953 23.9014 22.8633 22.3145C23.2187 22.2466 23.5816 22.2017 23.9502 22.1807C24.109 22.1716 24.2689 22.167 24.4297 22.167H27.4385ZM23.9199 28.7686C23.9262 28.7981 23.9325 28.8277 23.9385 28.8574C23.9325 28.8277 23.9262 28.7981 23.9199 28.7686ZM23.7061 27.9629C23.7134 27.986 23.7213 28.009 23.7285 28.0322C23.7213 28.009 23.7134 27.986 23.7061 27.9629ZM23.5342 27.4736C23.55 27.5144 23.5648 27.5556 23.5801 27.5967C23.5648 27.5556 23.55 27.5144 23.5342 27.4736ZM23.1768 26.6816C23.2057 26.7379 23.234 26.7946 23.2617 26.8516C23.234 26.7945 23.2058 26.7379 23.1768 26.6816ZM22.4658 25.54C22.5109 25.6009 22.5551 25.6625 22.5986 25.7246C22.5551 25.6625 22.511 25.6009 22.4658 25.54ZM22.1992 25.1982C22.2458 25.2547 22.2908 25.3124 22.3359 25.3701C22.2908 25.3124 22.2458 25.2547 22.1992 25.1982ZM21.8848 24.8389C21.9486 24.9078 22.0117 24.9777 22.0732 25.0488C22.0116 24.9777 21.9487 24.9078 21.8848 24.8389ZM21.5879 24.5352C21.6426 24.5885 21.6968 24.6424 21.75 24.6973C21.6967 24.6424 21.6426 24.5885 21.5879 24.5352ZM21.2646 24.2354C21.3227 24.2863 21.3799 24.3381 21.4365 24.3906C21.3799 24.3381 21.3227 24.2863 21.2646 24.2354ZM20.917 23.9473C20.9654 23.9853 21.013 24.0244 21.0605 24.0635C21.013 24.0244 20.9654 23.9853 20.917 23.9473ZM20.5664 23.6865C20.6318 23.7326 20.6967 23.7792 20.7607 23.8271C20.6967 23.7793 20.6318 23.7326 20.5664 23.6865ZM20.1602 23.417C20.2438 23.4689 20.3265 23.5223 20.4082 23.5771C20.3265 23.5224 20.2438 23.4689 20.1602 23.417ZM25.9336 5.5C30.0757 5.5 33.4336 8.85786 33.4336 13C33.4336 15.5545 32.1566 17.8108 30.2061 19.165C29.3873 19.7335 28.45 20.1437 27.4385 20.3496C26.9525 20.4485 26.4487 20.5 25.9336 20.5C25.4186 20.5 24.9155 20.4485 24.4297 20.3496C23.8303 20.2276 23.2569 20.034 22.7188 19.7783C22.6604 19.7506 22.6024 19.7215 22.5449 19.6924C22.348 19.5925 22.1571 19.4825 21.9707 19.3662C23.4002 17.638 24.2646 15.4213 24.2646 13C24.2646 10.5799 23.4053 8.36065 21.9746 6.63086C22.1597 6.51553 22.3495 6.40679 22.5449 6.30762C22.6024 6.27846 22.6604 6.24939 22.7188 6.22168C23.693 5.75872 24.7832 5.50005 25.9336 5.5Z" fill="white"/>
<path d="M12.7627 23.8336H15.7715C19.0119 23.8338 21.7829 26.1637 22.3389 29.3561L23.1182 33.8336H5.41504L6.19531 29.3561C6.75134 26.1637 9.52218 23.8337 12.7627 23.8336Z" fill="white" stroke="white" stroke-width="3.33333"/>
<mask id="path-3-inside-1_730_3903" fill="white">
<path d="M14.9102 5.5293C18.7486 5.85816 21.7617 9.07642 21.7617 13C21.7617 17.1421 18.4038 20.4999 14.2617 20.5C10.1196 20.5 6.76172 17.1421 6.76172 13C6.76172 9.92307 8.61475 7.27952 11.2656 6.12305C11.5769 9.14426 14.1319 11.5008 17.2354 11.501H21.5811C20.9302 8.29298 18.2326 5.82718 14.9102 5.5293ZM14.2617 5.5C14.4719 5.50001 14.6799 5.51039 14.8857 5.52735C14.6752 5.50916 14.4622 5.50043 14.2471 5.5C14.2519 5.49999 14.2569 5.5 14.2617 5.5Z"/>
</mask>
<path d="M14.9102 5.5293C18.7486 5.85816 21.7617 9.07642 21.7617 13C21.7617 17.1421 18.4038 20.4999 14.2617 20.5C10.1196 20.5 6.76172 17.1421 6.76172 13C6.76172 9.92307 8.61475 7.27952 11.2656 6.12305C11.5769 9.14426 14.1319 11.5008 17.2354 11.501H21.5811C20.9302 8.29298 18.2326 5.82718 14.9102 5.5293ZM14.2617 5.5C14.4719 5.50001 14.6799 5.51039 14.8857 5.52735C14.6752 5.50916 14.4622 5.50043 14.2471 5.5C14.2519 5.49999 14.2569 5.5 14.2617 5.5Z" fill="white"/>
<path d="M14.9102 5.5293L15.1947 2.20813L14.6125 8.84932L14.9102 5.5293ZM21.7617 13H25.0951V13L21.7617 13ZM14.2617 20.5V23.8333H14.2618L14.2617 20.5ZM6.76172 13L3.42839 13V13H6.76172ZM11.2656 6.12305L14.5814 5.78138L14.1138 1.24376L9.93274 3.0678L11.2656 6.12305ZM17.2354 11.501L17.2352 14.8343H17.2354V11.501ZM21.5811 11.501V14.8343H25.6586L24.8478 10.8382L21.5811 11.501ZM14.2617 5.5L14.2618 2.16667H14.2617V5.5ZM14.8857 5.52735L14.612 8.84942L15.1726 2.20638L14.8857 5.52735ZM14.2471 5.5L14.2408 2.16668L14.2404 8.83333L14.2471 5.5ZM14.9102 5.5293L14.6256 8.85047C16.7557 9.03296 18.4284 10.823 18.4284 13L21.7617 13L25.0951 13C25.095 7.32979 20.7415 2.68335 15.1947 2.20813L14.9102 5.5293ZM21.7617 13H18.4284C18.4284 15.3011 16.5629 17.1666 14.2617 17.1667L14.2617 20.5L14.2618 23.8333C20.2447 23.8332 25.0951 18.9831 25.0951 13H21.7617ZM14.2617 20.5V17.1667C11.9605 17.1667 10.0951 15.3012 10.0951 13H6.76172H3.42839C3.42839 18.9831 8.27863 23.8333 14.2617 23.8333V20.5ZM6.76172 13L10.0951 13C10.0951 11.2962 11.1185 9.82399 12.5985 9.1783L11.2656 6.12305L9.93274 3.0678C6.11105 4.73506 3.42839 8.54994 3.42839 13L6.76172 13ZM11.2656 6.12305L7.94985 6.46472C8.43461 11.1691 12.4067 14.8341 17.2352 14.8343L17.2354 11.501L17.2355 8.16765C15.8571 8.16758 14.7193 7.11944 14.5814 5.78138L11.2656 6.12305ZM17.2354 11.501V14.8343H21.5811V11.501V8.16765H17.2354V11.501ZM21.5811 11.501L24.8478 10.8382C23.9073 6.20238 20.016 2.64037 15.2078 2.20928L14.9102 5.5293L14.6125 8.84932C16.4493 9.01399 17.9531 10.3836 18.3143 12.1638L21.5811 11.501ZM14.2617 5.5L14.2617 8.83334C14.3628 8.83334 14.4777 8.83836 14.612 8.84942L14.8857 5.52735L15.1595 2.20527C14.8822 2.18242 14.581 2.16668 14.2618 2.16667L14.2617 5.5ZM14.8857 5.52735L15.1726 2.20638C14.8613 2.17949 14.5544 2.16728 14.2537 2.16668L14.2471 5.5L14.2404 8.83333C14.37 8.83359 14.4892 8.83884 14.5989 8.84831L14.8857 5.52735ZM14.2471 5.5L14.2534 8.83333C14.2518 8.83333 14.2512 8.83333 14.2528 8.83333C14.2538 8.83333 14.2544 8.83333 14.2561 8.83334C14.2575 8.83334 14.2595 8.83334 14.2617 8.83334V5.5V2.16667C14.2602 2.16667 14.2606 2.16667 14.2559 2.16667C14.2527 2.16667 14.2472 2.16666 14.2408 2.16668L14.2471 5.5Z" fill="white" mask="url(#path-3-inside-1_730_3903)"/>
<circle cx="14.2656" cy="13" r="5.83333" stroke="white" stroke-width="3.33333"/>
</svg>
