<svg width="25" height="24" viewBox="0 0 25 24" fill="none" xmlns="http://www.w3.org/2000/svg">
<path d="M16.5 6C17.6046 6 18.5 6.89543 18.5 8V20C18.5 21.1046 17.6046 22 16.5 22H4.5C3.39543 22 2.5 21.1046 2.5 20V8C2.5 6.89543 3.39543 6 4.5 6H16.5ZM7 18.5L8.5 15L6.5 13L4.5 15V20H16.5V15L13.5 12L7 18.5ZM10 8C9.17157 8 8.5 8.67157 8.5 9.5C8.5 10.3284 9.17157 11 10 11C10.8284 11 11.5 10.3284 11.5 9.5C11.5 8.67157 10.8284 8 10 8Z" fill="#0C2776"/>
<path d="M7.5 6V4C7.5 3.44772 7.94772 3 8.5 3H20.5C21.0523 3 21.5 3.44772 21.5 4V16C21.5 16.5523 21.0523 17 20.5 17H18.5" stroke="#0C2776" stroke-width="2"/>
</svg>
