<svg width="665" height="182" viewBox="0 0 665 182" fill="none" xmlns="http://www.w3.org/2000/svg">
<path d="M625.904 67.7186V85.0274H621.947V74.9637L617.474 82.3074H617.028L612.555 74.9637V85.0274H608.598V67.7186H612.555L617.251 75.4088L621.947 67.7186H625.904ZM637.13 85.3739C631.918 85.3739 628.136 81.4669 628.136 76.373C628.136 71.279 631.918 67.3721 637.13 67.3721C640.272 67.3721 643.04 68.9302 644.547 71.3781L641.139 73.3562C640.372 72.0209 638.888 71.2297 637.13 71.2297C634.069 71.2297 632.088 73.2818 632.088 76.373C632.088 79.4642 634.069 81.5162 637.13 81.5162C638.888 81.5162 640.395 80.7251 641.139 79.3897L644.547 81.3679C643.063 83.8158 640.296 85.3739 637.13 85.3739Z" fill="#0C2776"/>
<path d="M661.001 76.6604C661.001 82.7067 657.352 88.3576 651.087 92.5637C644.832 96.7641 636.103 99.4097 626.393 99.4097C616.678 99.4097 607.954 96.7641 601.699 92.5637C595.434 88.3576 591.785 82.7067 591.785 76.6604C591.785 70.6146 595.434 64.9637 601.699 60.7571C607.954 56.5572 616.678 53.9111 626.393 53.9111C636.103 53.9111 644.832 56.5572 651.087 60.7571C657.352 64.9637 661.001 70.6146 661.001 76.6604Z" stroke="#0C2776" stroke-width="7.3713"/>
<mask id="mask0_730_5067" style="mask-type:luminance" maskUnits="userSpaceOnUse" x="0" y="0" width="628" height="182">
<path d="M627.185 0.00195312H0V181.195H627.185V0.00195312Z" fill="white"/>
</mask>
<g mask="url(#mask0_730_5067)">
<path d="M626.816 18.6903V18.7101L626.797 18.6705C626.253 17.9287 625.186 17.622 624.253 17.9682L623.76 18.1463C621.319 18.3738 618.647 18.6012 615.614 18.8287C615.415 18.8486 615.216 18.8881 615.031 18.9474C591.953 26.9888 569.187 35.05 549.957 41.8649L538.365 45.9795C538.82 44.308 539.081 42.4386 538.939 40.401C538.782 35.5049 534.916 30.965 531.191 29.0066C531.158 28.9868 531.12 28.967 531.091 28.9571C523.741 25.5645 516.685 25.8316 510.681 26.613C510.918 26.0294 511.145 25.4458 511.392 24.8623C511.591 24.3776 511.553 23.8237 511.292 23.3588C511.027 22.8841 510.553 22.5478 509.999 22.4093L508.15 21.9444C507.904 21.7169 507.586 21.5587 507.231 21.4598L505.34 20.9949C504.985 20.9058 504.629 20.9058 504.283 20.9949L502.435 20.53C501.881 20.3915 501.288 20.4608 500.791 20.7279C500.308 20.9949 499.943 21.4202 499.824 21.9246C499.042 24.981 477.831 60.8656 477.101 63.0215C472.375 67.7296 467.026 72.0717 461.38 76.5428C463.269 72.5168 465.226 68.2344 467.085 63.9416C469.201 58.8278 471.288 53.7438 473.374 48.6797C475.443 43.6551 477.509 38.6701 479.556 33.7048C479.949 32.7355 479.414 31.6673 478.338 31.2914L468.4 27.879C467.342 27.523 466.175 27.9582 465.72 28.878C458.779 43.032 452.54 53.9419 446.103 63.2097C442.978 67.631 438.806 73.2194 434.06 77.1756C432.131 78.8869 430.371 79.5989 429.916 79.6681C429.699 79.6681 429.491 79.6681 429.283 79.7278C428.621 79.5889 427.227 78.8869 426.881 78.5408C426.811 78.4517 426.742 78.3825 426.653 78.3034C426.337 77.7099 426.04 75.2866 426.742 71.9238C427.355 68.699 428.413 64.901 429.956 60.3115C432.517 52.8241 436.027 45.2278 440.388 37.7304C440.655 37.2755 440.694 36.7414 440.516 36.2666C440.338 35.7819 439.943 35.3863 439.429 35.1687L436.284 33.8334C436.076 33.5465 435.78 33.3092 435.414 33.1509L432.28 31.8255C431.933 31.6771 431.548 31.6178 431.172 31.6574L428.018 30.3122C427.494 30.0847 426.871 30.0649 426.337 30.2627C425.793 30.4606 425.368 30.8463 425.15 31.3409C423.509 35.2181 421.778 39.1646 420.117 42.9826C416.488 51.2911 412.721 59.8763 409.616 68.3231C408.262 71.8447 407.164 74.258 405.928 76.4437C405.285 77.5914 404.524 78.7978 403.634 80.0838L401.607 82.8138C401.35 83.1006 401.093 83.4167 400.816 83.7433C400.539 84.0794 400.242 84.4359 399.946 84.762L400.598 81.2111L401.815 75.7417C402.932 70.697 404.049 65.6429 405.187 60.5788L407.51 50.0743L408.568 44.6442C408.588 44.5651 408.598 44.4959 408.598 44.4068C408.617 44.12 408.657 43.9123 408.697 43.7046C408.855 42.8144 408.973 41.9638 408.697 39.9757C408.509 38.4624 406.729 36.1875 404.752 35.5149C402.793 34.7137 399.748 35.1687 398.403 36.1083C397.78 36.5237 397.237 36.9392 396.772 37.3546C396.703 37.4139 396.653 37.4634 396.603 37.5227L395.397 38.9075C395.397 38.9075 395.328 38.9965 395.288 39.0262C391.304 44.4662 388.238 49.8467 385.272 55.0497C385.223 55.0891 385.153 55.1483 385.104 55.1881C384.619 55.3465 384.194 55.6527 383.937 56.0883L379.537 63.5358V63.4766L380.447 58.0266C380.585 57.0478 380.694 55.9992 380.753 54.9999V54.6937C380.734 54.5254 380.753 54.387 380.773 54.1197C380.872 53.0218 380.872 51.914 379.774 49.5007C379.715 49.4016 379.656 49.2931 379.596 49.194C377.559 46.4246 374.83 46.1971 372.803 46.5038C371.637 46.7313 371.083 46.9785 370.598 47.2654C370.549 47.295 370.499 47.3247 370.45 47.3544L369.679 47.8487C369.679 47.8487 369.59 47.9084 369.56 47.9378C368.789 48.5213 368.423 48.9271 368.116 49.2533C368.018 49.3722 367.899 49.5007 367.76 49.6391C367.691 49.7083 367.622 49.7875 367.563 49.8666C366.9 50.7175 366.198 51.5978 365.644 52.4383C364.636 53.9021 363.647 55.465 362.53 57.354C358.871 63.4965 355.529 69.8068 352.296 75.9194L348.4 83.4566C351.198 72.8235 354.471 62.191 358.179 51.6964C358.347 51.212 358.288 50.6678 358.021 50.2226C357.744 49.7676 357.279 49.4414 356.725 49.313L355.816 49.0954C355.579 48.9172 355.302 48.7887 354.995 48.7195L352.939 48.2346C352.642 48.1653 352.335 48.1554 352.049 48.2052L351.159 47.9876C350.605 47.8587 350.011 47.9279 349.517 48.1952C349.033 48.472 348.677 48.8973 348.558 49.4016C344.593 65.8505 338.344 80.6967 329.969 93.5354C325.568 100.4 319.873 107.165 316.353 110.865C315.256 112.012 314.168 113.13 312.922 114.158C312.23 114.732 311.706 115.029 311.399 115.157C310.648 113.347 310.865 111.141 311.083 108.817C311.152 108.273 311.271 107.373 311.34 106.829C311.567 105.612 311.834 104.405 312.121 103.14L313.545 97.4917C313.97 96.6114 314.405 95.7411 314.83 94.8708C315.74 93.0211 316.689 91.1122 317.54 89.1933C317.559 89.144 317.579 89.0843 317.599 89.035C319.715 82.6156 321.851 76.1176 324.036 69.4906L327.329 59.481C327.655 58.4917 327.042 57.4531 325.935 57.1464L320.357 55.5934C319.824 55.4451 319.24 55.4948 318.736 55.7318C318.242 55.9793 317.866 56.3851 317.707 56.8695C317.342 58.0072 316.986 59.1544 316.63 60.3015C315.463 56.3652 312.902 53.3484 309.412 51.7855C309.352 51.7656 309.293 51.7362 309.224 51.7163C305.17 50.4009 300.216 50.9745 295.232 53.3385C292.157 54.8516 289.685 56.6221 286.887 58.8377C282.378 62.5371 278.363 66.9285 274.606 72.2599C268.733 80.5981 265.114 90.1921 264.125 100.014C263.521 101.26 263.077 102.536 262.829 103.832C262.671 104.633 262.563 105.424 262.503 106.176C261.119 106.7 260.99 108.372 260.871 109.747C260.871 109.885 260.881 110.014 260.891 110.152C261.188 111.883 261.495 113.396 261.87 114.831C261.603 115.068 261.356 115.295 261.119 115.503C256.115 119.766 251.468 123.109 246.93 125.691C244.991 126.779 242.095 128.312 239.336 129.044C237.961 129.44 235.192 129.776 234.372 128.352C233.037 124.811 233.976 120.35 234.876 116.018C235.044 115.207 235.212 114.396 235.351 113.673C235.835 111.685 236.429 109.747 236.992 108.036C241.57 105.988 245.051 101.429 246.445 97.8084C246.91 96.8489 247.335 95.9094 247.76 94.9793C248.759 92.7836 249.708 90.7263 250.934 88.7183L261.386 70.9644C261.88 70.1135 261.594 69.0749 260.714 68.5407L254.059 64.4758C253.129 63.9018 251.854 64.0999 251.191 64.911C244.981 72.359 239.79 79.9549 235.687 87.5318C235.054 87.6702 234.52 88.0656 234.253 88.6392C232.602 92.2792 231.129 96.1369 229.873 100.133C227.707 100.538 225.067 100.261 222.071 99.9448C221.271 99.8557 220.44 99.7765 219.639 99.6974C223.277 93.0903 226.195 86.6018 228.557 79.8364C229.111 78.1749 229.685 76.4437 230.219 74.1788L230.456 72.8828C230.911 71.1028 229.794 67.5812 227.421 66.1572C225.146 64.6735 223.911 64.5844 221.418 64.7427H221.28C218.62 65.0693 216.415 66.7706 215.486 68.2245C214.932 69.1048 214.685 69.5992 214.447 70.0543L213.192 72.5865L208.831 82.2103C204.955 91.1615 201.218 100.498 197.43 110.785C196.728 111.853 196.204 112.744 195.769 113.604L195.067 114.475C192.971 117.056 190.796 119.717 188.403 122.101C184.358 126.156 179.929 129.954 175.736 133.446L174.362 134.593C170.525 137.778 166.906 140.804 162.526 143.604C161.29 144.395 160.133 144.998 158.946 145.453C158.58 145.602 158.205 145.681 157.938 145.7C157.799 144.207 158.294 142.585 158.818 140.884C158.986 140.349 159.154 139.806 159.283 139.351C160.934 134.395 163 129.311 165.146 124.119C169.507 113.585 174.144 103.238 178.109 94.5048C178.703 93.1595 179.325 91.8142 179.939 90.4594C181.57 86.9284 183.251 83.2783 184.576 79.4311C184.942 78.4716 185.634 76.0778 184.161 74.6633C183.389 73.9214 182.233 73.6545 180.908 73.9612C179.197 74.4262 177.833 75.2767 176.606 76.147C174.51 77.6208 172.641 79.223 170.832 80.7759L170.13 81.3893C147.061 100.419 128.244 126.215 110.96 151.012L110.584 151.467C109.487 152.782 108.448 154.029 107.213 154.889C107.074 154.494 106.995 154.068 106.926 153.643C106.678 150.458 107.015 147.273 107.588 143.485C108.34 138.668 109.625 133.02 111.405 126.68C111.543 126.443 111.692 126.205 111.83 125.978C112.028 125.652 112.226 125.325 112.404 125.009C116.804 117.571 121.204 109.826 125.486 101.972L131.794 90.2518L134.899 84.3961L135.69 82.9422C136.165 82.2302 136.431 81.3993 135.996 80.6375C135.611 79.9648 134.81 79.5496 133.95 79.6088C133.356 79.6487 132.575 79.9056 132.13 80.865C132.012 81.1419 131.824 81.4286 131.537 81.5277C131.339 81.1224 131.438 80.6868 131.596 80.3607C131.695 80.1331 131.755 79.8857 131.755 79.6581V79.5297C131.755 78.4911 130.815 77.6506 129.658 77.6506C129.124 77.6506 128.62 77.8284 128.254 78.1351C128.175 78.1943 128.096 78.2441 128.017 78.3133C127.878 78.4418 127.75 78.5901 127.661 78.7485L127.345 79.2728C127.216 79.3913 127.018 79.5595 126.761 79.6681C126.662 79.2429 126.86 78.7978 126.949 78.6494C127.839 77.0671 126.376 76.1669 126.306 76.1271C125.377 75.5734 124.121 75.7711 123.458 76.5722C123.34 76.7106 123.211 76.9187 123.083 77.1657L121.402 80.3208C117.219 88.204 113.353 96.4631 109.922 104.841C108.726 107.68 107.677 110.587 106.639 113.406L106.352 114.198C105.838 115.019 105.334 115.84 104.829 116.671C104.306 117.541 103.772 118.401 103.248 119.242L96.2074 130.152L89.6617 139.944C87.7334 142.713 86.1018 144.939 84.5394 146.956C84.0352 147.501 83.5803 148.084 83.1253 148.638C82.4235 149.519 81.7411 150.379 80.9895 150.992C80.9402 150.072 81.1279 149.024 81.326 147.946C81.4544 147.253 81.5928 146.521 81.652 145.809C82.1368 143.129 82.7893 140.419 83.412 137.896L85.2318 131.042C85.2318 131.042 85.2611 130.973 85.281 130.943C86.072 129.806 86.8534 128.638 87.6045 127.471C87.6543 127.382 87.6936 127.293 87.7434 127.205C88.485 125.414 89.365 123.416 90.3042 121.25C93.5376 113.812 97.5718 104.544 100.825 94.1782L103.079 86.8392C103.267 86.2064 103.079 85.5437 102.595 85.0588C102.278 84.7521 101.853 84.5544 101.388 84.4852C101.191 84.416 100.914 84.307 100.578 84.1885C99.8559 83.9116 99.2133 83.6741 98.63 83.4959C98.5409 83.0313 98.3527 82.6256 98.1949 82.3587C97.9476 81.9036 97.4533 81.1817 96.6226 80.7366C96.0885 80.3208 95.2777 80.0838 94.1702 80.2616C93.2111 80.41 91.9553 80.8849 91.1544 81.706C91.0359 81.6661 90.8975 81.6268 90.7686 81.6069L89.1176 81.3594C88.7812 81.3002 88.4058 81.2509 88.04 81.221H88.0201C86.8828 81.1419 85.7459 81.3101 85.4294 82.6554C85.3995 82.7939 85.3801 82.9323 85.3801 83.0607L82.3245 93.5748C80.1986 100.864 78.5177 107.096 77.1728 112.595C75.8379 114.534 74.7304 118.431 73.2277 124.01L73.1486 124.296C72.8619 125.335 72.5946 126.324 72.3079 127.303C68.5012 134.148 64.9219 139.469 61.0455 144.059C55.5972 150.646 48.5771 156.383 41.863 161.694C39.0153 163.93 35.2084 166.808 30.9763 169.241L30.7094 169.38C27.0508 171.308 22.9176 173.494 18.4878 172.07L17.855 171.704C13.0396 167.935 12.1397 162.792 11.2795 157.807C11.1806 157.194 11.062 156.591 10.973 156.076C10.2808 150.903 10.1226 145.216 10.4786 138.688C11.0323 127.768 12.8517 116.146 15.8576 104.168C19.9809 87.9471 19.447 92.8135 27.0212 78.857C31.2829 70.361 36.652 62.7546 38.3132 60.4399C38.3923 60.3612 38.4517 60.2916 38.511 60.2029C53.3031 39.4713 73.9694 23.8831 96.7216 16.2868C109.22 11.9644 121.777 9.42242 134.009 8.71029C137.667 8.52233 140.624 8.56191 143.481 8.83884C145.212 9.07624 146.972 9.32349 148.515 9.76861C148.208 10.4412 148.01 11.183 147.941 11.9842C147.427 17.9682 154.22 23.072 159.826 21.1136C162.506 20.1739 164.573 17.3451 163.624 14.4174C163.406 13.7448 163.06 13.1118 162.605 12.548C162.486 10.7775 161.943 9.05647 160.964 7.49368C160.964 7.49368 160.954 7.47392 160.944 7.47392C158.383 4.06151 154.764 1.91516 150.512 1.28214C150.037 1.19312 149.553 1.1041 149.068 1.01508C147.625 0.728245 146.121 0.441405 144.609 0.441405C142.691 0.401842 141.91 0.441405 140.693 0.530422H140.565C138.795 0.748027 136.975 0.965626 135.443 1.4305C135.324 1.40083 135.206 1.38105 135.116 1.35137C135.116 1.32171 135.097 1.29203 135.087 1.26236C134.77 0.451296 133.871 -0.0531443 132.921 0.0160927C114.777 1.47996 96.4643 6.13862 79.9417 13.4679C61.0062 22.0928 47.7662 33.9224 39.9942 42.3396C39.9546 42.3891 39.8854 42.4682 39.8458 42.5177C34.3778 49.7974 27.6441 58.7486 21.7212 68.2046C21.4542 68.6397 21.1477 69.0455 20.8412 69.4508C19.4667 71.2512 14.3052 80.5683 14.6414 80.5289C12.0508 85.5139 14.6414 80.5289 10.7159 89.4701C4.67435 105.454 -1.88138 128.619 0.501625 150.26C0.343416 150.547 0.264312 150.873 0.293976 151.22C0.590616 154.969 1.0949 159.449 2.55832 164.335C3.35924 167.134 4.33815 169.459 5.6236 171.664C6.93869 174.513 10.6368 177.995 14.3745 179.854C16.5004 180.784 19.0712 181.18 21.5729 181.18C24.213 181.18 26.7739 180.744 28.6724 180.062C32.2321 178.964 34.9414 177.5 37.2058 176.214C42.0509 173.415 45.9467 170.388 49.5064 167.53C57.2487 161.289 62.8946 155.799 66.2862 151.18C66.0294 153.564 65.9502 155.572 66.0294 157.362C66.3161 160.567 66.9094 162.773 67.888 164.296C67.9079 164.325 67.9278 164.365 67.9571 164.385L68.3528 164.928C69.2129 166.125 69.9546 167.154 72.3079 168.944C72.7036 169.251 73.2178 169.409 73.7419 169.4C76.4212 169.32 77.9145 168.766 79.2295 168.292C79.447 168.203 79.6745 168.133 79.892 168.044C79.9417 168.024 79.991 168.005 80.0403 167.985C81.5136 167.352 83.3627 166.561 85.4986 164.543C89.4835 161.041 93.7944 155.087 96.8699 150.438C96.8301 151.062 96.8202 151.655 96.8202 152.209C96.9984 155.206 97.3344 157.53 98.3433 159.063C99.3517 160.705 100.123 161.852 102.407 163.751C102.703 164.009 103.089 164.177 103.504 164.236C105.838 164.572 107.113 164.444 108.142 164.335C108.498 164.296 108.834 164.256 109.21 164.256C110.021 164.256 111.108 164.177 112.404 163.554C113.472 163.218 114.559 162.584 115.736 161.655C119.474 159.122 123.844 153.544 128.076 148.153C128.234 147.946 128.392 147.738 128.551 147.531C128.897 147.372 129.193 147.125 129.401 146.808C130.696 144.82 132.002 142.773 133.317 140.725C133.356 140.666 133.416 140.557 133.445 140.498L135.364 136.907C136.204 135.285 137.035 133.653 137.875 131.982L138.982 129.796C141.02 125.859 143.116 121.804 145.321 118.045C145.588 117.927 145.815 117.749 146.013 117.531C146.221 117.283 146.488 116.977 146.745 116.621C150.986 111.398 155.693 106.809 160.133 102.586C161.478 101.369 162.526 100.489 163.465 99.7073C164.009 99.2423 164.533 98.8171 165.028 98.372C165.334 98.3919 165.63 98.362 165.908 98.2734C165.611 99.0053 165.394 99.7173 165.314 100.459L165.235 100.508C164.899 100.726 164.652 101.013 164.504 101.359C164.049 101.468 163.643 101.715 163.356 102.071C163.06 102.437 162.901 102.793 162.823 103.14L155.97 118.57L151.362 129.638L151.076 130.36C148.9 135.997 146.656 141.833 147.061 145.809C147.17 147.847 147.655 149.538 148.633 151.289C148.633 151.309 148.653 151.319 148.663 151.338C149.207 152.159 149.968 152.971 151.076 153.9C151.234 154.029 151.412 154.148 151.61 154.217C152.964 154.79 154.071 155.097 155.08 155.335C159.164 156.146 163.831 154.909 169.349 151.586C171.692 150.161 174.263 148.381 177.199 146.096L183.083 141.437L188.996 136.502L188.393 138.866C188.284 139.024 188.205 139.182 188.146 139.331C187.681 140.775 188.669 141.378 190.143 141.863C190.163 141.962 190.183 142.041 190.212 142.14C191.092 144.791 193.089 145.473 194.563 145.562C196.827 145.789 198.587 143.91 198.874 143.168C198.894 143.109 198.913 143.069 198.933 143.01C198.953 142.971 198.963 142.941 198.983 142.911L199.151 142.486C199.151 142.486 199.171 142.447 199.181 142.417C199.586 142.357 200.001 142.248 200.427 142.031C201.079 141.695 201.484 141.071 201.484 140.399V140.023C201.386 138.055 201.623 135.77 201.86 133.545C203.452 128.827 205.282 123.703 207.477 117.917C209.484 115.444 211.422 112.813 213.429 109.895C213.449 109.875 213.478 109.865 213.498 109.845L213.587 109.776C215.506 109.044 217.977 109.133 221.587 109.539C223.06 109.707 224.84 109.875 226.778 109.895C225.601 113.911 224.86 117.511 224.425 121.131C223.554 127.442 224.998 134.899 231.593 136.987C238.881 140.013 248.719 134.593 249.767 133.999C253.337 132.11 256.827 129.825 260.822 126.759C262.414 125.513 263.986 124.217 265.578 122.842C268.644 127.501 274.171 130.142 279.579 129.489C285.147 128.817 288.627 126.571 291.247 124.9C293.611 123.278 295.727 121.477 297.734 119.371C297.763 119.331 297.803 119.301 297.823 119.272C297.991 119.183 298.159 119.094 298.367 118.975C299.988 117.946 301.472 116.74 302.886 115.276C303.034 117.778 303.627 120.202 305.071 122.269C306.564 124.455 309.669 124.831 311.864 123.94C313.604 123.367 315.067 122.477 316.136 121.765C318.42 120.291 320.911 118.095 324.016 114.841L327.675 110.865L330.443 107.581C332.164 105.464 333.885 103.169 335.565 100.746C336.149 99.8955 336.732 99.0446 337.296 98.1644C336.505 101.893 335.733 105.741 334.972 109.747L331.699 116.116C331.442 116.611 331.442 117.185 331.699 117.689C331.956 118.184 332.431 118.57 333.014 118.718L333.805 118.926C334.072 119.282 334.468 119.568 334.972 119.697L336.188 120.013C336.673 120.142 337.177 120.103 337.622 119.934L338.423 120.152C339.006 120.31 339.639 120.231 340.153 119.934C340.667 119.647 341.014 119.163 341.102 118.619C341.33 117.244 341.587 115.859 341.864 114.484C342.002 113.733 342.151 112.981 342.299 112.229C350.002 97.5609 358.258 81.9927 367.158 66.9384L368.235 65.158C368.759 64.2877 369.293 63.4173 369.837 62.547C369.808 62.6461 369.788 62.7447 369.758 62.8438C367.949 70.2619 365.823 77.789 363.775 85.0588C363.222 87.027 362.668 88.9956 362.124 90.9339L360.7 95.642L359.069 98.4218C357.883 100.429 356.696 102.437 355.519 104.415C355.232 104.88 355.193 105.454 355.4 105.948C355.608 106.453 356.043 106.849 356.607 107.046L357.675 107.422C357.764 107.571 357.863 107.719 357.991 107.857L358.723 108.59C359.059 108.926 359.534 109.153 360.038 109.203L361.996 109.41C362.352 109.45 362.688 109.41 363.004 109.302L364.072 109.678C364.626 109.875 365.249 109.845 365.773 109.608C366.307 109.371 366.703 108.936 366.86 108.421C367.444 106.532 368.008 104.643 368.571 102.764C369.046 101.201 369.501 99.6381 369.985 98.0752C371.182 95.9686 372.349 93.8914 373.515 91.8142C380.338 79.7179 386.775 68.2738 395.259 54.7032L395.536 54.6639C396.198 54.5648 396.782 54.1794 397.078 53.6252C397.187 53.4375 397.276 53.2593 397.375 53.0811C396.722 55.811 396.011 58.531 395.328 61.2117L395.042 62.3588C393.43 68.5013 391.808 74.6732 390.147 80.9143C389.929 81.7851 389.692 82.6554 389.464 83.5457C388.773 86.1566 388.06 88.8473 387.596 91.4288C387.596 91.4781 387.586 91.5175 387.576 91.5573C387.517 92.2299 387.408 92.9026 387.299 93.5847C386.854 96.4137 386.36 99.6282 388.98 102.319C389.267 102.616 389.643 102.813 390.058 102.912C394.27 103.832 397.326 101.785 400.025 99.9647C400.49 99.658 400.944 99.3414 401.419 99.0546C401.458 99.0247 401.508 98.9953 401.538 98.9655C404.573 96.7304 407.619 93.862 410.576 90.4694C413.413 87.2844 415.796 83.9808 417.833 80.3407C418.308 81.4979 419 82.6057 419.979 83.6248L420.097 83.7433C422.322 85.7016 426.06 87.7195 429.867 87.5612C433.713 87.6897 437.085 85.3854 439.557 83.694C439.586 83.6741 439.616 83.6542 439.646 83.6248C445.203 79.3714 449.722 73.9513 453.44 69.2034L454.152 68.2539C451.284 73.5555 448.061 79.698 445.035 86.0675C444.135 87.9072 443.097 89.7569 442.098 91.5673L441.396 92.8334C431.241 101.468 423.044 108.877 415.638 116.136C410.842 120.864 405.266 126.561 400.153 132.911C397.84 135.849 395.417 139.034 393.469 142.892C392.678 144.415 391.61 146.789 391.353 149.894C390.691 153.327 393.756 158.598 398.285 159.756L400.342 160.27C400.836 160.389 401.37 160.349 401.834 160.151L403.14 159.578C410.991 156.146 415.529 150.577 419.514 145.661L420.453 144.514C425.091 138.846 429.125 133.376 432.467 128.243C439.468 117.442 445.549 107.096 452.194 95.6719C452.194 95.6719 464.089 87.017 466.838 84.8412C468.183 83.7732 469.538 82.7048 470.902 81.6268C465.256 98.0951 459.481 115.048 454.557 132.16C454.221 132.417 453.964 132.773 453.865 133.188C452.431 138.906 450.711 145.246 448.763 152.011C448.476 152.98 449.099 153.979 450.167 154.276L457.87 156.442C458.957 156.749 460.134 156.215 460.49 155.235C464.643 143.9 469.538 131.547 473.917 121.359C473.936 121.299 473.969 121.23 473.988 121.171L478.201 106.334C481.826 97.9468 485.38 89.3516 488.797 81.0234C491.043 82.3786 493.692 82.9716 495.649 82.8432C498.658 82.754 500.853 81.9828 502.492 81.4092C506.023 80.0838 508.842 78.4119 511.444 76.8097C516.339 73.7636 521.002 70.0343 525.732 65.3855C529.418 61.617 532.375 57.8982 534.731 54.0604C568.002 42.2803 597.488 31.7365 624.807 21.8455C624.888 21.8455 624.959 21.8257 625.035 21.8257C625.508 21.7763 625.954 21.5884 626.29 21.2916L626.546 21.0641C627.252 20.4311 627.371 19.4321 626.816 18.6903ZM307.998 74.7524C307.493 80.0047 306.564 86.8293 303.825 93.2088C301.64 98.5602 298.179 103.901 293.255 109.519L292.899 109.925C291.851 111.102 290.783 112.318 289.685 113.495C286.214 115.147 282.694 115.879 279.53 115.602C277.819 115.424 276.465 114.643 275.417 113.219C276.554 111.853 277.612 110.489 278.61 109.074C278.66 108.995 278.729 108.877 278.779 108.807C278.957 108.471 279.154 108.154 279.343 107.828C280.331 106.196 281.557 104.158 281.221 100.469C281.191 100.341 281.172 100.202 281.142 100.083C280.292 97.4225 279.441 96.0378 276.287 94.3565C275.832 94.1289 275.338 93.9606 274.784 93.862C275.654 90.1921 276.722 87.126 278.126 84.3368C281.004 78.4418 284.959 73.0117 289.853 68.1946C289.913 68.1354 289.962 68.0761 290.021 68.0069L290.219 67.8287C294.629 63.8724 300.107 58.9761 305.367 59.7478C307.038 60.7073 307.622 62.7248 307.988 65.6031C308.284 68.1652 308.284 71.0037 307.988 74.7723V74.7524H307.998ZM427.484 117.422C424.438 122.714 421.116 128.213 417.438 133.426C417.408 133.475 417.378 133.515 417.349 133.554C416.251 134.979 415.163 136.452 414.125 137.887C410.516 142.842 406.788 147.956 401.667 151.18C401.558 151.091 401.429 151.022 401.31 150.963C401.192 150.607 401.103 149.617 401.607 148.203C402.26 146.264 403.436 144.049 405.345 141.27C408.321 137.016 412.276 132.437 418.179 126.413C421.185 123.377 424.33 120.35 427.494 117.412H427.484V117.422ZM482.423 73.7337L483.29 70.8355C483.451 70.6771 483.598 70.5288 483.764 70.3709C483.309 71.4882 482.878 72.6159 482.423 73.7337ZM517.713 61.2017H517.732C511.918 66.1771 504.71 72.3391 495.663 75.0491C494.791 75.1776 493.673 75.0984 492.981 74.5049C492.901 74.4357 492.834 74.3864 492.744 74.3272C492.654 74.2679 492.616 74.0996 492.597 73.9612C492.545 73.4862 492.763 73.0312 492.901 72.9027C492.943 72.8634 492.981 72.8235 493 72.8041C494.682 70.9739 496.777 69.876 498.805 68.818L499.004 68.7189C502.871 66.8299 506.748 65.3955 509.605 64.8119C509.733 64.7726 509.861 64.7328 509.98 64.7034C513.818 63.1798 515.605 62.0526 515.97 60.8158C517.216 60.3707 518.472 59.9356 519.718 59.4904C519.064 60.0346 518.405 60.6082 517.713 61.2017ZM530.556 43.2001H530.546C530.172 45.5246 529.153 47.651 528.115 49.4808C527.836 49.5799 527.589 49.7183 527.371 49.8965L517.514 53.3878C516.088 53.8826 514.647 54.3671 513.183 54.8615C509.089 56.2462 504.857 57.6706 500.744 59.3819C499.488 59.8962 498.203 60.4399 496.877 61.0434C499.886 53.6053 502.9 46.0883 505.828 38.7591L507.586 34.3675C512.619 33.0322 519.661 32.2508 526.314 35.2379C529.319 36.5435 531.238 40.0746 530.556 43.2001Z" fill="#0C2776"/>
</g>
</svg>
