<svg width="98" height="28" viewBox="0 0 98 28" fill="none" xmlns="http://www.w3.org/2000/svg">
<path d="M91.7536 10.6645V13.1879H91.1767V11.7207L90.5245 12.7914H90.4596L89.8074 11.7207V13.1879H89.2305V10.6645H89.8074L90.492 11.7856L91.1767 10.6645H91.7536ZM93.3903 13.2385C92.6303 13.2385 92.079 12.6688 92.079 11.9262C92.079 11.1835 92.6303 10.6139 93.3903 10.6139C93.8484 10.6139 94.2518 10.8411 94.4715 11.198L93.9748 11.4864C93.8629 11.2917 93.6466 11.1764 93.3903 11.1764C92.944 11.1764 92.6552 11.4755 92.6552 11.9262C92.6552 12.3769 92.944 12.676 93.3903 12.676C93.6466 12.676 93.8663 12.5607 93.9748 12.366L94.4715 12.6544C94.2553 13.0113 93.8518 13.2385 93.3903 13.2385Z" fill="white"/>
<path d="M96.8684 11.9676C96.8684 12.8491 96.3364 13.673 95.4231 14.2862C94.5111 14.8986 93.2385 15.2843 91.8229 15.2843C90.4066 15.2843 89.1346 14.8986 88.2227 14.2862C87.3093 13.673 86.7773 12.8491 86.7773 11.9676C86.7773 11.0862 87.3093 10.2623 88.2227 9.64907C89.1346 9.03676 90.4066 8.65099 91.8229 8.65099C93.2385 8.65099 94.5111 9.03676 95.4231 9.64907C96.3364 10.2623 96.8684 11.0862 96.8684 11.9676Z" stroke="white" stroke-width="1.07467"/>
<mask id="mask0_730_4183" style="mask-type:luminance" maskUnits="userSpaceOnUse" x="0" y="0" width="92" height="28">
<path d="M91.9382 0.791794H0.5V27.2082H91.9382V0.791794Z" fill="white"/>
</mask>
<g mask="url(#mask0_730_4183)">
<path d="M91.8845 3.51618V3.51907L91.8817 3.5133C91.8023 3.40515 91.6468 3.36044 91.5107 3.41091L91.4389 3.43687C91.0831 3.47004 90.6934 3.5032 90.2512 3.53637C90.2222 3.53926 90.1932 3.54502 90.1663 3.55368C86.8016 4.72604 83.4826 5.90129 80.679 6.89485L78.9891 7.49473C79.0554 7.25102 79.0934 6.97848 79.0727 6.68142C79.0499 5.96762 78.4861 5.30573 77.9431 5.02021C77.9382 5.01733 77.9327 5.01444 77.9286 5.01301C76.857 4.51839 75.8283 4.55732 74.9529 4.67124C74.9875 4.58616 75.0206 4.50109 75.0566 4.41601C75.0856 4.34535 75.08 4.26459 75.042 4.19682C75.0033 4.1276 74.9343 4.07857 74.8534 4.05838L74.584 3.99061C74.5481 3.95744 74.5018 3.93437 74.45 3.91995L74.1743 3.85217C74.1225 3.8392 74.0707 3.8392 74.0202 3.85217L73.7508 3.7844C73.6699 3.76421 73.5836 3.77431 73.511 3.81324C73.4406 3.85217 73.3874 3.91418 73.3701 3.98773C73.2561 4.43331 70.1637 9.66499 70.0573 9.9793C69.3683 10.6657 68.5884 11.2987 67.7652 11.9506C68.0406 11.3636 68.326 10.7393 68.597 10.1134C68.9055 9.36789 69.2097 8.62668 69.5138 7.88838C69.8155 7.15585 70.1167 6.42907 70.4152 5.70517C70.4725 5.56386 70.3944 5.40812 70.2376 5.35332L68.7888 4.85582C68.6345 4.80391 68.4644 4.86736 68.3981 5.00147C67.3861 7.065 66.4765 8.65557 65.538 10.0067C65.0824 10.6513 64.4741 11.4661 63.7822 12.0429C63.5011 12.2923 63.2445 12.3961 63.1781 12.4062C63.1464 12.4062 63.1162 12.4062 63.0858 12.4149C62.9892 12.3947 62.786 12.2923 62.7356 12.2419C62.7255 12.2289 62.7154 12.2188 62.7024 12.2073C62.6562 12.1207 62.613 11.7674 62.7154 11.2772C62.8048 10.807 62.959 10.2533 63.1839 9.5842C63.5572 8.49261 64.069 7.38513 64.7048 6.29208C64.7437 6.22574 64.7494 6.14788 64.7235 6.07866C64.6975 6.008 64.6399 5.95032 64.565 5.91859L64.1065 5.72392C64.0762 5.6821 64.033 5.6475 63.9796 5.62442L63.5227 5.43119C63.4722 5.40956 63.416 5.40091 63.3612 5.40668L62.9014 5.21056C62.825 5.1774 62.7341 5.17451 62.6563 5.20335C62.577 5.23219 62.515 5.28843 62.4833 5.36053C62.244 5.9258 61.9917 6.50117 61.7495 7.05779C61.2204 8.26911 60.6712 9.52076 60.2186 10.7522C60.0211 11.2656 59.861 11.6175 59.6809 11.9361C59.5871 12.1035 59.4762 12.2793 59.3464 12.4668L59.0508 12.8648C59.0134 12.9067 58.9759 12.9528 58.9355 13.0004C58.8952 13.0494 58.8519 13.1013 58.8087 13.1489L58.9038 12.6312L59.0812 11.8338C59.244 11.0983 59.4069 10.3615 59.5727 9.62318L59.9115 8.0917L60.0658 7.30005C60.0687 7.28852 60.0701 7.27842 60.0701 7.26544C60.0729 7.22362 60.0788 7.19334 60.0845 7.16306C60.1076 7.03328 60.1248 6.90926 60.0845 6.61941C60.0571 6.39879 59.7976 6.06712 59.5093 5.96906C59.2238 5.85226 58.7799 5.91859 58.5838 6.05559C58.493 6.11615 58.4137 6.17672 58.3459 6.23728C58.3358 6.24593 58.3287 6.25314 58.3214 6.26179L58.1456 6.46368C58.1456 6.46368 58.1355 6.47665 58.1297 6.48098C57.5487 7.27409 57.1019 8.05853 56.6694 8.81708C56.6622 8.82282 56.6521 8.83145 56.6449 8.83726C56.5742 8.86034 56.5123 8.90499 56.4748 8.9685L55.8332 10.0543V10.0456L55.9659 9.25109C55.9861 9.10838 56.002 8.95551 56.0106 8.80982V8.76518C56.0077 8.74064 56.0106 8.72046 56.0135 8.68149C56.0279 8.52143 56.0279 8.35992 55.8679 8.00808C55.8592 7.99364 55.8506 7.97781 55.8419 7.96337C55.5449 7.55961 55.1471 7.52645 54.8516 7.57115C54.6815 7.60432 54.6007 7.64037 54.5301 7.68219C54.5228 7.68651 54.5157 7.69084 54.5085 7.69516L54.396 7.76723C54.396 7.76723 54.383 7.77594 54.3787 7.78022C54.2662 7.8653 54.2129 7.92446 54.1682 7.972C54.1538 7.98935 54.1365 8.00808 54.1163 8.02826C54.1062 8.03835 54.0961 8.04989 54.0875 8.06143C53.9909 8.18548 53.8886 8.31382 53.8078 8.43635C53.6608 8.64977 53.5166 8.87762 53.3537 9.15302C52.8204 10.0485 52.3331 10.9685 51.8617 11.8597L51.2937 12.9586C51.7017 11.4084 52.1789 9.85822 52.7194 8.3282C52.7439 8.25757 52.7353 8.17823 52.6964 8.11333C52.656 8.04699 52.5883 7.99944 52.5075 7.98071L52.3749 7.94899C52.3403 7.92301 52.3 7.90428 52.2553 7.89419L51.9554 7.82349C51.9122 7.8134 51.8675 7.81195 51.8257 7.8192L51.6959 7.78748C51.6152 7.76868 51.5287 7.77877 51.4566 7.81775C51.386 7.85811 51.3341 7.9201 51.3168 7.99364C50.7387 10.3917 49.8276 12.5562 48.6066 14.428C47.9651 15.4287 47.1348 16.4151 46.6216 16.9544C46.4616 17.1217 46.3029 17.2846 46.1213 17.4346C46.0204 17.5182 45.944 17.5615 45.8993 17.5802C45.7898 17.3163 45.8215 16.9948 45.8532 16.6559C45.8633 16.5766 45.8806 16.4454 45.8907 16.366C45.9239 16.1887 45.9628 16.0127 46.0046 15.8282L46.2122 15.0048C46.2741 14.8764 46.3376 14.7495 46.3995 14.6227C46.5322 14.353 46.6706 14.0747 46.7946 13.7949C46.7974 13.7877 46.8003 13.779 46.8032 13.7718C47.1117 12.836 47.4231 11.8886 47.7416 10.9224L48.2217 9.46312C48.2693 9.31889 48.1799 9.16747 48.0185 9.12275L47.2054 8.89635C47.1276 8.87472 47.0425 8.88197 46.969 8.91653C46.8969 8.9526 46.8421 9.01176 46.819 9.08239C46.7657 9.24826 46.7138 9.4155 46.6619 9.58275C46.4918 9.00886 46.1185 8.56904 45.6096 8.34119C45.6009 8.33829 45.5923 8.334 45.5822 8.3311C44.9912 8.13932 44.2689 8.22294 43.5424 8.56759C43.094 8.78819 42.7336 9.04632 42.3256 9.36934C41.6683 9.90867 41.083 10.5489 40.5352 11.3262C39.6789 12.5418 39.1513 13.9405 39.0071 15.3725C38.9192 15.5542 38.8544 15.7402 38.8183 15.9291C38.7952 16.0459 38.7794 16.1612 38.7707 16.2709C38.5689 16.3473 38.5502 16.591 38.5328 16.7915C38.5328 16.8116 38.5343 16.8304 38.5357 16.8505C38.579 17.1029 38.6237 17.3235 38.6785 17.5327C38.6396 17.5673 38.6035 17.6004 38.5689 17.6307C37.8394 18.2522 37.1619 18.7396 36.5002 19.116C36.2177 19.2746 35.7953 19.4981 35.3931 19.6048C35.1927 19.6625 34.789 19.7116 34.6694 19.5039C34.4748 18.9876 34.6118 18.3373 34.743 17.7057C34.7674 17.5875 34.7919 17.4692 34.8121 17.3639C34.8828 17.074 34.9693 16.7915 35.0514 16.542C35.7189 16.2435 36.2263 15.5787 36.4296 15.0509C36.4973 14.911 36.5593 14.7741 36.6213 14.6385C36.7669 14.3184 36.9053 14.0184 37.0841 13.7257L38.6078 11.1373C38.6799 11.0133 38.6381 10.8618 38.5098 10.7839L37.5396 10.1913C37.4041 10.1076 37.2181 10.1365 37.1215 10.2548C36.2162 11.3406 35.4594 12.448 34.8612 13.5527C34.7689 13.5729 34.691 13.6305 34.6521 13.7141C34.4114 14.2448 34.1966 14.8072 34.0135 15.3898C33.6978 15.4489 33.3129 15.4086 32.8761 15.3624C32.7594 15.3494 32.6382 15.3379 32.5215 15.3263C33.0519 14.3631 33.4773 13.4171 33.8217 12.4308C33.9025 12.1885 33.9861 11.9361 34.064 11.6059L34.0986 11.417C34.1649 11.1575 34.002 10.6441 33.656 10.4365C33.3244 10.2201 33.1442 10.2072 32.7809 10.2302H32.7607C32.3729 10.2779 32.0515 10.5259 31.916 10.7378C31.8353 10.8662 31.7992 10.9383 31.7646 11.0046L31.5815 11.3738L30.9458 12.7769C30.3807 14.0819 29.8358 15.4431 29.2836 16.9429C29.1813 17.0986 29.1049 17.2284 29.0415 17.3538L28.9391 17.4808C28.6335 17.8571 28.3164 18.245 27.9675 18.5925C27.3779 19.1838 26.7321 19.7375 26.1208 20.2465L25.9205 20.4138C25.3611 20.8781 24.8335 21.3194 24.1949 21.7275C24.0147 21.8428 23.846 21.9308 23.673 21.9972C23.6197 22.0188 23.5649 22.0303 23.526 22.0332C23.5058 21.8155 23.5779 21.579 23.6543 21.3309C23.6788 21.253 23.7033 21.1738 23.7221 21.1074C23.9628 20.385 24.2641 19.6438 24.5769 18.8867C25.2127 17.351 25.8888 15.8426 26.4668 14.5693C26.5533 14.3732 26.6441 14.177 26.7335 13.9795C26.9714 13.4647 27.2164 12.9326 27.4096 12.3717C27.4629 12.2318 27.5639 11.8828 27.3491 11.6766C27.2366 11.5684 27.068 11.5295 26.8748 11.5742C26.6254 11.642 26.4265 11.766 26.2477 11.8929C25.9421 12.1077 25.6696 12.3413 25.4058 12.5677L25.3034 12.6572C21.9403 15.4316 19.1969 19.1924 16.677 22.8075L16.6222 22.8739C16.4622 23.0657 16.3109 23.2473 16.1307 23.3729C16.1105 23.3151 16.099 23.2532 16.0889 23.1912C16.0528 22.7268 16.1019 22.2625 16.1855 21.7102C16.295 21.0079 16.4824 20.1845 16.7419 19.2602C16.7621 19.2256 16.7837 19.1909 16.8039 19.1578C16.8328 19.1102 16.8616 19.0626 16.8875 19.0165C17.529 17.9321 18.1705 16.803 18.7947 15.658L19.7144 13.9492L20.1671 13.0955L20.2824 12.8836C20.3516 12.7798 20.3905 12.6586 20.3271 12.5476C20.2709 12.4495 20.1541 12.389 20.0287 12.3976C19.9422 12.4034 19.8284 12.4409 19.7635 12.5807C19.7462 12.6211 19.7188 12.6629 19.677 12.6773C19.6481 12.6183 19.6626 12.5547 19.6856 12.5072C19.7 12.474 19.7087 12.438 19.7087 12.4048V12.386C19.7087 12.2346 19.5717 12.1121 19.4031 12.1121C19.3252 12.1121 19.2517 12.138 19.1983 12.1827C19.1868 12.1914 19.1753 12.1986 19.1637 12.2087C19.1436 12.2274 19.1248 12.2491 19.1118 12.2722L19.0658 12.3486C19.047 12.3659 19.0182 12.3904 18.9807 12.4062C18.9663 12.3442 18.9951 12.2793 19.0081 12.2577C19.1378 12.027 18.9245 11.8958 18.9144 11.89C18.7788 11.8093 18.5958 11.8381 18.4992 11.9549C18.4819 11.9751 18.4632 12.0054 18.4444 12.0414L18.1993 12.5014C17.5895 13.6507 17.0259 14.8548 16.5257 16.0762C16.3513 16.4901 16.1984 16.914 16.0471 17.325L16.0053 17.4403C15.9303 17.56 15.8568 17.6797 15.7832 17.8009C15.7069 17.9278 15.629 18.0532 15.5526 18.1758L14.5262 19.7664L13.5719 21.194C13.2908 21.5977 13.0529 21.9222 12.8251 22.2163C12.7516 22.2956 12.6853 22.3807 12.619 22.4615C12.5166 22.5898 12.4172 22.7153 12.3076 22.8047C12.3004 22.6706 12.3278 22.5177 12.3566 22.3605C12.3754 22.2596 12.3955 22.1529 12.4042 22.0491C12.4748 21.6582 12.57 21.2631 12.6608 20.8954L12.9261 19.8961C12.9261 19.8961 12.9303 19.8861 12.9332 19.8817C13.0486 19.7158 13.1625 19.5457 13.272 19.3755C13.2792 19.3625 13.285 19.3496 13.2922 19.3366C13.4004 19.0756 13.5287 18.7843 13.6656 18.4685C14.137 17.3841 14.7251 16.0329 15.1994 14.5217L15.5281 13.4517C15.5555 13.3595 15.5281 13.2628 15.4575 13.1921C15.4113 13.1474 15.3493 13.1186 15.2816 13.1085C15.2528 13.0984 15.2124 13.0825 15.1634 13.0653C15.0581 13.0249 14.9645 12.9903 14.8794 12.9643C14.8664 12.8966 14.839 12.8374 14.816 12.7985C14.7799 12.7322 14.7079 12.6269 14.5867 12.562C14.5089 12.5014 14.3907 12.4668 14.2292 12.4928C14.0894 12.5144 13.9063 12.5836 13.7895 12.7033C13.7723 12.6975 13.7521 12.6918 13.7333 12.6889L13.4926 12.6528C13.4435 12.6442 13.3888 12.637 13.3355 12.6326H13.3326C13.1668 12.6211 13.001 12.6456 12.9549 12.8418C12.9505 12.8619 12.9477 12.8821 12.9477 12.9008L12.5022 14.4337C12.1923 15.4965 11.9472 16.405 11.7511 17.2067C11.5565 17.4894 11.3951 18.0575 11.176 18.8708L11.1644 18.9126C11.1226 19.0641 11.0837 19.2083 11.0419 19.351C10.4869 20.3489 9.96506 21.1247 9.39991 21.7938C8.6056 22.7542 7.58212 23.5905 6.60327 24.3649C6.18809 24.6908 5.63308 25.1105 5.01608 25.4652L4.97717 25.4854C4.44378 25.7666 3.8412 26.0853 3.19537 25.8776L3.10311 25.8242C2.40106 25.2748 2.26987 24.525 2.14445 23.7982C2.13004 23.7088 2.11274 23.6209 2.09977 23.5459C1.99886 22.7917 1.97579 21.9625 2.02769 21.0108C2.10842 19.4188 2.37367 17.7244 2.81191 15.9782C3.41305 13.6132 3.3352 14.3227 4.43946 12.288C5.06078 11.0493 5.84355 9.94039 6.08574 9.60293C6.09727 9.59146 6.10592 9.5813 6.11457 9.56837C8.27114 6.54588 11.2841 4.27325 14.6012 3.16578C16.4233 2.53561 18.2541 2.16501 20.0374 2.06119C20.5707 2.03378 21.0018 2.03955 21.4184 2.07993C21.6707 2.11454 21.9273 2.15059 22.1522 2.21548C22.1075 2.31354 22.0787 2.42169 22.0686 2.53849C21.9936 3.41092 22.9839 4.155 23.8013 3.86948C24.192 3.73249 24.4933 3.32007 24.3549 2.89323C24.3232 2.79517 24.2727 2.70288 24.2064 2.62069C24.1891 2.36257 24.1099 2.11166 23.9671 1.88382C23.9671 1.88382 23.9657 1.88093 23.9642 1.88093C23.5909 1.38343 23.0632 1.07052 22.4434 0.978226C22.3741 0.965247 22.3035 0.952269 22.2329 0.939291C22.0224 0.897473 21.8033 0.855654 21.5827 0.855654C21.3031 0.849886 21.1892 0.855654 21.0119 0.868632H20.9931C20.7351 0.900357 20.4699 0.932081 20.2464 0.999856C20.2291 0.99553 20.2118 0.992646 20.1988 0.98832C20.1988 0.983994 20.1959 0.979668 20.1945 0.975342C20.1484 0.857096 20.0172 0.783553 19.8788 0.793647C17.2335 1.00707 14.5637 1.68626 12.1548 2.7548C9.39418 4.01224 7.46391 5.7369 6.33081 6.96406C6.32504 6.97127 6.31495 6.98281 6.30918 6.99002C5.51199 8.05134 4.53027 9.35634 3.66677 10.7349C3.62784 10.7984 3.58316 10.8575 3.53846 10.9166C3.33809 11.1791 2.58558 12.5375 2.6346 12.5317C2.2569 13.2585 2.6346 12.5317 2.06229 13.8353C1.18148 16.1656 0.225711 19.5428 0.573133 22.698C0.550067 22.7398 0.538534 22.7874 0.542859 22.8379C0.586107 23.3844 0.659628 24.0376 0.872981 24.7499C0.989749 25.158 1.13247 25.4969 1.31987 25.8185C1.5116 26.2338 2.05076 26.7414 2.59567 27.0125C2.90561 27.148 3.28042 27.2058 3.64514 27.2058C4.03004 27.2058 4.40341 27.1422 4.6802 27.0428C5.19917 26.8827 5.59416 26.6693 5.92428 26.4818C6.63066 26.0737 7.19864 25.6325 7.7176 25.2157C8.84637 24.3058 9.6695 23.5055 10.164 22.8321C10.1265 23.1796 10.115 23.4723 10.1265 23.7333C10.1683 24.2006 10.2548 24.5222 10.3975 24.7442C10.4004 24.7486 10.4033 24.7543 10.4076 24.7572L10.4653 24.8365C10.5907 25.011 10.6988 25.1609 11.0419 25.422C11.0996 25.4667 11.1745 25.4897 11.2509 25.4883C11.6416 25.4768 11.8593 25.396 12.051 25.3268C12.0827 25.3138 12.1159 25.3037 12.1476 25.2907C12.1548 25.2878 12.162 25.285 12.1692 25.2821C12.384 25.1898 12.6536 25.0744 12.965 24.7803C13.5459 24.2698 14.1744 23.4017 14.6228 22.7239C14.617 22.8148 14.6156 22.9013 14.6156 22.982C14.6415 23.4189 14.6905 23.7579 14.8376 23.9814C14.9846 24.2208 15.097 24.388 15.43 24.6649C15.4733 24.7024 15.5295 24.7269 15.5901 24.7356C15.9303 24.7846 16.1162 24.7658 16.2662 24.7499C16.3181 24.7442 16.3671 24.7384 16.4219 24.7384C16.5401 24.7384 16.6987 24.7269 16.8875 24.636C17.0432 24.587 17.2018 24.4947 17.3733 24.3592C17.9183 23.99 18.5554 23.1767 19.1724 22.3908C19.1954 22.3605 19.2185 22.3303 19.2416 22.3C19.292 22.2769 19.3353 22.2408 19.3656 22.1947C19.5544 21.9048 19.7447 21.6063 19.9364 21.3078C19.9422 21.2992 19.9509 21.2833 19.9552 21.2747L20.2349 20.7512C20.3574 20.5147 20.4785 20.2768 20.6011 20.0331L20.7624 19.7144C21.0595 19.1405 21.365 18.5493 21.6865 18.0013C21.7255 17.984 21.7586 17.958 21.7874 17.9263C21.8177 17.8902 21.8567 17.8456 21.8941 17.7936C22.5125 17.0322 23.1987 16.3632 23.846 15.7474C24.0421 15.5701 24.1949 15.4417 24.3318 15.3278C24.4111 15.26 24.4875 15.198 24.5596 15.1331C24.6043 15.136 24.6475 15.1316 24.6879 15.1187C24.6447 15.2254 24.613 15.3292 24.6014 15.4374L24.5899 15.4446C24.5408 15.4763 24.5048 15.5181 24.4832 15.5686C24.4169 15.5845 24.3578 15.6205 24.316 15.6724C24.2727 15.7258 24.2496 15.7777 24.2382 15.8282L23.2391 18.0777L22.5673 19.6914L22.5255 19.7966C22.2084 20.6186 21.8811 21.4694 21.9403 22.0491C21.9561 22.3461 22.0268 22.5927 22.1694 22.848C22.1694 22.8508 22.1723 22.8522 22.1738 22.8552C22.2531 22.9748 22.3641 23.0931 22.5255 23.2286C22.5486 23.2473 22.5746 23.2647 22.6034 23.2748C22.8009 23.3584 22.9623 23.4031 23.1094 23.4377C23.7047 23.556 24.3852 23.3757 25.1896 22.8912C25.5312 22.6836 25.906 22.424 26.3342 22.0909L27.1919 21.4117L28.054 20.6921L27.966 21.0367C27.9502 21.0598 27.9387 21.0829 27.9301 21.1045C27.8623 21.315 28.0064 21.403 28.2212 21.4737C28.2241 21.4881 28.227 21.4996 28.2313 21.5141C28.3596 21.9005 28.6508 22.0001 28.8656 22.013C29.1958 22.0462 29.4524 21.7722 29.4942 21.664C29.4971 21.6554 29.4999 21.6496 29.5028 21.641C29.5057 21.6352 29.5071 21.6309 29.51 21.6265L29.5345 21.5645C29.5345 21.5645 29.5374 21.5588 29.5389 21.5544C29.5979 21.5458 29.6584 21.5299 29.7205 21.4982C29.8156 21.4492 29.8747 21.3583 29.8747 21.2602V21.2055C29.8603 20.9185 29.8949 20.5854 29.9295 20.261C30.1616 19.5731 30.4283 18.8261 30.7483 17.9826C31.041 17.622 31.3235 17.2385 31.6161 16.8131C31.619 16.8102 31.6233 16.8087 31.6262 16.8058L31.6392 16.7957C31.9189 16.689 32.2793 16.702 32.8054 16.7612C33.0202 16.7857 33.2797 16.8102 33.5623 16.8131C33.3908 17.3985 33.2826 17.9234 33.2192 18.4512C33.0923 19.3712 33.3028 20.4585 34.2643 20.7628C35.3268 21.204 36.7612 20.4138 36.9139 20.3273C37.4344 20.0518 37.9432 19.7187 38.5256 19.2717C38.7578 19.09 38.9869 18.9011 39.2191 18.7007C39.6659 19.3799 40.4718 19.7649 41.2603 19.6697C42.072 19.5717 42.5793 19.2443 42.9614 19.0006C43.3059 18.7641 43.6144 18.5016 43.9071 18.1945C43.9114 18.1888 43.9172 18.1844 43.92 18.1801C43.9445 18.1672 43.9691 18.1542 43.9993 18.1368C44.2357 17.9868 44.452 17.811 44.6582 17.5976C44.6798 17.9624 44.7663 18.3157 44.9767 18.6171C45.1944 18.9357 45.6471 18.9905 45.9671 18.8607C46.2208 18.7771 46.4341 18.6473 46.5899 18.5435C46.9229 18.3287 47.2861 18.0085 47.7388 17.5341L48.2722 16.9544L48.6758 16.4756C48.9267 16.167 49.1775 15.8325 49.4226 15.4792C49.5076 15.3552 49.5927 15.2312 49.6748 15.1028C49.5595 15.6464 49.447 16.2074 49.3361 16.7915L48.8589 17.7201C48.8214 17.7922 48.8214 17.8759 48.8589 17.9494C48.8964 18.0215 48.9656 18.0777 49.0506 18.0994L49.166 18.1296C49.2049 18.1815 49.2626 18.2233 49.3361 18.2421L49.5134 18.2882C49.584 18.307 49.6576 18.3012 49.7224 18.2767L49.8392 18.3084C49.9242 18.3315 50.0165 18.32 50.0914 18.2767C50.1664 18.2349 50.2169 18.1643 50.2298 18.0849C50.263 17.8845 50.3005 17.6826 50.3408 17.4821C50.361 17.3726 50.3826 17.263 50.4043 17.1534C51.5273 15.0148 52.731 12.7451 54.0284 10.5504L54.1856 10.2908C54.262 10.1639 54.3398 10.037 54.4191 9.91012C54.4148 9.92457 54.4119 9.93894 54.4075 9.95338C54.1438 11.0349 53.8338 12.1323 53.5354 13.1921C53.4547 13.4791 53.3739 13.7661 53.2947 14.0487L53.087 14.7351L52.8492 15.1404C52.6762 15.433 52.5032 15.7258 52.3317 16.0142C52.2898 16.082 52.2841 16.1656 52.3144 16.2377C52.3446 16.3113 52.408 16.3689 52.4902 16.3977L52.6459 16.4525C52.6589 16.4742 52.6733 16.4958 52.6921 16.516L52.7987 16.6228C52.8478 16.6718 52.9169 16.7049 52.9905 16.7121L53.2759 16.7424C53.3278 16.7482 53.3768 16.7424 53.4229 16.7266L53.5786 16.7814C53.6594 16.8102 53.7502 16.8058 53.8266 16.7713C53.9044 16.7367 53.9621 16.6732 53.9851 16.5982C54.0702 16.3228 54.1524 16.0473 54.2345 15.7734C54.3038 15.5455 54.3701 15.3177 54.4407 15.0898C54.6151 14.7827 54.7852 14.4799 54.9553 14.177C55.95 12.4135 56.8885 10.745 58.1254 8.76656L58.1657 8.76082C58.2623 8.74638 58.3474 8.69019 58.3906 8.6094C58.4065 8.58204 58.4194 8.55605 58.4339 8.53007C58.3387 8.92807 58.235 9.32462 58.1355 9.71544L58.0937 9.88268C57.8587 10.7782 57.6223 11.678 57.3801 12.5879C57.3484 12.7149 57.3137 12.8418 57.2806 12.9715C57.1797 13.3522 57.0759 13.7445 57.0082 14.1208C57.0082 14.128 57.0067 14.1338 57.0053 14.1396C56.9966 14.2376 56.9807 14.3357 56.9649 14.4352C56.9 14.8476 56.828 15.3162 57.21 15.7085C57.2518 15.7518 57.3066 15.7806 57.3671 15.795C57.9812 15.9291 58.4267 15.6306 58.8202 15.3653C58.888 15.3206 58.9543 15.2744 59.0235 15.2326C59.0292 15.2283 59.0365 15.224 59.0408 15.2196C59.4833 14.8938 59.9274 14.4756 60.3584 13.981C60.7721 13.5166 61.1196 13.035 61.4165 12.5043C61.4857 12.673 61.5866 12.8345 61.7293 12.9831L61.7466 13.0004C62.071 13.2859 62.6159 13.5801 63.1709 13.557C63.7317 13.5757 64.2232 13.2398 64.5837 12.9932C64.588 12.9903 64.5923 12.9874 64.5967 12.9831C65.4068 12.363 66.0656 11.5728 66.6076 10.8806L66.7115 10.7421C66.2933 11.5151 65.8234 12.4106 65.3823 13.3392C65.2511 13.6074 65.0998 13.8771 64.9541 14.141L64.8518 14.3256C63.3713 15.5845 62.1762 16.6646 61.0965 17.723C60.3973 18.4123 59.5843 19.2429 58.839 20.1686C58.5017 20.5969 58.1485 21.0613 57.8645 21.6237C57.7491 21.8457 57.5934 22.1918 57.556 22.6446C57.4594 23.145 57.9063 23.9136 58.5665 24.0823L58.8664 24.1573C58.9384 24.1746 59.0163 24.1689 59.084 24.14L59.2743 24.0564C60.4189 23.556 61.0806 22.7441 61.6616 22.0274L61.7985 21.8602C62.4746 21.0339 63.0628 20.2364 63.55 19.4881C64.5707 17.9133 65.4572 16.405 66.426 14.7394C66.426 14.7394 68.1603 13.4776 68.561 13.1604C68.757 13.0047 68.9546 12.8489 69.1535 12.6918C68.3304 15.0927 67.4884 17.5644 66.7705 20.059C66.7216 20.0966 66.684 20.1485 66.6696 20.209C66.4606 21.0425 66.2097 21.9669 65.9258 22.9532C65.884 23.0945 65.9748 23.2402 66.1305 23.2834L67.2535 23.5993C67.412 23.6439 67.5836 23.5661 67.6355 23.4233C68.241 21.7708 68.9546 19.9697 69.593 18.4844C69.5958 18.4757 69.6006 18.4656 69.6034 18.457L70.2176 16.2939C70.7461 15.0711 71.2643 13.818 71.7624 12.6038C72.0899 12.8014 72.4761 12.8879 72.7614 12.8691C73.2001 12.8561 73.52 12.7437 73.7591 12.6601C74.2738 12.4668 74.6849 12.2231 75.0642 11.9895C75.7778 11.5454 76.4577 11.0017 77.1472 10.3239C77.6847 9.77453 78.1158 9.23236 78.4592 8.67285C83.3099 6.95541 87.6086 5.41821 91.5915 3.97619C91.6033 3.97619 91.6137 3.9733 91.6247 3.9733C91.6938 3.96609 91.7587 3.9387 91.8078 3.89544L91.8451 3.86227C91.9481 3.76998 91.9653 3.62433 91.8845 3.51618ZM45.4034 11.6896C45.3299 12.4553 45.1944 13.4503 44.7951 14.3804C44.4765 15.1605 43.972 15.9392 43.2541 16.7583L43.2021 16.8174C43.0494 16.989 42.8936 17.1664 42.7336 17.338C42.2276 17.5788 41.7144 17.6855 41.2531 17.6451C41.0037 17.6192 40.8062 17.5052 40.6534 17.2976C40.8192 17.0986 40.9734 16.8996 41.119 16.6934C41.1263 16.6818 41.1364 16.6646 41.1435 16.6545C41.1695 16.6054 41.1983 16.5592 41.2258 16.5117C41.3699 16.2738 41.5486 15.9767 41.4996 15.4388C41.4953 15.4201 41.4924 15.3999 41.4881 15.3826C41.3641 14.9947 41.2401 14.7928 40.7803 14.5477C40.714 14.5145 40.6419 14.49 40.5611 14.4756C40.688 13.9405 40.8437 13.4935 41.0484 13.0869C41.4679 12.2274 42.0445 11.4358 42.7581 10.7335C42.7668 10.7249 42.774 10.7162 42.7826 10.7061L42.8115 10.6801C43.4544 10.1034 44.253 9.38952 45.02 9.50203C45.2636 9.64191 45.3486 9.93604 45.402 10.3557C45.4452 10.7292 45.4452 11.143 45.402 11.6925V11.6896H45.4034ZM62.8235 17.9105C62.3795 18.682 61.8951 19.4837 61.3588 20.2436C61.3545 20.2509 61.3502 20.2566 61.3459 20.2624C61.1858 20.47 61.0273 20.6849 60.8759 20.894C60.3497 21.6164 59.8063 22.362 59.0596 22.8321C59.0437 22.8191 59.0249 22.809 59.0076 22.8003C58.9903 22.7484 58.9773 22.6042 59.0508 22.398C59.1461 22.1154 59.3176 21.7924 59.5958 21.3872C60.0297 20.7671 60.6064 20.0995 61.4669 19.2212C61.9052 18.7786 62.3636 18.3373 62.825 17.909H62.8235V17.9105ZM70.8332 11.541L70.9596 11.1185C70.9831 11.0954 71.0045 11.0738 71.0287 11.0508C70.9624 11.2137 70.8995 11.3781 70.8332 11.541ZM75.9782 9.71399H75.981C75.1332 10.4394 74.0824 11.3377 72.7635 11.7328C72.6364 11.7516 72.4733 11.74 72.3725 11.6535C72.3607 11.6434 72.351 11.6362 72.3379 11.6276C72.3248 11.6189 72.3193 11.5944 72.3165 11.5742C72.3089 11.505 72.3407 11.4386 72.3607 11.4199C72.3669 11.4142 72.3725 11.4084 72.3752 11.4055C72.6205 11.1387 72.9259 10.9786 73.2216 10.8244L73.2506 10.8099C73.8143 10.5345 74.3795 10.3254 74.7961 10.2403C74.8147 10.2346 74.8334 10.2288 74.8507 10.2245C75.4103 10.0024 75.6708 9.83804 75.724 9.65773C75.9057 9.59284 76.0887 9.52939 76.2704 9.4645C76.1751 9.54384 76.0791 9.62746 75.9782 9.71399ZM77.8505 7.08951H77.8491C77.7945 7.42839 77.646 7.73841 77.4947 8.00518C77.4539 8.01962 77.418 8.0398 77.3862 8.06579L75.9492 8.57478C75.7412 8.64693 75.5312 8.71756 75.3177 8.78964C74.7208 8.99151 74.1038 9.19919 73.5041 9.44867C73.3211 9.52366 73.1338 9.60293 72.9404 9.6909C73.3791 8.6065 73.8185 7.51059 74.2455 6.44204L74.5018 5.80179C75.2355 5.60711 76.2622 5.49319 77.2322 5.92869C77.6702 6.11903 77.95 6.63384 77.8505 7.08951Z" fill="white"/>
</g>
</svg>
