<svg width="51" height="50" viewBox="0 0 51 50" fill="none" xmlns="http://www.w3.org/2000/svg">
<path d="M25.1416 0.712891C26.3919 0.712891 27.6405 1.2923 28.8389 2.45801C30.0406 3.62709 31.1557 5.3541 32.1074 7.54297C34.0097 11.9184 35.2041 18.0131 35.2041 24.7822C35.2041 31.5514 34.0098 37.6461 32.1074 42.0215C31.1558 44.2103 30.0406 45.9364 28.8389 47.1055C27.6405 48.2713 26.3919 48.8516 25.1416 48.8516C23.8914 48.8515 22.6427 48.2712 21.4443 47.1055C20.2428 45.9365 19.1283 44.21 18.1768 42.0215C16.2744 37.6461 15.0801 31.5514 15.0801 24.7822C15.0801 18.013 16.2744 11.9184 18.1768 7.54297C19.1284 5.35417 20.2426 3.62708 21.4443 2.45801C22.6427 1.29226 23.8914 0.71299 25.1416 0.712891Z" stroke="white" stroke-width="1.42523"/>
<path d="M25.1406 0.712891C38.6418 0.712891 49.5693 11.4988 49.5693 24.7822C49.5692 38.0655 38.6417 48.8516 25.1406 48.8516C11.6398 48.8513 0.713075 38.0654 0.712891 24.7822C0.712891 11.4989 11.6397 0.713117 25.1406 0.712891Z" stroke="white" stroke-width="1.42523"/>
<path d="M0.71289 25.1406C0.712965 24.0113 1.28246 22.8632 2.46582 21.7441C3.65071 20.6237 5.4031 19.5814 7.62793 18.6914C12.0741 16.9129 18.2657 15.7969 25.1406 15.7969C32.0154 15.7969 38.207 16.913 42.6533 18.6914C44.8783 19.5814 46.6315 20.6236 47.8164 21.7441C48.9998 22.8632 49.5693 24.0113 49.5693 25.1406C49.5693 26.27 48.9998 27.4179 47.8164 28.5371C46.6315 29.6577 44.8785 30.6998 42.6533 31.5898C38.207 33.3683 32.0155 34.4844 25.1406 34.4844C18.2657 34.4843 12.0741 33.3683 7.62793 31.5898C5.40304 30.6998 3.65068 29.6576 2.46582 28.5371C1.28238 27.4179 0.71289 26.27 0.71289 25.1406Z" stroke="white" stroke-width="1.42523"/>
<path d="M24.4601 25.1398H21.5679H18.6758M18.6758 25.1398L21.2277 22.5879M18.6758 25.1398L21.2277 27.6917" stroke="white" stroke-width="1.35022"/>
<path d="M25.8211 25.1398H28.7133H31.6055M31.6055 25.1398L29.0536 22.5879M31.6055 25.1398L29.0536 27.6917" stroke="white" stroke-width="1.35022"/>
<path d="M25.1417 25.8211L25.1417 28.7133L25.1417 31.6055M25.1417 31.6055L22.5898 29.0536M25.1417 31.6055L27.6936 29.0536" stroke="white" stroke-width="1.35022"/>
<path d="M25.1417 24.4601L25.1417 21.5679L25.1417 18.6758M25.1417 18.6758L22.5898 21.2277M25.1417 18.6758L27.6936 21.2277" stroke="white" stroke-width="1.35022"/>
</svg>
