<svg width="25" height="25" viewBox="0 0 25 25" fill="none" xmlns="http://www.w3.org/2000/svg">
<path d="M19.709 13.34C19.709 14.118 19.084 14.749 18.313 14.749C17.542 14.749 16.918 14.118 16.918 13.339C16.918 12.56 17.542 11.93 18.313 11.93C19.083 11.93 19.709 12.561 19.709 13.34Z" fill="white"/>
<path fill-rule="evenodd" clip-rule="evenodd" d="M18.948 3.57299C17.888 3.24099 16.918 4.08699 16.918 5.11999V8.74599C15.622 8.99799 14.114 9.14299 12.5 9.14299C10.886 9.14299 9.378 8.99799 8.081 8.74599V5.11999C8.081 4.08699 7.111 3.24099 6.053 3.57299C5.071 3.87999 4.222 4.26999 3.603 4.74299C2.995 5.20499 2.5 5.83799 2.5 6.62999V18.58C2.50133 18.7953 2.536 19 2.604 19.194C2.66467 19.3687 2.746 19.533 2.848 19.687C3.172 20.178 3.689 20.581 4.288 20.91C4.897 21.244 5.639 21.53 6.473 21.762C8.14 22.227 10.237 22.5 12.5 22.5C14.4 22.5 16.182 22.308 17.689 21.971C19.182 21.638 20.462 21.151 21.319 20.526C21.527 20.374 21.724 20.204 21.895 20.015C22.255 19.617 22.5 19.138 22.5 18.579V6.62999C22.5 5.83799 22.006 5.20499 21.397 4.74099C20.778 4.26899 19.929 3.87899 18.947 3.57199M21.104 8.72599L21.023 8.77799C20.2 9.29399 19.071 9.70799 17.769 10.005C16.245 10.352 14.434 10.552 12.499 10.552C10.564 10.552 8.754 10.352 7.229 10.005C5.927 9.70799 4.798 9.29499 3.975 8.77799L3.895 8.72599V17.888L6.725 15.213L8.001 14.133C8.45233 13.7537 9.02791 13.5547 9.61711 13.5741C10.2063 13.5934 10.7676 13.8299 11.193 14.238L14.283 17.223C14.4128 17.3442 14.5798 17.418 14.7569 17.4321C14.9339 17.4463 15.1106 17.4001 15.258 17.301L15.473 17.156C16.0027 16.7976 16.6356 16.6236 17.2741 16.6611C17.9125 16.6985 18.5208 16.9452 19.005 17.363L20.905 19.016C21.062 18.828 21.104 18.679 21.104 18.578V8.72599Z" fill="white"/>
</svg>
