<svg width="153" height="83" viewBox="0 0 153 83" fill="none" xmlns="http://www.w3.org/2000/svg">
<g filter="url(#filter0_i_730_4789)">
<path d="M138.438 44.998C141.36 44.9981 143.863 45.7467 145.944 47.2441C148.026 48.7415 149.614 50.7324 150.71 53.2158C151.842 55.6995 152.409 58.4395 152.409 61.4346V65.708C152.409 68.7029 151.842 71.4422 150.71 73.9258C149.614 76.4092 148.026 78.4 145.944 79.8975C143.899 81.3949 141.415 82.1435 138.493 82.1436C135.571 82.1436 133.051 81.3949 130.933 79.8975C128.851 78.4 127.244 76.4094 126.111 73.9258C125.016 71.4422 124.468 68.7029 124.468 65.708V61.4346C124.468 58.4395 125.016 55.6995 126.111 53.2158C127.244 50.7324 128.851 48.7416 130.933 47.2441C133.051 45.7468 135.553 44.998 138.438 44.998ZM87.3418 10.5918H60.7695L58.9072 32.2871C60.149 31.4471 61.6464 30.6621 63.3994 29.9316C65.1526 29.2011 67.1986 28.8359 69.5361 28.8359C72.6771 28.836 75.4709 29.4756 77.918 30.7539C80.4016 31.9957 82.5021 33.7855 84.2188 36.123C85.9353 38.4605 87.25 41.2726 88.1631 44.5596C89.0762 47.8468 89.5332 51.518 89.5332 55.5723C89.5332 59.4071 89.0761 62.9315 88.1631 66.1455C87.2865 69.3596 85.9355 72.1724 84.1094 74.583C82.3197 76.9571 80.0547 78.8013 77.3154 80.1162C74.6126 81.4311 71.4529 82.0889 67.8369 82.0889C65.1343 82.0888 62.5775 81.651 60.167 80.7744C57.7564 79.8613 55.5833 78.4913 53.6475 76.665C51.7482 74.8023 50.1955 72.501 48.9902 69.7617C47.785 66.9859 47.0363 63.7352 46.7441 60.0098H55.8936C56.2588 63.0047 56.9529 65.525 57.9756 67.5703C59.0348 69.6157 60.3867 71.1683 62.0303 72.2275C63.7102 73.25 65.6458 73.7616 67.8369 73.7617C69.6997 73.7617 71.3804 73.341 72.8779 72.501C74.3753 71.661 75.6356 70.4561 76.6582 68.8857C77.6809 67.3152 78.4658 65.4155 79.0137 63.1875C79.5615 60.9595 79.8359 58.4575 79.8359 55.6816C79.8359 53.1614 79.5615 50.8239 79.0137 48.6689C78.4658 46.514 77.6446 44.6325 76.5488 43.0254C75.4531 41.4184 74.1193 40.1773 72.5488 39.3008C71.0148 38.3877 69.2251 37.9307 67.1797 37.9307C64.4405 37.9307 62.4135 38.3877 61.0986 39.3008C59.8204 40.2139 58.432 41.455 56.9346 43.0254L49.21 40.9443L52.6064 1.22363H87.3418V10.5918ZM26.4932 80.9932H16.7959V13.4404L0.03125 20.8916V11.7422L25.0137 0.785156H26.4932V80.9932ZM138.438 51.5723C136.904 51.5723 135.625 52.0474 134.603 52.9971C133.616 53.9102 132.868 55.1159 132.356 56.6133C131.845 58.1107 131.59 59.718 131.59 61.4346V65.708C131.59 67.388 131.845 68.9954 132.356 70.5293C132.868 72.0267 133.636 73.2496 134.658 74.1992C135.681 75.1123 136.959 75.5693 138.493 75.5693C140.027 75.5693 141.287 75.1123 142.273 74.1992C143.296 73.2497 144.045 72.0265 144.52 70.5293C145.031 69.0319 145.286 67.4245 145.286 65.708V61.4346C145.286 59.718 145.031 58.1107 144.52 56.6133C144.008 55.1159 143.241 53.9102 142.219 52.9971C141.233 52.0475 139.972 51.5724 138.438 51.5723ZM141.013 12.5645L108.306 74.9121L102.937 71.2959L135.698 8.94824L141.013 12.5645ZM106.169 0.0732422C109.127 0.073313 111.648 0.821896 113.729 2.31934C115.848 3.81682 117.455 5.80748 118.551 8.29102C119.646 10.7746 120.194 13.5321 120.194 16.5635V20.7822C120.194 23.7406 119.646 26.4617 118.551 28.9453C117.455 31.4289 115.866 33.4195 113.784 34.917C111.702 36.4145 109.2 37.164 106.278 37.1641C103.356 37.1641 100.836 36.4145 98.7178 34.917C96.6359 33.4195 95.0287 31.429 93.8965 28.9453C92.8008 26.4617 92.2529 23.7407 92.2529 20.7822V16.5635C92.253 13.532 92.8008 10.7746 93.8965 8.29102C95.0287 5.80734 96.6359 3.81685 98.7178 2.31934C100.8 0.82186 103.284 0.0732422 106.169 0.0732422ZM106.169 6.64746C104.635 6.64746 103.356 7.12165 102.333 8.07129C101.347 8.98437 100.598 10.2082 100.087 11.7422C99.6121 13.2396 99.375 14.8469 99.375 16.5635V20.7822C99.375 22.4623 99.6121 24.0513 100.087 25.5488C100.598 27.0463 101.366 28.2701 102.389 29.2197C103.411 30.1326 104.708 30.5889 106.278 30.5889C107.812 30.5888 109.072 30.1328 110.059 29.2197C111.081 28.2701 111.83 27.0463 112.305 25.5488C112.816 24.0513 113.071 22.4624 113.071 20.7822V16.5635C113.071 14.8469 112.816 13.2396 112.305 11.7422C111.793 10.2083 111.027 8.98436 110.004 8.07129C109.018 7.12178 107.739 6.64755 106.169 6.64746Z" fill="black" fill-opacity="0.48"/>
</g>
<defs>
<filter id="filter0_i_730_4789" x="0.03125" y="0.0732422" width="153.079" height="82.7701" filterUnits="userSpaceOnUse" color-interpolation-filters="sRGB">
<feFlood flood-opacity="0" result="BackgroundImageFix"/>
<feBlend mode="normal" in="SourceGraphic" in2="BackgroundImageFix" result="shape"/>
<feColorMatrix in="SourceAlpha" type="matrix" values="0 0 0 0 0 0 0 0 0 0 0 0 0 0 0 0 0 0 127 0" result="hardAlpha"/>
<feOffset dx="0.87477" dy="0.87477"/>
<feGaussianBlur stdDeviation="0.349908"/>
<feComposite in2="hardAlpha" operator="arithmetic" k2="-1" k3="1"/>
<feColorMatrix type="matrix" values="0 0 0 0 0 0 0 0 0 0 0 0 0 0 0 0 0 0 0.6 0"/>
<feBlend mode="normal" in2="shape" result="effect1_innerShadow_730_4789"/>
</filter>
</defs>
</svg>
