<svg width="24" height="24" viewBox="0 0 24 24" fill="none" xmlns="http://www.w3.org/2000/svg">
<path d="M17.5 13C19.9853 13 22 15.0147 22 17.5C22 19.9853 19.9853 22 17.5 22C15.0147 22 13 19.9853 13 17.5C13 15.0147 15.0147 13 17.5 13ZM17 17.4395L16.0303 16.4697L14.9697 17.5303L17 19.5605L20.0303 16.5303L18.9697 15.4697L17 17.4395Z" fill="#0C2776"/>
<path d="M11.9863 13C12.4506 13 12.9026 13.0643 13.333 13.1846C12.2033 14.2757 11.5 15.8054 11.5 17.5C11.5 19.2926 12.2869 20.9006 13.5332 22H2L3.12988 16.915C3.63834 14.6276 5.67042 13.0002 8.01367 13H11.9863Z" fill="#0C2776"/>
<mask id="path-3-inside-1_730_4862" fill="white">
<path d="M10.2197 2.00489C12.8792 2.11989 15 4.31221 15 7C15 9.76143 12.7614 12 10 12C7.23858 12 5 9.76143 5 7C5 4.94936 6.23463 3.18739 8.00098 2.41602C8.20906 4.42965 9.91085 5.99998 11.9795 6H14.8789C14.431 3.79379 12.531 2.11421 10.2197 2.00489ZM10.0889 2.00196C10.0561 2.00125 10.0232 2.00007 9.99023 2C9.99349 2 9.99674 2 10 2C10.0297 2 10.0593 2.00144 10.0889 2.00196Z"/>
</mask>
<path d="M10.2197 2.00489C12.8792 2.11989 15 4.31221 15 7C15 9.76143 12.7614 12 10 12C7.23858 12 5 9.76143 5 7C5 4.94936 6.23463 3.18739 8.00098 2.41602C8.20906 4.42965 9.91085 5.99998 11.9795 6H14.8789C14.431 3.79379 12.531 2.11421 10.2197 2.00489ZM10.0889 2.00196C10.0561 2.00125 10.0232 2.00007 9.99023 2C9.99349 2 9.99674 2 10 2C10.0297 2 10.0593 2.00144 10.0889 2.00196Z" fill="#0C2776"/>
<path d="M10.2197 2.00489L10.3061 0.00675287L10.1252 4.00265L10.2197 2.00489ZM8.00098 2.41602L9.99038 2.21044L9.70902 -0.512279L7.20057 0.583167L8.00098 2.41602ZM11.9795 6L11.9795 8H11.9795V6ZM14.8789 6V8H17.3257L16.8389 5.60209L14.8789 6ZM10.0889 2.00196L10.054 4.00165L10.1318 0.00241651L10.0889 2.00196ZM9.99023 2L9.98641 6.46056e-06L9.98603 4L9.99023 2ZM10.2197 2.00489L10.1333 4.00302C11.7276 4.07196 13 5.38791 13 7H15H17C17 3.2365 14.0308 0.167818 10.3061 0.00675287L10.2197 2.00489ZM15 7H13C13 8.65686 11.6569 10 10 10V12V14C13.866 14 17 10.866 17 7H15ZM10 12V10C8.34315 10 7 8.65686 7 7H5H3C3 10.866 6.13401 14 10 14V12ZM5 7H7C7 5.77298 7.73716 4.71362 8.80139 4.24887L8.00098 2.41602L7.20057 0.583167C4.7321 1.66115 3 4.12574 3 7H5ZM8.00098 2.41602L6.01157 2.6216C6.32391 5.64413 8.87521 7.99997 11.9795 8L11.9795 6L11.9795 4C10.9465 3.99999 10.0942 3.21516 9.99038 2.21044L8.00098 2.41602ZM11.9795 6V8H14.8789V6V4H11.9795V6ZM14.8789 6L16.8389 5.60209C16.2118 2.5128 13.5549 0.16041 10.3142 0.00711932L10.2197 2.00489L10.1252 4.00265C11.5071 4.06802 12.6503 5.07479 12.9189 6.39791L14.8789 6ZM10.0889 2.00196L10.1318 0.00241651C10.1147 0.00204947 10.1205 0.00210013 10.0872 0.00130846C10.0654 0.000788831 10.0323 8.68076e-05 9.99444 7.17582e-06L9.99023 2L9.98603 4C9.98114 3.99999 9.98091 3.99991 9.99198 4.00017C9.99778 4.00031 10.0031 4.00045 10.0129 4.0007C10.0216 4.00093 10.0333 4.00122 10.0459 4.0015L10.0889 2.00196ZM9.99023 2L9.99406 4C9.99328 4 9.99303 4 9.99416 4C9.99444 4 9.99781 4 10 4V2V2.76508e-06C9.99893 2.76508e-06 9.99905 2.04982e-06 9.99607 6.1931e-07C9.99395 -3.34365e-07 9.99044 -1.28804e-06 9.98641 6.46056e-06L9.99023 2ZM10 2V4C9.99149 4 9.98564 3.9999 9.98372 3.99986C9.98204 3.99983 9.98234 3.99983 9.98726 3.99997C9.98978 4.00004 9.99231 4.00011 9.99648 4.00024C10.0002 4.00035 10.0053 4.0005 10.0107 4.00065C10.0214 4.00095 10.0366 4.00135 10.054 4.00165L10.0889 2.00196L10.1237 0.00225975C10.1263 0.00230505 10.1268 0.00233188 10.1227 0.00221779C10.1207 0.00216165 10.1184 0.00209334 10.1147 0.00198498C10.1115 0.00188949 10.1066 0.00174453 10.1017 0.0016047C10.0833 0.00107911 10.0449 2.76508e-06 10 2.76508e-06V2Z" fill="#0C2776" mask="url(#path-3-inside-1_730_4862)"/>
<circle cx="10" cy="7" r="4" stroke="#0C2776" stroke-width="2"/>
</svg>
