<svg width="20" height="21" viewBox="0 0 20 21" fill="none" xmlns="http://www.w3.org/2000/svg">
<path d="M14.3187 4.36719C16.2431 5.72489 17.5 7.96555 17.5 10.4998C17.5 13.0436 16.2336 15.2916 14.2969 16.6477" stroke="white" stroke-width="1.66667"/>
<path d="M12.3828 7.08203C13.4608 7.83516 14.166 9.08528 14.166 10.5001C14.166 11.9149 13.4608 13.165 12.3828 13.9182" stroke="white" stroke-width="1.66667"/>
<path d="M9.16797 4.66626V16.3333H8.76855C7.95484 15.1975 7.07175 14.363 5.9668 13.8157C4.95907 13.3165 3.82564 13.0862 2.50098 13.0217V7.97778C3.82564 7.9133 4.95907 7.68299 5.9668 7.18384C7.07176 6.63647 7.95483 5.80203 8.76855 4.66626H9.16797Z" stroke="white" stroke-width="1.66667"/>
</svg>
