<svg xmlns="http://www.w3.org/2000/svg">
<symbol id="arrow1" viewBox="0 0 12 9">
  <path d="m12 4.633-6.667 4V5.3H0V3.966h5.333V.633l6.667 4Z"/>
</symbol>
<symbol id="close" viewBox="0 0 13 13">
  <path d="M10.572.395a.977.977 0 0 1 1.38 1.38L7.541 6.183l4.412 4.41a.975.975 0 0 1-1.38 1.379l-4.41-4.41-4.412 4.41a.976.976 0 0 1-1.38-1.378l4.411-4.411-4.41-4.41a.976.976 0 0 1 1.38-1.38l4.41 4.41 4.41-4.41Z"/>
</symbol>
<symbol id="download" viewBox="0 0 17 20">
  <path d="M2.102 17.79h13.296V7.382H16.7v11.71H.801V7.38h1.3v10.41ZM12.748 7.578H9.414v5.333H8.081V7.577H4.748l4-6.667 4 6.667Z"/>
</symbol>
<symbol id="filter" viewBox="0 0 9 10">
  <path d="M1.75 4.48a2 2 0 1 1 1.5 0V9a.75.75 0 0 1-1.5 0V4.48Zm6-3.48v2.895a2 2 0 0 1 0 3.71V9a.75.75 0 0 1-1.5 0V7.605a2 2 0 0 1 0-3.71V1a.75.75 0 0 1 1.5 0Z"/>
</symbol>
<symbol id="fullscreen" viewBox="0 0 11 11">
  <path d="M0 .786v2.75a.393.393 0 0 0 .671.278l1.015-1.017 1.687 1.686a.786.786 0 0 0 1.111-1.11L2.798 1.685 3.814.671A.393.393 0 0 0 3.536 0H.393A.393.393 0 0 0 0 .393v.393Zm4.484 6.84a.786.786 0 0 0-1.11-1.11L1.685 8.202.671 7.186A.393.393 0 0 0 0 7.464v3.143A.393.393 0 0 0 .393 11h3.143a.393.393 0 0 0 .278-.671L2.797 9.314l1.687-1.687Zm2.032-1.11a.786.786 0 0 1 1.11 0l1.688 1.686 1.015-1.016a.393.393 0 0 1 .671.278v3.143a.393.393 0 0 1-.393.393H7.464a.393.393 0 0 1-.278-.671l1.016-1.015-1.686-1.687a.786.786 0 0 1 0-1.111ZM7.464 0a.393.393 0 0 0-.278.671l1.016 1.015-1.686 1.687a.786.786 0 0 0 1.11 1.111l1.688-1.686 1.015 1.016A.393.393 0 0 0 11 3.536V.393A.393.393 0 0 0 10.607 0H7.464Z"/>
</symbol>
<symbol id="minus" viewBox="0 0 13 5">
  <path d="M6.5.5c1.725 0 3.45.338 5.175 1.013.191.075.383.154.575.237v1.5a16.74 16.74 0 0 1-.575.237C9.95 4.162 8.225 4.5 6.5 4.5c-1.725 0-3.45-.338-5.175-1.013A16.755 16.755 0 0 1 .75 3.25v-1.5c.192-.083.384-.162.575-.237C3.05.838 4.775.5 6.5.5Z"/>
</symbol>
<symbol id="phone" viewBox="0 0 12 12">
  <path d="M.912 4.852a12.698 12.698 0 0 0 6.577 6.389l.467.208a2.407 2.407 0 0 0 2.977-.857l.611-.91a.688.688 0 0 0-.14-.919l-2.07-1.67a.687.687 0 0 0-.984.126l-.64.864a8.346 8.346 0 0 1-3.79-3.789l.864-.64a.687.687 0 0 0 .126-.985L3.24.6a.687.687 0 0 0-.919-.14l-.916.615a2.406 2.406 0 0 0-.85 2.994l.356.784Z"/>
</symbol>
<symbol id="plan" viewBox="0 0 24 24">
  <path d="M17.008 2.014c-.17 0-.351.043-.5.125l-9 5a.988.988 0 0 0-.5.875V9.39L3.57 11.11a1.027 1.027 0 0 0-.562.905v8a1 1 0 0 0 1 1h16a1 1 0 0 0 1-1v-17a1 1 0 0 0-1-1h-3Zm-1 5a1 1 0 1 1 0 2 1 1 0 0 1 0-2Zm-4 4a1 1 0 1 1 0 2 1 1 0 0 1 0-2Zm4 0a1 1 0 1 1 0 2 1 1 0 0 1 0-2Zm-9 .625v7.375h-2V12.64l2-1Zm5 3.375a1 1 0 1 1 0 2 1 1 0 0 1 0-2Zm4 0a1 1 0 1 1 0 2 1 1 0 0 1 0-2Z"/>
</symbol>
<symbol id="play" viewBox="0 0 21 26">
  <path d="M21 13 0 25.124V.876L21 13Z"/>
</symbol>
<symbol id="plus" viewBox="0 0 13 13">
  <path d="M7.484 1.325c.432 1.103.725 2.207.88 3.31 1.104.155 2.207.449 3.31.88.192.075.384.154.576.238v1.5a16.74 16.74 0 0 1-.575.237 14.702 14.702 0 0 1-3.312.88 14.705 14.705 0 0 1-.879 3.305 18.38 18.38 0 0 1-.237.575h-1.5a16.824 16.824 0 0 1-.237-.575 14.707 14.707 0 0 1-.88-3.306 14.705 14.705 0 0 1-3.305-.879 16.755 16.755 0 0 1-.575-.237v-1.5c.192-.084.384-.163.575-.237a14.708 14.708 0 0 1 3.304-.88c.156-1.104.449-2.207.88-3.31.076-.193.155-.384.238-.576h1.5c.083.192.162.383.237.575Z"/>
</symbol>
<symbol id="soundproofing" viewBox="0 0 18 18">
  <path d="M16.002 17.063.938 1.998l1.06-1.06 15.064 15.064-1.06 1.06ZM11.058 3a.563.563 0 0 0-.867-.474L7.138 4.49l3.92 3.92V3Z"/>
  <path d="M5.08 5.812H1.497a.562.562 0 0 0-.562.563v5.25c0 .31.251.562.562.562h3.585l5.11 3.286a.563.563 0 0 0 .867-.474v-3.938L5.524 5.527l-.443.285ZM15.558 9c0-1.216-.48-2.344-1.303-3.244l1.106-1.013c1.053 1.15 1.697 2.63 1.697 4.257 0 1.49-.542 2.86-1.444 3.964l-1.068-1.067c.645-.836 1.012-1.833 1.012-2.897Zm-3.001 0a2.95 2.95 0 0 0-.596-1.795l1.192-.91A4.45 4.45 0 0 1 14.057 9a4.49 4.49 0 0 1-.447 1.961l-1.16-1.16c.07-.253.107-.522.107-.801Z"/>
</symbol>
<symbol id="strength" viewBox="0 0 18 18">
  <path d="M10.77 5.268h5.16l2.068 4.17-2.068 4.172h-5.16L8.704 9.439l2.068-4.17ZM2.068 0h5.16l2.067 4.17-2.068 4.171h-5.16L0 4.171 2.068 0Zm0 9.659h5.16l2.067 4.17L7.227 18h-5.16L0 13.83l2.068-4.171Z"/>
</symbol>
<symbol id="telegram" viewBox="0 0 20 18">
  <path d="M17.928.428a1.493 1.493 0 0 1 2.052 1.618l-2.257 13.69c-.219 1.32-1.667 2.078-2.878 1.42-1.013-.55-2.518-1.398-3.871-2.283-.677-.443-2.75-1.86-2.495-2.87.219-.863 3.702-4.104 5.692-6.032.781-.757.425-1.194-.498-.498-2.29 1.73-5.968 4.36-7.184 5.1-1.073.653-1.632.764-2.3.653-1.22-.203-2.352-.517-3.276-.9-1.247-.518-1.187-2.233 0-2.733L17.927.428Z"/>
</symbol>
<symbol id="walls" viewBox="0 0 22 16">
  <path d="M.25 10h10V6H1a.75.75 0 0 0-.75.75V10Zm0 1.5v3.25a.75.75 0 0 0 .75.75h4.25v-4h-5Zm6.5 4h8.5v-4h-8.5v4Zm10 0H21a.75.75 0 0 0 .75-.75V11.5h-5v4Zm5-5.5V6.75A.75.75 0 0 0 21 6h-9.25v4h10ZM.25 4.5V1.25A.75.75 0 0 1 1 .5h4.25v4h-5Zm6.5-4h8.5v4h-8.5v-4Zm10 0H21a.75.75 0 0 1 .75.75V4.5h-5v-4Z"/>
</symbol>
<symbol id="water" viewBox="0 0 18 18">
  <path d="M14.044.063s.732.432.892.541c.32.218.748.536 1.18.932.828.76 1.824 1.951 1.824 3.385 0 2.126-1.744 3.85-3.896 3.85-2.151 0-3.896-1.724-3.896-3.85 0-1.434.997-2.626 1.824-3.385.432-.396.86-.714 1.18-.932.16-.11.892-.541.892-.541Zm-10.086 0s.732.432.892.541c.32.218.749.536 1.18.932.828.76 1.824 1.951 1.824 3.385 0 2.126-1.744 3.85-3.896 3.85C1.807 8.77.062 7.047.062 4.92c0-1.434.997-2.626 1.824-3.385.432-.396.86-.714 1.18-.932.16-.11.892-.541.892-.541Zm5.043 9.166s.732.432.892.542c.32.218.748.535 1.18.931.828.76 1.824 1.952 1.824 3.386 0 2.126-1.744 3.85-3.896 3.85-2.151 0-3.896-1.724-3.896-3.85 0-1.434.997-2.626 1.824-3.385.432-.397.86-.714 1.18-.932.16-.11.892-.542.892-.542Z"/>
</symbol>
</svg>