<svg xmlns="http://www.w3.org/2000/svg">
<symbol id="arrow1" viewBox="0 0 12 9">
  <path d="m12 4.633-6.667 4V5.3H0V3.966h5.333V.633l6.667 4Z"/>
</symbol>
<symbol id="close" viewBox="0 0 13 13">
  <path d="M10.572.395a.977.977 0 0 1 1.38 1.38L7.541 6.183l4.412 4.41a.975.975 0 0 1-1.38 1.379l-4.41-4.41-4.412 4.41a.976.976 0 0 1-1.38-1.378l4.411-4.411-4.41-4.41a.976.976 0 0 1 1.38-1.38l4.41 4.41 4.41-4.41Z"/>
</symbol>
<symbol id="filter" viewBox="0 0 9 10">
  <path d="M1.75 4.48a2 2 0 1 1 1.5 0V9a.75.75 0 0 1-1.5 0V4.48Zm6-3.48v2.895a2 2 0 0 1 0 3.71V9a.75.75 0 0 1-1.5 0V7.605a2 2 0 0 1 0-3.71V1a.75.75 0 0 1 1.5 0Z"/>
</symbol>
<symbol id="fullscreen" viewBox="0 0 11 11">
  <path d="M0 .786v2.75a.393.393 0 0 0 .671.278l1.015-1.017 1.687 1.686a.786.786 0 0 0 1.111-1.11L2.798 1.685 3.814.671A.393.393 0 0 0 3.536 0H.393A.393.393 0 0 0 0 .393v.393Zm4.484 6.84a.786.786 0 0 0-1.11-1.11L1.685 8.202.671 7.186A.393.393 0 0 0 0 7.464v3.143A.393.393 0 0 0 .393 11h3.143a.393.393 0 0 0 .278-.671L2.797 9.314l1.687-1.687Zm2.032-1.11a.786.786 0 0 1 1.11 0l1.688 1.686 1.015-1.016a.393.393 0 0 1 .671.278v3.143a.393.393 0 0 1-.393.393H7.464a.393.393 0 0 1-.278-.671l1.016-1.015-1.686-1.687a.786.786 0 0 1 0-1.111ZM7.464 0a.393.393 0 0 0-.278.671l1.016 1.015-1.686 1.687a.786.786 0 0 0 1.11 1.111l1.688-1.686 1.015 1.016A.393.393 0 0 0 11 3.536V.393A.393.393 0 0 0 10.607 0H7.464Z"/>
</symbol>
<symbol id="minus" viewBox="0 0 13 5">
  <path d="M6.5.5c1.725 0 3.45.338 5.175 1.013.191.075.383.154.575.237v1.5a16.74 16.74 0 0 1-.575.237C9.95 4.162 8.225 4.5 6.5 4.5c-1.725 0-3.45-.338-5.175-1.013A16.755 16.755 0 0 1 .75 3.25v-1.5c.192-.083.384-.162.575-.237C3.05.838 4.775.5 6.5.5Z"/>
</symbol>
<symbol id="plan" viewBox="0 0 24 24">
  <path d="M17.008 2.014c-.17 0-.351.043-.5.125l-9 5a.988.988 0 0 0-.5.875V9.39L3.57 11.11a1.027 1.027 0 0 0-.562.905v8a1 1 0 0 0 1 1h16a1 1 0 0 0 1-1v-17a1 1 0 0 0-1-1h-3Zm-1 5a1 1 0 1 1 0 2 1 1 0 0 1 0-2Zm-4 4a1 1 0 1 1 0 2 1 1 0 0 1 0-2Zm4 0a1 1 0 1 1 0 2 1 1 0 0 1 0-2Zm-9 .625v7.375h-2V12.64l2-1Zm5 3.375a1 1 0 1 1 0 2 1 1 0 0 1 0-2Zm4 0a1 1 0 1 1 0 2 1 1 0 0 1 0-2Z"/>
</symbol>
<symbol id="plus" viewBox="0 0 13 13">
  <path d="M7.484 1.325c.432 1.103.725 2.207.88 3.31 1.104.155 2.207.449 3.31.88.192.075.384.154.576.238v1.5a16.74 16.74 0 0 1-.575.237 14.702 14.702 0 0 1-3.312.88 14.705 14.705 0 0 1-.879 3.305 18.38 18.38 0 0 1-.237.575h-1.5a16.824 16.824 0 0 1-.237-.575 14.707 14.707 0 0 1-.88-3.306 14.705 14.705 0 0 1-3.305-.879 16.755 16.755 0 0 1-.575-.237v-1.5c.192-.084.384-.163.575-.237a14.708 14.708 0 0 1 3.304-.88c.156-1.104.449-2.207.88-3.31.076-.193.155-.384.238-.576h1.5c.083.192.162.383.237.575Z"/>
</symbol>
</svg>