<svg xmlns="http://www.w3.org/2000/svg">
<defs>
<clipPath id="a">
      <path d="M0 0h26v26H0z"/>
    </clipPath>
</defs>
<symbol id="arrow1" viewBox="0 0 12 9">
  <path d="m12 4.633-6.667 4V5.3H0V3.966h5.333V.633l6.667 4Z"/>
</symbol>
<symbol id="auto-repair" viewBox="0 0 20 24">
  <path d="M5.372 9.856c.437-.111 8.789-.113 9.234-.002.43.107.783.303 1.124.622.254.238.37.423.875 1.385l.582 1.11h1.111c1.069 0 1.117.004 1.286.114.554.357.554 1.012 0 1.37-.153.099-.241.113-.688.113-.28 0-.511.01-.514.024 0 .014.282.387.626.828.987 1.264.989 1.27.989 2.968 0 .873-.02 1.915-.072 2.08-.093.295-.36.663-.583.801l-.177.11v.66c-.001.828-.093 1.107-.493 1.49-.443.425-.639.47-2.008.47-1.368 0-1.564-.045-2.007-.47-.383-.366-.492-.673-.492-1.378v-.547h-8.33v.547c0 .705-.11 1.012-.492 1.378-.443.425-.64.47-2.008.47-1.368 0-1.565-.045-2.008-.47-.4-.383-.49-.662-.492-1.49v-.66l-.178-.11c-.223-.138-.49-.506-.583-.802-.052-.163-.072-1.206-.072-2.079 0-1.698.003-1.704.99-2.968.344-.441.625-.814.625-.828-.004-.013-.233-.024-.513-.024-.447 0-.536-.014-.689-.113-.554-.358-.554-1.013 0-1.37.17-.11.218-.114 1.287-.114h1.11l.582-1.11c.505-.962.622-1.147.876-1.385a2.493 2.493 0 0 1 1.102-.62Zm-1.484 7.248c-.224-.11-.666-.16-.866-.096-.583.183-.907.594-.907 1.153 0 .686.502 1.166 1.22 1.166.72 0 1.216-.477 1.216-1.166 0-.479-.228-.843-.663-1.057Zm13.33 0c-.225-.11-.665-.16-.866-.096-.583.183-.908.594-.908 1.153 0 .686.502 1.166 1.22 1.166.72 0 1.217-.477 1.217-1.166 0-.479-.229-.843-.664-1.057Zm-7.136-5.712c-2.294-.004-4.217.004-4.274.018-.307.073-.438.257-1.126 1.574l-.68 1.302.122.09a1.1 1.1 0 0 0 .304.141c.117.032 2.118.05 5.571.05s5.454-.018 5.572-.05a1.1 1.1 0 0 0 .305-.14l.12-.091-.68-1.302c-.559-1.072-.712-1.327-.871-1.443l-.194-.142-4.17-.007ZM3.893.076c.451-.1 1.2-.101 1.62-.005.865.198 1.49.563 2.143 1.254l.443.47h4.316c3.71 0 4.36.011 4.625.086 1.335.375 2.168 1.861 1.83 3.264-.238.982-1.008 1.793-1.897 1.996-.192.044-1.59.064-4.575.064H8.099l-.443.468c-.909.962-1.94 1.393-3.158 1.319-.664-.04-1.032-.145-1.624-.46C2.08 8.11 1.42 7.43 1.068 6.673c-.168-.359-.165-.48.016-.694.106-.124.133-.127 1.233-.127 1.399 0 1.46-.021 1.799-.64.188-.342.221-.449.221-.712 0-.264-.033-.37-.221-.713-.34-.618-.4-.64-1.8-.64-1.099 0-1.126-.003-1.232-.127-.181-.214-.184-.335-.017-.694C1.574 1.23 2.693.34 3.893.076Z"/>
</symbol>
<symbol id="bicycle" viewBox="0 0 24 24">
<path d="M8 11L7.10557 11.4472L7.38197 12H8V11ZM6 7V8H9V7V6H6V7ZM16 11V10H8V11V12H16V11ZM8 11L8.89443 10.5528L6.89443 6.55279L6 7L5.10557 7.44721L7.10557 11.4472L8 11ZM6 7V6H3.5V7V8H6V7Z" fill="white"/>
<circle cx="6" cy="15" r="4" stroke="white" stroke-width="2"/>
<path d="M6 14C5.44772 14 5 14.4477 5 15C5 15.5523 5.44772 16 6 16V15V14ZM6 15V16H14V15V14H6V15Z" fill="white"/>
<circle cx="18" cy="15" r="4" stroke="white" stroke-width="2"/>
<path d="M17.1056 15.4472C17.3526 15.9412 17.9532 16.1414 18.4472 15.8944C18.9412 15.6474 19.1414 15.0468 18.8944 14.5528L18 15L17.1056 15.4472ZM13 5V4L12.1056 5.44721L13 5ZM18 15L18.8944 14.5528L13.8944 4.55279L13 5L12.1056 5.44721L17.1056 15.4472L18 15ZM13 5V6H17.5V5V4H13V5ZM17.5 8V7H17V8V9H17.5V8ZM19 6.5H18C18 6.77614 17.7761 7 17.5 7V8V9C18.8807 9 20 7.88071 20 6.5H19ZM17.5 5V6C17.7761 6 18 6.22386 18 6.5H19H20C20 5.11929 18.8807 4 17.5 4V5Z" fill="white"/>
</symbol>
<symbol id="car-wash" viewBox="0 0 20 23">
  <path fill-rule="evenodd" d="M9.698.118C9.37.383 8.356 1.99 7.968 2.861c-.31.695-.4 1.14-.32 1.59.33 1.888 2.712 2.584 4.097 1.199.487-.488.723-1.213.603-1.856-.13-.695-.746-1.91-1.557-3.067-.189-.27-.41-.545-.493-.612-.192-.155-.405-.153-.6.003ZM2.067.916C1.825 1.13 1 2.389.607 3.14-.06 4.42-.153 5.09.231 5.861c.5 1.01 1.644 1.523 2.768 1.242 1.11-.277 1.917-1.413 1.74-2.451-.068-.403-.181-.713-.49-1.339-.437-.887-1.345-2.27-1.605-2.444a.484.484 0 0 0-.577.047ZM17.33.89c-.201.151-1.05 1.423-1.441 2.16-.73 1.372-.82 2.026-.396 2.86a2.374 2.374 0 0 0 1.537 1.2c1.262.31 2.554-.427 2.896-1.652.172-.616.027-1.245-.538-2.328-.406-.778-1.352-2.2-1.522-2.286a.546.546 0 0 0-.536.046ZM5.371 8.856a2.49 2.49 0 0 0-1.1.62c-.255.238-.371.423-.876 1.385l-.583 1.11h-1.11c-1.07 0-1.117.005-1.287.114-.554.358-.554 1.012 0 1.37.154.099.242.113.69.113.281 0 .512.011.512.025 0 .014-.281.385-.625.826-.987 1.265-.989 1.271-.989 2.97 0 .872.02 1.915.071 2.078.093.296.36.665.583.803l.178.11v.66c.001.828.093 1.107.492 1.49.444.424.64.47 2.008.47 1.37 0 1.565-.046 2.008-.47.383-.367.492-.673.492-1.378v-.547h8.33v.547c0 .705.11 1.01.492 1.377.443.425.639.471 2.008.471s1.564-.046 2.008-.47c.399-.383.49-.662.492-1.49v-.66l.178-.11c.222-.138.49-.507.583-.803.052-.163.071-1.206.071-2.079 0-1.698-.002-1.704-.989-2.969a18.376 18.376 0 0 1-.625-.826c0-.014.23-.025.513-.025.447 0 .535-.014.688-.113.555-.358.555-1.012 0-1.37-.169-.11-.217-.114-1.286-.114h-1.11l-.583-1.11c-.505-.962-.621-1.147-.875-1.385a2.447 2.447 0 0 0-1.124-.622c-.445-.111-8.802-.109-9.235.002Zm.438 1.554c-.307.073-.439.256-1.127 1.574l-.68 1.302.123.09a1.1 1.1 0 0 0 .304.142c.117.032 2.118.05 5.571.05 3.454 0 5.454-.018 5.571-.05a1.1 1.1 0 0 0 .304-.141l.122-.09-.68-1.303c-.56-1.073-.713-1.327-.872-1.444l-.193-.14-4.17-.008c-2.293-.004-4.216.004-4.273.018Zm-2.786 5.597c-.584.183-.908.595-.908 1.154 0 .687.502 1.166 1.22 1.166.72 0 1.217-.476 1.217-1.166 0-.478-.229-.842-.664-1.056-.224-.111-.665-.16-.865-.098Zm13.329 0c-.584.183-.907.595-.907 1.154 0 .687.501 1.166 1.22 1.166.72 0 1.216-.476 1.216-1.166 0-.478-.228-.842-.663-1.056-.225-.111-.666-.16-.866-.098Z"/>
</symbol>
<symbol id="close" viewBox="0 0 13 13">
  <path d="M10.572.395a.977.977 0 0 1 1.38 1.38L7.541 6.183l4.412 4.41a.975.975 0 0 1-1.38 1.379l-4.41-4.41-4.412 4.41a.976.976 0 0 1-1.38-1.378l4.411-4.411-4.41-4.41a.976.976 0 0 1 1.38-1.38l4.41 4.41 4.41-4.41Z"/>
</symbol>
<symbol id="communications" viewBox="0 0 25 25">
  <path d="M3.228 20.197h7.53v-2.152h3.23V24.5h-3.23v-2.151h-7.53V24.5H0v-6.455h3.228v2.152Zm10.76-6.57h1.133c.626 0 1.254.025 1.402.055.466.092.964.353 1.317.691.358.342.214.092 2.724 4.726l1.327 2.45 1.199.002a1.2 1.2 0 0 1 1.2 1.201v.396a1.35 1.35 0 0 1-1.351 1.351c-1.457 0-1.765-.037-2.227-.26a2.836 2.836 0 0 1-.935-.743c-.101-.133-.998-1.738-1.994-3.568l-1.81-3.328-1.986-.01v.379H0V8.36h13.987v5.267Zm-6.995-3.114a2.152 2.152 0 1 0 .002 4.304 2.152 2.152 0 0 0-.002-4.304ZM7.892.664c.5.5 2.075 2.074 3.5 3.495l2.59 2.585-3.477.013c-1.912.007-5.059.007-6.991 0L0 6.744l6.982-6.99.91.91Z"/>
</symbol>
<symbol id="download" viewBox="0 0 17 20">
  <path d="M2.102 17.79h13.296V7.382H16.7v11.71H.801V7.38h1.3v10.41ZM12.748 7.578H9.414v5.333H8.081V7.577H4.748l4-6.667 4 6.667Z"/>
</symbol>
<symbol id="entrances" viewBox="0 0 18 18">
  <path d="M.488 1.083c0-.327.266-.593.594-.593h6.333c.328 0 .594.266.594.593v15.834a.594.594 0 0 1-.594.594H1.082a.594.594 0 0 1-.594-.594V1.083Zm15.527.954h-5.234V.49h5.982a.76.76 0 0 1 .747.773v15.474a.761.761 0 0 1-.747.774H10.78v-1.548h5.234V2.037Z"/>
  <path d="m12.328 6.461 2.539 2.54-2.539 2.538-1.12-1.12.628-.627H7.414V8.209h4.422l-.628-.628 1.12-1.12Z"/>
</symbol>
<symbol id="entry" viewBox="0 0 21 23">
  <path d="M10.315 14.23a11.075 11.075 0 0 1 10.262 6.91c.2.49-.18 1-.708 1h-7.985l-.769-3.006.376-.429c.007-.008.011-.018.018-.026a.767.767 0 0 0 .04-.056c.016-.024.032-.049.046-.074.01-.019.017-.038.025-.058a.77.77 0 0 0 .03-.08c.007-.022.01-.045.015-.067a.782.782 0 0 0 0-.301c-.004-.022-.008-.045-.015-.066-.008-.028-.019-.054-.03-.08-.008-.02-.015-.04-.025-.06a.755.755 0 0 0-.088-.13c-.006-.008-.01-.016-.016-.022l-.595-.68-.583-.667-.584.667-.592.68-.017.02c-.017.02-.03.043-.045.065-.015.022-.03.044-.042.068-.01.019-.017.039-.025.058a.776.776 0 0 0-.045.144.762.762 0 0 0-.014.081c-.002.024-.002.048-.002.072 0 .024 0 .049.002.073a.704.704 0 0 0 .014.08.774.774 0 0 0 .045.145l.025.058a.764.764 0 0 0 .043.07c.014.02.027.041.042.06l.019.026.374.428-.767 3.008H.763c-.529 0-.909-.511-.71-1.001a11.075 11.075 0 0 1 10.262-6.91Zm1.64-9.841a7.293 7.293 0 0 0 4.688 1.869v.066a6.328 6.328 0 1 1-12.613-.72 7.294 7.294 0 0 0 3.036.657 7.294 7.294 0 0 0 4.888-1.872Zm-1.31-4.38a6.331 6.331 0 0 1 5.775 4.655 5.721 5.721 0 0 1-3.875-1.919.791.791 0 0 0-1.184 0A5.724 5.724 0 0 1 7.065 4.68a5.715 5.715 0 0 1-2.649-.648A6.33 6.33 0 0 1 10.646.01Z"/>
</symbol>
<symbol id="filter" viewBox="0 0 9 10">
  <path d="M1.75 4.48a2 2 0 1 1 1.5 0V9a.75.75 0 0 1-1.5 0V4.48Zm6-3.48v2.895a2 2 0 0 1 0 3.71V9a.75.75 0 0 1-1.5 0V7.605a2 2 0 0 1 0-3.71V1a.75.75 0 0 1 1.5 0Z"/>
</symbol>
<symbol id="football" viewBox="0 0 22 22">
  <path fill-rule="evenodd" d="M2.095 4.498A10.95 10.95 0 0 0 0 10.957c0 2.413.777 4.645 2.095 6.458l.062-.046c.97-.656 1.784-1.587 2.352-2.711a8.22 8.22 0 0 0 .87-3.701 8.221 8.221 0 0 0-.87-3.701 7.135 7.135 0 0 0-2.352-2.712.997.997 0 0 1-.062-.046Zm1.298-1.487a9.141 9.141 0 0 1 2.87 3.358 10.185 10.185 0 0 1 1.081 4.588c0 1.601-.37 3.18-1.082 4.587a9.14 9.14 0 0 1-2.869 3.359 10.961 10.961 0 0 0 6.625 3.01V0a10.962 10.962 0 0 0-6.625 3.01Zm8.59 18.902a10.962 10.962 0 0 0 6.624-3.01 9.14 9.14 0 0 1-2.87-3.359 10.184 10.184 0 0 1-1.081-4.587c0-1.602.37-3.181 1.082-4.588a9.14 9.14 0 0 1 2.869-3.358A10.962 10.962 0 0 0 11.982 0v21.913ZM22 10.957a10.95 10.95 0 0 1-2.095 6.458.932.932 0 0 0-.062-.046c-.97-.656-1.784-1.587-2.352-2.711a8.222 8.222 0 0 1-.87-3.701c0-1.302.3-2.576.87-3.701.568-1.125 1.381-2.056 2.352-2.712a.951.951 0 0 0 .062-.046A10.95 10.95 0 0 1 22 10.957Z"/>
</symbol>
<symbol id="forest" viewBox="0 0 25 22">
  <path fill-rule="evenodd" d="M4.296.075C3.129.42 2.13 1.353 1.42 2.757.25 5.075-.021 8.364.726 11.17c.582 2.19 1.777 3.839 3.198 4.414l.325.132.012 2.023.013 2.023H0v1.536l12.3-.012 12.298-.012.013-.768.014-.768-1.154.014-1.153.013v-1.539h1.587l-.014-.78-.013-.78-.514-.014-.515-.013-.013-2.203c-.013-2.153-.016-2.206-.115-2.338a1.065 1.065 0 0 0-.264-.232c-.16-.094-.249-.095-5.922-.095-6.414 0-5.927-.026-6.176.323l-.112.156-.013 2.195-.014 2.194-.514.014-.515.013-.013.78-.013.78h1.586v1.536H5.856v-2.02c0-2.011 0-2.02.1-2.047.223-.058.853-.397 1.133-.609 2.247-1.697 3.308-6.025 2.454-10.011C9.021 2.638 7.675.716 6.101.162c-.353-.124-.495-.148-.965-.16-.42-.01-.621.008-.84.073Zm7.991 18.919v.768h8.495v-1.536h-8.495v.768ZM.02 20.53c0 .435.007.614.016.396a11.62 11.62 0 0 0 0-.792c-.01-.218-.016-.04-.016.396Z"/>
</symbol>
<symbol id="fullscreen" viewBox="0 0 11 11">
  <path d="M0 .786v2.75a.393.393 0 0 0 .671.278l1.015-1.017 1.687 1.686a.786.786 0 0 0 1.111-1.11L2.798 1.685 3.814.671A.393.393 0 0 0 3.536 0H.393A.393.393 0 0 0 0 .393v.393Zm4.484 6.84a.786.786 0 0 0-1.11-1.11L1.685 8.202.671 7.186A.393.393 0 0 0 0 7.464v3.143A.393.393 0 0 0 .393 11h3.143a.393.393 0 0 0 .278-.671L2.797 9.314l1.687-1.687Zm2.032-1.11a.786.786 0 0 1 1.11 0l1.688 1.686 1.015-1.016a.393.393 0 0 1 .671.278v3.143a.393.393 0 0 1-.393.393H7.464a.393.393 0 0 1-.278-.671l1.016-1.015-1.686-1.687a.786.786 0 0 1 0-1.111ZM7.464 0a.393.393 0 0 0-.278.671l1.016 1.015-1.686 1.687a.786.786 0 0 0 1.11 1.111l1.688-1.686 1.015 1.016A.393.393 0 0 0 11 3.536V.393A.393.393 0 0 0 10.607 0H7.464Z"/>
</symbol>
<symbol id="icon1" viewBox="0 0 18 22">
  <path d="M18 13.257v2.498h-3.857v-2.149l3.857-.35Zm0-1.25c0-1.373-1.286-2.498-2.829-2.498H6.43V8.26H0V22h6.429v-8.856L18 12.008ZM0 7.012h6.429V4.513l6.891-2.236a1.21 1.21 0 0 0 .42-.221 1.139 1.139 0 0 0 .118-1.673 1.227 1.227 0 0 0-1.323-.304L0 4.513v2.498Z"/>
</symbol>
<symbol id="icon2" viewBox="0 0 24 24">
<path d="M12 10V20C12 20 20.227 10.6615 21 10H12Z" fill="#0C2776"/>
<path d="M12 20L3 10M12 20L21 10M12 20V10M3 10L7 4M3 10H12M7 4H17M7 4L12 10M17 4L21 10M17 4L12 10M21 10H12" stroke="#0C2776" stroke-width="2"/>
</symbol>
<symbol id="icon3" viewBox="0 0 24 24">
  <path d="m22.707 12.293-.965.964A6 6 0 1 0 13.533 22H7a3 3 0 0 1-3-3v-6.586l-1.293 1.293-1.414-1.414L12 1.586l10.707 10.707Z"/>
  <path d="M17.5 13a4.5 4.5 0 1 1 0 9 4.5 4.5 0 0 1 0-9Zm-.5 4.44-.97-.97-1.06 1.06L17 19.56l3.03-3.03-1.06-1.06L17 17.44Z"/>
</symbol>
<symbol id="icon4" viewBox="0 0 24 24">
  <path d="M20 2v8h-8v12H4V4a2 2 0 0 1 2-2h14ZM7 18v2h3v-2H7Zm0-4v2h3v-2H7Zm0-4v2h3v-2H7Zm5-5v3h2V5h-2Zm4 0v3h2V5h-2Z"/>
</symbol>
<symbol id="kindergarten" viewBox="0 0 26 22">
  <path d="M20.778.008c.337-.025 1.284.01 2.264.082.428.031 1.17.074 1.65.095.995.043.98.034.808.502-.209.566-.215.674-.217 3.584-.002 2.672-.006 2.803-.107 3.34-.14.738-.33 1.219-.626 1.584-.305.377-.61.537-1.09.57l-.36.026-.182-.214c-.217-.254-.402-.686-.783-1.837-.374-1.128-.618-1.706-.82-1.933-.142-.162-.194-.185-.379-.177-.12.005-.324.073-.466.154-1.031.59-1.262 3.021-.476 5.007.085.215.788 1.653 1.562 3.194.397.791.765 1.532 1.033 2.08.263-.197.512-.392.742-.586.583-.488 1.49-.35 1.842.325.232.447.14.996-.241 1.324-.45.386-.958.787-1.524 1.183-2.743 1.923-6.855 3.757-12.303 3.413-4.713-.298-8.23-2.087-10.699-4.023a1.092 1.092 0 0 1-.264-1.391c.354-.641 1.213-.782 1.795-.336.334.256.69.507 1.068.753.171-.386.524-1.083 1.243-2.516.652-1.3 1.212-2.421 1.247-2.497.096-.212.158-1.959.1-2.796-.057-.806-.165-1.261-.336-1.41-.285-.246-.809.222-1.044.933-.232.7-.367 1.656-.367 2.584 0 .683-.007.69-.628.65-1.19-.077-1.514-.221-1.704-.754-.099-.276-.091-.728.024-1.478.19-1.226.529-2.103 1.058-2.727.534-.63 1.033-.903 1.855-1.015.647-.088.94-.023 1.646.364.683.376.827.386 1.48.11 1.224-.516 2.491-.666 4.263-.505 1.246.113 1.712.058 2.293-.267.494-.276.832-.666 1.586-1.832.388-.601.87-1.297 1.069-1.545C17.836.728 18.999.14 20.778.008Zm-5.423 12.767c-.79-.12-2.784-.166-3.592-.083-.744.077-1.985.29-2.687.46l-.5.123-1.97 2.45c-.672.838-1.293 1.6-1.681 2.076 1.75.831 3.847 1.45 6.327 1.607 3.926.248 7.048-.771 9.377-2.068-.339-.41-.769-.938-1.294-1.592-1.149-1.43-2.127-2.613-2.175-2.632-.14-.049-1.179-.245-1.806-.34Z"/>
</symbol>
<symbol id="minus" viewBox="0 0 13 5">
  <path d="M6.5.5c1.725 0 3.45.338 5.175 1.013.191.075.383.154.575.237v1.5a16.74 16.74 0 0 1-.575.237C9.95 4.162 8.225 4.5 6.5 4.5c-1.725 0-3.45-.338-5.175-1.013A16.755 16.755 0 0 1 .75 3.25v-1.5c.192-.083.384-.162.575-.237C3.05.838 4.775.5 6.5.5Z"/>
</symbol>
<symbol id="p" viewBox="0 0 16 20">
  <path d="M8.114 0c1.603 0 2.981.293 4.135.879 1.163.586 2.056 1.392 2.679 2.418.622 1.016.933 2.179.933 3.488 0 1.291-.31 2.418-.933 3.38-.623.962-1.516 1.713-2.679 2.253-1.154.531-2.532.797-4.135.797h-3.16V19.6a.4.4 0 0 1-.4.399H.535a.4.4 0 0 1-.401-.4V.4a.4.4 0 0 1 .4-.4h7.581Zm-3.16 9.492h3.16c.678 0 1.228-.115 1.649-.344a2.1 2.1 0 0 0 .92-.948 3.12 3.12 0 0 0 .301-1.387c0-.549-.1-1.058-.301-1.525a2.46 2.46 0 0 0-.92-1.126c-.421-.293-.971-.44-1.649-.44h-3.16v5.77Z"/>
</symbol>
<symbol id="phone" viewBox="0 0 12 12">
  <path d="M.912 4.852a12.698 12.698 0 0 0 6.577 6.389l.467.208a2.407 2.407 0 0 0 2.977-.857l.611-.91a.688.688 0 0 0-.14-.919l-2.07-1.67a.687.687 0 0 0-.984.126l-.64.864a8.346 8.346 0 0 1-3.79-3.789l.864-.64a.687.687 0 0 0 .126-.985L3.24.6a.687.687 0 0 0-.919-.14l-.916.615a2.406 2.406 0 0 0-.85 2.994l.356.784Z"/>
</symbol>
<symbol id="plan" viewBox="0 0 24 24">
  <path d="M17.008 2.014c-.17 0-.351.043-.5.125l-9 5a.988.988 0 0 0-.5.875V9.39L3.57 11.11a1.027 1.027 0 0 0-.562.905v8a1 1 0 0 0 1 1h16a1 1 0 0 0 1-1v-17a1 1 0 0 0-1-1h-3Zm-1 5a1 1 0 1 1 0 2 1 1 0 0 1 0-2Zm-4 4a1 1 0 1 1 0 2 1 1 0 0 1 0-2Zm4 0a1 1 0 1 1 0 2 1 1 0 0 1 0-2Zm-9 .625v7.375h-2V12.64l2-1Zm5 3.375a1 1 0 1 1 0 2 1 1 0 0 1 0-2Zm4 0a1 1 0 1 1 0 2 1 1 0 0 1 0-2Z"/>
</symbol>
<symbol id="play" viewBox="0 0 21 26">
  <path d="M21 13 0 25.124V.876L21 13Z"/>
</symbol>
<symbol id="plus" viewBox="0 0 13 13">
  <path d="M7.484 1.325c.432 1.103.725 2.207.88 3.31 1.104.155 2.207.449 3.31.88.192.075.384.154.576.238v1.5a16.74 16.74 0 0 1-.575.237 14.702 14.702 0 0 1-3.312.88 14.705 14.705 0 0 1-.879 3.305 18.38 18.38 0 0 1-.237.575h-1.5a16.824 16.824 0 0 1-.237-.575 14.707 14.707 0 0 1-.88-3.306 14.705 14.705 0 0 1-3.305-.879 16.755 16.755 0 0 1-.575-.237v-1.5c.192-.084.384-.163.575-.237a14.708 14.708 0 0 1 3.304-.88c.156-1.104.449-2.207.88-3.31.076-.193.155-.384.238-.576h1.5c.083.192.162.383.237.575Z"/>
</symbol>
<symbol id="plus2" viewBox="0 0 14 14">
  <path d="M8.148 5.854H14v2.307H8.148V14H5.842V8.161H0V5.854h5.842V0h2.306v5.854Z"/>
</symbol>
<symbol id="school" viewBox="0 0 26 23">
  <path d="M13.37.077a.929.929 0 0 0-.74 0L.56 5.307a.929.929 0 0 0 0 1.704l1.657.718v10.384a2.302 2.302 0 1 0 1.863-.002V8.536l8.55 3.705a.93.93 0 0 0 .74 0l12.07-5.23a.929.929 0 0 0 0-1.704L13.37.077ZM5.49 16.095l-.01-4.422 6.227 2.698a3.25 3.25 0 0 0 2.584 0l6.229-2.698v4.42a.93.93 0 0 1-.189.561l-.74-.561.74.561-.001.002-.002.002-.003.005-.01.012-.028.035a5.817 5.817 0 0 1-.44.467 8.06 8.06 0 0 1-1.345 1.026c-1.205.74-3.02 1.456-5.502 1.456-2.483 0-4.295-.716-5.499-1.457a8.042 8.042 0 0 1-1.342-1.026 5.791 5.791 0 0 1-.438-.468l-.028-.035-.01-.012-.003-.005-.002-.002s-.001-.002.74-.561l-.741.56a.929.929 0 0 1-.188-.558Z"/>
</symbol>
<symbol id="soundproofing" viewBox="0 0 18 18">
  <path d="M16.002 17.063.938 1.998l1.06-1.06 15.064 15.064-1.06 1.06ZM11.058 3a.563.563 0 0 0-.867-.474L7.138 4.49l3.92 3.92V3Z"/>
  <path d="M5.08 5.812H1.497a.562.562 0 0 0-.562.563v5.25c0 .31.251.562.562.562h3.585l5.11 3.286a.563.563 0 0 0 .867-.474v-3.938L5.524 5.527l-.443.285ZM15.558 9c0-1.216-.48-2.344-1.303-3.244l1.106-1.013c1.053 1.15 1.697 2.63 1.697 4.257 0 1.49-.542 2.86-1.444 3.964l-1.068-1.067c.645-.836 1.012-1.833 1.012-2.897Zm-3.001 0a2.95 2.95 0 0 0-.596-1.795l1.192-.91A4.45 4.45 0 0 1 14.057 9a4.49 4.49 0 0 1-.447 1.961l-1.16-1.16c.07-.253.107-.522.107-.801Z"/>
</symbol>
<symbol id="spa" viewBox="0 0 25 19">
  <path d="M12.077.514c-1.639 1.978-2.662 4.348-3.025 7.01l-.083.61.794.873c1.151 1.266 1.943 2.586 2.547 4.25l.206.567.228-.645A12.146 12.146 0 0 1 15.3 8.952l.721-.78-.049-.474c-.192-1.85-.944-4.025-1.973-5.707C13.672 1.458 12.593 0 12.525 0c-.013 0-.214.231-.448.514Zm-6.325.56c-.565 1.534-.892 3.353-.765 4.255l.048.346.698.338c.384.186.996.526 1.36.755.363.23.68.417.707.417.026 0 .106-.328.178-.729.165-.917.353-1.593.725-2.618l.294-.808-.355-.386a7.605 7.605 0 0 0-.888-.779C7.249 1.492 6.09.859 5.914.859c-.046 0-.119.097-.162.215Zm12.858-.011c-.805.37-1.848 1.115-2.377 1.698l-.247.273.258.65c.401 1.016.712 2.163.892 3.291l.047.298.27-.173c.765-.49 1.321-.807 1.864-1.06.331-.156.626-.321.655-.37.096-.155.06-1.575-.058-2.245-.146-.83-.681-2.567-.79-2.563-.046.002-.277.092-.514.201ZM.012 6.033c.02.14.057.5.082.8.124 1.486.632 3.434 1.238 4.751.927 2.014 2.235 3.605 3.99 4.857.765.545 2.179 1.3 3.147 1.68.795.312 2.387.75 2.992.823l.469.056-.043-1.085c-.13-3.248-1.092-5.86-2.901-7.869-1.305-1.449-2.525-2.3-4.471-3.12a17.387 17.387 0 0 0-3.379-.997c-1.138-.212-1.17-.209-1.124.104Zm23.711-.097c-1.69.323-2.93.754-4.39 1.525-2.155 1.138-3.739 2.706-4.846 4.8-.795 1.502-1.332 3.85-1.335 5.838-.001 1.03-.096.965 1.049.718 6.195-1.34 10.048-5.645 10.726-11.984.116-1.085.122-1.055-.198-1.046-.15.005-.603.072-1.006.149Z"/>
</symbol>
<symbol id="strength" viewBox="0 0 18 18">
  <path d="M10.77 5.268h5.16l2.068 4.17-2.068 4.172h-5.16L8.704 9.439l2.068-4.17ZM2.068 0h5.16l2.067 4.17-2.068 4.171h-5.16L0 4.171 2.068 0Zm0 9.659h5.16l2.067 4.17L7.227 18h-5.16L0 13.83l2.068-4.171Z"/>
</symbol>
<symbol id="supermarket" viewBox="0 0 24 22">
  <path d="M6.9.033c-.298.076-.542.284-.713.574l-3.224 5.5H1.2c-.662 0-1.2.548-1.2 1.223v4.89c0 .165.048.345.113.496l2.737 6.496C3.511 20.784 5.297 22 6.974 22h10.052c1.677 0 3.463-1.218 4.124-2.788l2.737-6.495A1.31 1.31 0 0 0 24 12.22V7.33c0-.675-.538-1.222-1.2-1.222h-1.763L17.813.607c-.17-.29-.415-.498-.713-.574a1.166 1.166 0 0 0-.9.153 1.195 1.195 0 0 0-.413 1.643L18.3 6.108H5.7l2.513-4.279c.34-.58.156-1.296-.413-1.643a1.166 1.166 0 0 0-.9-.153Zm.3 10.965c.662 0 1.2.547 1.2 1.222v2.445c0 .675-.538 1.223-1.2 1.223-.662 0-1.2-.548-1.2-1.223V12.22c0-.675.538-1.222 1.2-1.222Zm4.8 0c.662 0 1.2.547 1.2 1.222v3.668c0 .674-.538 1.222-1.2 1.222-.662 0-1.2-.548-1.2-1.222V12.22c0-.675.538-1.222 1.2-1.222Zm4.8 0c.662 0 1.2.547 1.2 1.222v2.445c0 .675-.538 1.223-1.2 1.223-.662 0-1.2-.548-1.2-1.223V12.22c0-.675.538-1.222 1.2-1.222Z"/>
</symbol>
<symbol id="telegram" viewBox="0 0 20 18">
  <path d="M17.928.428a1.493 1.493 0 0 1 2.052 1.618l-2.257 13.69c-.219 1.32-1.667 2.078-2.878 1.42-1.013-.55-2.518-1.398-3.871-2.283-.677-.443-2.75-1.86-2.495-2.87.219-.863 3.702-4.104 5.692-6.032.781-.757.425-1.194-.498-.498-2.29 1.73-5.968 4.36-7.184 5.1-1.073.653-1.632.764-2.3.653-1.22-.203-2.352-.517-3.276-.9-1.247-.518-1.187-2.233 0-2.733L17.927.428Z"/>
</symbol>
<symbol id="tennis" viewBox="0 0 26 26">
  <g clip-path="url(#a)">
    <path d="m5.198 19.026-1.097 1.102c-1.145 1.15-1.273 1.25-1.587 1.252-.27.001-.433-.094-.833-.486-.405-.398-.533-.604-.533-.864 0-.32.076-.419 1.229-1.573a45.91 45.91 0 0 1 1.125-1.107c.012 0 .399.377.86.838l.836.838Zm1.269-1.267-.428.43-.85-.849-.848-.847.428-.43.43-.43.847.848.85.848-.43.43ZM18.269 1.53a5.722 5.722 0 0 1 2.996 3.404c.203.608.279 1.052.307 1.782.117 3.097-1.833 6.237-4.82 7.76-1.341.684-2.712.976-4.11.874l-.54-.04-1.925.682c-1.058.374-1.96.68-2.006.68-.216 0-.406-.15-1.27-1.008-.866-.861-1.04-1.078-1.042-1.294 0-.051.306-.957.68-2.015l.68-1.93-.041-.538c-.106-1.373.19-2.765.875-4.107 1.302-2.554 3.838-4.404 6.543-4.773 1.28-.175 2.588.011 3.673.523Zm-7.226 7.719a.721.721 0 1 0-1.02 1.02.721.721 0 0 0 1.02-1.02Zm2.252 2.252a.72.72 0 1 0-1.019 1.02.72.72 0 0 0 1.02-1.02Zm-.841-5.915a.72.72 0 1 0-1.02 1.02.72.72 0 0 0 1.02-1.02Zm2.252 2.252a.72.72 0 1 0-1.02 1.02.72.72 0 0 0 1.02-1.02Zm2.252 2.253a.72.72 0 1 0-1.019 1.02.72.72 0 0 0 1.02-1.02Zm-.842-5.916a.721.721 0 1 0-1.02 1.02.721.721 0 0 0 1.02-1.02Zm2.253 2.253a.72.72 0 1 0-1.02 1.02.72.72 0 0 0 1.02-1.02Z"/>
    <circle cx="17.027" cy="19.096" r="2.5"/>
  </g>
  
</symbol>
<symbol id="walls" viewBox="0 0 22 16">
  <path d="M.25 10h10V6H1a.75.75 0 0 0-.75.75V10Zm0 1.5v3.25a.75.75 0 0 0 .75.75h4.25v-4h-5Zm6.5 4h8.5v-4h-8.5v4Zm10 0H21a.75.75 0 0 0 .75-.75V11.5h-5v4Zm5-5.5V6.75A.75.75 0 0 0 21 6h-9.25v4h10ZM.25 4.5V1.25A.75.75 0 0 1 1 .5h4.25v4h-5Zm6.5-4h8.5v4h-8.5v-4Zm10 0H21a.75.75 0 0 1 .75.75V4.5h-5v-4Z"/>
</symbol>
<symbol id="water" viewBox="0 0 18 18">
  <path d="M14.044.063s.732.432.892.541c.32.218.748.536 1.18.932.828.76 1.824 1.951 1.824 3.385 0 2.126-1.744 3.85-3.896 3.85-2.151 0-3.896-1.724-3.896-3.85 0-1.434.997-2.626 1.824-3.385.432-.396.86-.714 1.18-.932.16-.11.892-.541.892-.541Zm-10.086 0s.732.432.892.541c.32.218.749.536 1.18.932.828.76 1.824 1.951 1.824 3.385 0 2.126-1.744 3.85-3.896 3.85C1.807 8.77.062 7.047.062 4.92c0-1.434.997-2.626 1.824-3.385.432-.396.86-.714 1.18-.932.16-.11.892-.541.892-.541Zm5.043 9.166s.732.432.892.542c.32.218.748.535 1.18.931.828.76 1.824 1.952 1.824 3.386 0 2.126-1.744 3.85-3.896 3.85-2.151 0-3.896-1.724-3.896-3.85 0-1.434.997-2.626 1.824-3.385.432-.397.86-.714 1.18-.932.16-.11.892-.542.892-.542Z"/>
</symbol>
<symbol id="window" viewBox="0 0 20 19">
  <path d="M17.503 15.667v-15h-15v15H.836v2.5h18.333v-2.5M15.836 2.334v5.833h-1.667V2.334m-10 0h1.667v5.833H4.169m0 7.5V9.834h1.667v5.833m1.667 0V2.334h5v13.333m1.666 0V9.834h1.667v5.833h-1.667Z"/>
</symbol>
</svg>