<svg width="32" height="33" viewBox="0 0 32 33" fill="none" xmlns="http://www.w3.org/2000/svg">
<path d="M16.12 26.4465C16.6839 26.4466 17.2276 26.6566 17.645 27.0358C18.0624 27.4149 18.3237 27.9359 18.3778 28.4972L18.3884 28.715V30.2272C18.3881 30.8098 18.1637 31.3699 17.7617 31.7915C17.3597 32.2131 16.8109 32.4639 16.229 32.4919C15.6471 32.5199 15.0768 32.323 14.6362 31.9419C14.1955 31.5608 13.9184 31.0248 13.8622 30.445L13.8516 30.2272V28.715C13.8516 28.1133 14.0906 27.5364 14.516 27.1109C14.9414 26.6855 15.5184 26.4465 16.12 26.4465ZM16.12 0.737793C16.6839 0.73782 17.2276 0.947878 17.645 1.32701C18.0624 1.70613 18.3237 2.22715 18.3778 2.78844L18.3884 3.00621V4.51849C18.3881 5.10105 18.1637 5.66116 17.7617 6.08277C17.3597 6.50438 16.8109 6.75517 16.229 6.78317C15.6471 6.81116 15.0768 6.61422 14.6362 6.23315C14.1955 5.85208 13.9184 5.3161 13.8622 4.73626L13.8516 4.51849V3.00621C13.8516 2.40459 14.0906 1.82761 14.516 1.4022C14.9414 0.976787 15.5184 0.737793 16.12 0.737793ZM24.1396 5.38805C24.5498 4.97179 25.1048 4.7299 25.689 4.71279C26.2731 4.69568 26.8413 4.90467 27.2752 5.29621C27.709 5.68774 27.975 6.2316 28.0177 6.81444C28.0604 7.39727 27.8766 7.97411 27.5044 8.42471L27.3487 8.59711L26.2795 9.66629C25.8693 10.0825 25.3143 10.3244 24.7302 10.3416C24.146 10.3587 23.5778 10.1497 23.1439 9.75814C22.7101 9.3666 22.4441 8.82274 22.4014 8.2399C22.3587 7.65707 22.5425 7.08023 22.9147 6.62963L23.0704 6.45723L24.1396 5.38805ZM4.89133 5.38805C5.28838 4.99073 5.81872 4.75484 6.37969 4.72607C6.94066 4.69729 7.49236 4.87767 7.92798 5.23229L8.10038 5.38805L9.16956 6.45723C9.58582 6.86742 9.82771 7.42243 9.84483 8.00657C9.86194 8.59072 9.65294 9.15894 9.26141 9.59278C8.86988 10.0266 8.32601 10.2926 7.74318 10.3353C7.16034 10.3781 6.58351 10.1942 6.13291 9.82205L5.96051 9.66629L4.89133 8.59711C4.68053 8.38645 4.51331 8.13631 4.39922 7.861C4.28513 7.58569 4.22641 7.2906 4.22641 6.99258C4.22641 6.69457 4.28513 6.39947 4.39922 6.12416C4.51331 5.84885 4.68053 5.59871 4.89133 5.38805ZM29.7305 14.3483C30.3131 14.3486 30.8732 14.573 31.2948 14.975C31.7164 15.377 31.9672 15.9258 31.9952 16.5077C32.0232 17.0896 31.8262 17.6599 31.4452 18.1006C31.0641 18.5412 30.5281 18.8183 29.9483 18.8746L29.7305 18.8851H28.2182C27.6357 18.8849 27.0756 18.6605 26.654 18.2584C26.2323 17.8564 25.9816 17.3076 25.9536 16.7257C25.9256 16.1439 26.1225 15.5735 26.5036 15.1329C26.8846 14.6922 27.4206 14.4151 28.0005 14.3589L28.2182 14.3483H29.7305ZM4.02176 14.3483C4.60432 14.3486 5.16444 14.573 5.58605 14.975C6.00766 15.377 6.25844 15.9258 6.28644 16.5077C6.31444 17.0896 6.11749 17.6599 5.73642 18.1006C5.35536 18.5412 4.81937 18.8183 4.23953 18.8746L4.02176 18.8851H2.50949C1.92693 18.8849 1.36682 18.6605 0.945204 18.2584C0.523593 17.8564 0.272806 17.3076 0.244811 16.7257C0.216815 16.1439 0.413757 15.5735 0.794826 15.1329C1.1759 14.6922 1.71188 14.4151 2.29172 14.3589L2.50949 14.3483H4.02176Z" fill="#FFB26B"/>
<path d="M16.1187 7.53711C23.1039 7.53711 27.4699 15.0985 23.9765 21.1476C23.1801 22.527 22.0347 23.6724 20.6554 24.4688C19.2761 25.2651 17.7114 25.6844 16.1187 25.6845C9.13347 25.6845 4.76751 18.1231 8.26088 12.0739C9.05724 10.6946 10.2026 9.54919 11.582 8.75281C12.9613 7.95643 14.526 7.53715 16.1187 7.53711Z" fill="#FFB26B"/>
<path d="M5.95524 23.559C6.36543 23.1428 6.92043 22.9009 7.50458 22.8838C8.08873 22.8667 8.65694 23.0757 9.09079 23.4672C9.52464 23.8587 9.79064 24.4026 9.83335 24.9854C9.87607 25.5683 9.69219 26.1451 9.32006 26.5957L9.1643 26.7681L8.09512 27.8373C7.68493 28.2535 7.12993 28.4954 6.54578 28.5125C5.96163 28.5297 5.39342 28.3207 4.95957 27.9291C4.52572 27.5376 4.25972 26.9937 4.21701 26.4109C4.1743 25.8281 4.35817 25.2512 4.7303 24.8006L4.88606 24.6282L5.95524 23.559ZM23.0652 23.559C23.4622 23.1617 23.9926 22.9258 24.5535 22.8971C25.1145 22.8683 25.6662 23.0487 26.1018 23.4033L26.2742 23.559L27.3434 24.6282C27.7597 25.0384 28.0016 25.5934 28.0187 26.1776C28.0358 26.7617 27.8268 27.3299 27.4353 27.7638C27.0437 28.1976 26.4999 28.4636 25.917 28.5063C25.3342 28.5491 24.7574 28.3652 24.3068 27.9931L24.1344 27.8373L23.0652 26.7681C22.8544 26.5574 22.6872 26.3073 22.5731 26.032C22.459 25.7567 22.4003 25.4616 22.4003 25.1636C22.4003 24.8656 22.459 24.5705 22.5731 24.2952C22.6872 24.0198 22.8544 23.7697 23.0652 23.559Z" fill="#FFB26B"/>
</svg>
