<svg width="28" height="29" viewBox="0 0 28 29" fill="none" xmlns="http://www.w3.org/2000/svg">
<path d="M13.9982 23.0772C14.4902 23.0772 14.9646 23.2605 15.3288 23.5913C15.693 23.9221 15.9209 24.3767 15.9682 24.8664L15.9774 25.0564V26.3759C15.9772 26.8842 15.7814 27.3729 15.4306 27.7408C15.0798 28.1086 14.601 28.3275 14.0933 28.3519C13.5856 28.3763 13.088 28.2045 12.7035 27.872C12.319 27.5395 12.0772 27.0718 12.0282 26.5659L12.0189 26.3759V25.0564C12.0189 24.5315 12.2275 24.0281 12.5986 23.6569C12.9698 23.2857 13.4733 23.0772 13.9982 23.0772ZM13.9982 0.645905C14.4902 0.645928 14.9646 0.829207 15.3288 1.16C15.693 1.4908 15.9209 1.94539 15.9682 2.43513L15.9774 2.62514V3.94462C15.9772 4.45291 15.7814 4.94162 15.4306 5.30948C15.0798 5.67735 14.601 5.89616 14.0933 5.92059C13.5856 5.94502 13.088 5.77318 12.7035 5.44069C12.319 5.1082 12.0772 4.64055 12.0282 4.13463L12.0189 3.94462V2.62514C12.0189 2.10021 12.2275 1.59679 12.5986 1.22561C12.9698 0.85443 13.4733 0.645905 13.9982 0.645905ZM20.9954 4.70333C21.3533 4.34014 21.8376 4.12908 22.3472 4.11415C22.8569 4.09922 23.3527 4.28157 23.7312 4.62319C24.1098 4.96481 24.3419 5.43934 24.3791 5.94788C24.4164 6.45641 24.256 6.95971 23.9313 7.35286L23.7954 7.50328L22.8625 8.43616C22.5046 8.79935 22.0203 9.01041 21.5107 9.02534C21.001 9.04027 20.5052 8.85792 20.1267 8.5163C19.7481 8.17468 19.5161 7.70015 19.4788 7.19161C19.4415 6.68308 19.6019 6.17978 19.9266 5.78663L20.0625 5.63621L20.9954 4.70333ZM4.20098 4.70333C4.54741 4.35666 5.01015 4.15084 5.4996 4.12574C5.98906 4.10063 6.47042 4.25802 6.85051 4.56742L7.00093 4.70333L7.93381 5.63621C8.297 5.9941 8.50806 6.47835 8.52299 6.98803C8.53792 7.49771 8.35557 7.99349 8.01395 8.37202C7.67233 8.75056 7.1978 8.98265 6.68926 9.01992C6.18073 9.05719 5.67743 8.89676 5.28428 8.57207L5.13386 8.43616L4.20098 7.50328C4.01705 7.31948 3.87115 7.10123 3.77161 6.86102C3.67206 6.6208 3.62083 6.36333 3.62083 6.10331C3.62083 5.84328 3.67206 5.58581 3.77161 5.34559C3.87115 5.10538 4.01705 4.88713 4.20098 4.70333ZM25.8736 12.5213C26.3819 12.5215 26.8706 12.7173 27.2384 13.0681C27.6063 13.4189 27.8251 13.8977 27.8495 14.4054C27.874 14.9131 27.7021 15.4108 27.3696 15.7952C27.0371 16.1797 26.5695 16.4215 26.0636 16.4705L25.8736 16.4798H24.5541C24.0458 16.4795 23.5571 16.2837 23.1892 15.933C22.8214 15.5822 22.6025 15.1033 22.5781 14.5956C22.5537 14.0879 22.7255 13.5903 23.058 13.2058C23.3905 12.8214 23.8582 12.5796 24.3641 12.5305L24.5541 12.5213H25.8736ZM3.44227 12.5213C3.95056 12.5215 4.43927 12.7173 4.80713 13.0681C5.175 13.4189 5.39381 13.8977 5.41824 14.4054C5.44266 14.9131 5.27083 15.4108 4.93834 15.7952C4.60585 16.1797 4.1382 16.4215 3.63228 16.4705L3.44227 16.4798H2.12279C1.6145 16.4795 1.12579 16.2837 0.757924 15.933C0.390062 15.5822 0.171247 15.1033 0.14682 14.5956C0.122393 14.0879 0.294228 13.5903 0.626717 13.2058C0.959207 12.8214 1.42686 12.5796 1.93278 12.5305L2.12279 12.5213H3.44227Z" fill="white"/>
<path opacity="0.3" d="M13.9992 6.57819C20.094 6.57819 23.9033 13.1756 20.8553 18.4536C20.1605 19.6571 19.1611 20.6565 17.9576 21.3513C16.7541 22.0462 15.3889 22.412 13.9992 22.412C7.90453 22.412 4.09517 15.8146 7.14318 10.5366C7.83802 9.33315 8.83741 8.33376 10.0409 7.6389C11.2444 6.94405 12.6096 6.57822 13.9992 6.57819Z" fill="white"/>
<path d="M5.13131 20.5578C5.4892 20.1946 5.97345 19.9836 6.48313 19.9686C6.99281 19.9537 7.48859 20.136 7.86712 20.4777C8.24566 20.8193 8.47775 21.2938 8.51502 21.8023C8.55229 22.3109 8.39186 22.8142 8.06717 23.2073L7.93126 23.3578L6.99838 24.2906C6.64049 24.6538 6.15624 24.8649 5.64656 24.8798C5.13688 24.8947 4.64111 24.7124 4.26257 24.3708C3.88403 24.0291 3.65194 23.5546 3.61467 23.0461C3.5774 22.5376 3.73783 22.0343 4.06252 21.6411L4.19843 21.4907L5.13131 20.5578ZM20.06 20.5578C20.4064 20.2111 20.8692 20.0053 21.3586 19.9802C21.8481 19.9551 22.3294 20.1125 22.7095 20.4219L22.8599 20.5578L23.7928 21.4907C24.156 21.8486 24.3671 22.3328 24.382 22.8425C24.3969 23.3522 24.2146 23.848 23.873 24.2265C23.5313 24.605 23.0568 24.8371 22.5483 24.8744C22.0397 24.9117 21.5364 24.7512 21.1433 24.4265L20.9929 24.2906L20.06 23.3578C19.8761 23.1739 19.7302 22.9557 19.6306 22.7155C19.5311 22.4753 19.4798 22.2178 19.4798 21.9578C19.4798 21.6978 19.5311 21.4403 19.6306 21.2001C19.7302 20.9598 19.8761 20.7416 20.06 20.5578Z" fill="white"/>
</svg>
