<svg width="26" height="26" viewBox="0 0 26 26" fill="none" xmlns="http://www.w3.org/2000/svg">
<path fill-rule="evenodd" clip-rule="evenodd" d="M13.0013 2.16504C7.01805 2.16504 2.16797 7.01512 2.16797 12.9984C2.16797 15.0459 2.73672 16.9634 3.7258 18.597L2.75947 21.8817C2.70399 22.0703 2.70033 22.2703 2.7489 22.4608C2.79747 22.6513 2.89645 22.8252 3.03546 22.9642C3.17446 23.1032 3.34835 23.2022 3.53884 23.2508C3.72933 23.2993 3.92938 23.2957 4.11797 23.2402L7.40264 22.2739C9.09127 23.2954 11.0277 23.8342 13.0013 23.8317C18.9846 23.8317 23.8346 18.9816 23.8346 12.9984C23.8346 7.01512 18.9846 2.16504 13.0013 2.16504ZM10.5508 15.45C12.7424 17.6405 14.8343 17.9297 15.5731 17.9568C16.6966 17.998 17.7907 17.14 18.2165 16.1444C18.2698 16.0204 18.289 15.8845 18.2723 15.7506C18.2555 15.6168 18.2033 15.4898 18.1211 15.3828C17.5275 14.6245 16.7247 14.0795 15.9404 13.5379C15.7767 13.4244 15.5754 13.3788 15.3788 13.4107C15.1822 13.4426 15.0057 13.5496 14.8863 13.709L14.2363 14.7003C14.202 14.7534 14.1487 14.7914 14.0874 14.8067C14.026 14.822 13.9611 14.8134 13.9059 14.7826C13.465 14.5302 12.8226 14.1012 12.3611 13.6397C11.8996 13.1782 11.4966 12.565 11.2701 12.1523C11.2427 12.0997 11.235 12.0391 11.2483 11.9813C11.2616 11.9235 11.2951 11.8724 11.3427 11.837L12.3437 11.0939C12.487 10.9699 12.5795 10.7975 12.6035 10.6096C12.6275 10.4217 12.5813 10.2315 12.4737 10.0755C11.9884 9.36487 11.4229 8.46137 10.6028 7.86229C10.4967 7.78608 10.3728 7.73856 10.243 7.72433C10.1132 7.71009 9.98186 7.72963 9.8618 7.78104C8.86514 8.20787 8.0028 9.30204 8.04397 10.4276C8.07105 11.1665 8.3603 13.2584 10.5508 15.45Z" fill="white"/>
</svg>
