<svg xmlns="http://www.w3.org/2000/svg" width="20" height="24" fill="currentColor" viewBox="0 0 20 24">
  <path d="M5.372 9.856c.437-.111 8.789-.113 9.234-.002.43.107.783.303 1.124.622.254.238.37.423.875 1.385l.582 1.11h1.111c1.069 0 1.117.004 1.286.114.554.357.554 1.012 0 1.37-.153.099-.241.113-.688.113-.28 0-.511.01-.514.024 0 .014.282.387.626.828.987 1.264.989 1.27.989 2.968 0 .873-.02 1.915-.072 2.08-.093.295-.36.663-.583.801l-.177.11v.66c-.001.828-.093 1.107-.493 1.49-.443.425-.639.47-2.008.47-1.368 0-1.564-.045-2.007-.47-.383-.366-.492-.673-.492-1.378v-.547h-8.33v.547c0 .705-.11 1.012-.492 1.378-.443.425-.64.47-2.008.47-1.368 0-1.565-.045-2.008-.47-.4-.383-.49-.662-.492-1.49v-.66l-.178-.11c-.223-.138-.49-.506-.583-.802-.052-.163-.072-1.206-.072-2.079 0-1.698.003-1.704.99-2.968.344-.441.625-.814.625-.828-.004-.013-.233-.024-.513-.024-.447 0-.536-.014-.689-.113-.554-.358-.554-1.013 0-1.37.17-.11.218-.114 1.287-.114h1.11l.582-1.11c.505-.962.622-1.147.876-1.385a2.493 2.493 0 0 1 1.102-.62Zm-1.484 7.248c-.224-.11-.666-.16-.866-.096-.583.183-.907.594-.907 1.153 0 .686.502 1.166 1.22 1.166.72 0 1.216-.477 1.216-1.166 0-.479-.228-.843-.663-1.057Zm13.33 0c-.225-.11-.665-.16-.866-.096-.583.183-.908.594-.908 1.153 0 .686.502 1.166 1.22 1.166.72 0 1.217-.477 1.217-1.166 0-.479-.229-.843-.664-1.057Zm-7.136-5.712c-2.294-.004-4.217.004-4.274.018-.307.073-.438.257-1.126 1.574l-.68 1.302.122.09a1.1 1.1 0 0 0 .304.141c.117.032 2.118.05 5.571.05s5.454-.018 5.572-.05a1.1 1.1 0 0 0 .305-.14l.12-.091-.68-1.302c-.559-1.072-.712-1.327-.871-1.443l-.194-.142-4.17-.007ZM3.893.076c.451-.1 1.2-.101 1.62-.005.865.198 1.49.563 2.143 1.254l.443.47h4.316c3.71 0 4.36.011 4.625.086 1.335.375 2.168 1.861 1.83 3.264-.238.982-1.008 1.793-1.897 1.996-.192.044-1.59.064-4.575.064H8.099l-.443.468c-.909.962-1.94 1.393-3.158 1.319-.664-.04-1.032-.145-1.624-.46C2.08 8.11 1.42 7.43 1.068 6.673c-.168-.359-.165-.48.016-.694.106-.124.133-.127 1.233-.127 1.399 0 1.46-.021 1.799-.64.188-.342.221-.449.221-.712 0-.264-.033-.37-.221-.713-.34-.618-.4-.64-1.8-.64-1.099 0-1.126-.003-1.232-.127-.181-.214-.184-.335-.017-.694C1.574 1.23 2.693.34 3.893.076Z"/>
</svg>
