<svg width="24" height="24" viewBox="0 0 24 24" fill="none" xmlns="http://www.w3.org/2000/svg">
<path d="M8 11L7.10557 11.4472L7.38197 12H8V11ZM6 7V8H9V7V6H6V7ZM16 11V10H8V11V12H16V11ZM8 11L8.89443 10.5528L6.89443 6.55279L6 7L5.10557 7.44721L7.10557 11.4472L8 11ZM6 7V6H3.5V7V8H6V7Z" fill="white"/>
<circle cx="6" cy="15" r="4" stroke="white" stroke-width="2"/>
<path d="M6 14C5.44772 14 5 14.4477 5 15C5 15.5523 5.44772 16 6 16V15V14ZM6 15V16H14V15V14H6V15Z" fill="white"/>
<circle cx="18" cy="15" r="4" stroke="white" stroke-width="2"/>
<path d="M17.1056 15.4472C17.3526 15.9412 17.9532 16.1414 18.4472 15.8944C18.9412 15.6474 19.1414 15.0468 18.8944 14.5528L18 15L17.1056 15.4472ZM13 5V4L12.1056 5.44721L13 5ZM18 15L18.8944 14.5528L13.8944 4.55279L13 5L12.1056 5.44721L17.1056 15.4472L18 15ZM13 5V6H17.5V5V4H13V5ZM17.5 8V7H17V8V9H17.5V8ZM19 6.5H18C18 6.77614 17.7761 7 17.5 7V8V9C18.8807 9 20 7.88071 20 6.5H19ZM17.5 5V6C17.7761 6 18 6.22386 18 6.5H19H20C20 5.11929 18.8807 4 17.5 4V5Z" fill="white"/>
</svg>
