<svg xmlns="http://www.w3.org/2000/svg" width="20" height="23" fill="currentColor" viewBox="0 0 20 23">
  <path fill-rule="evenodd" d="M9.698.118C9.37.383 8.356 1.99 7.968 2.861c-.31.695-.4 1.14-.32 1.59.33 1.888 2.712 2.584 4.097 1.199.487-.488.723-1.213.603-1.856-.13-.695-.746-1.91-1.557-3.067-.189-.27-.41-.545-.493-.612-.192-.155-.405-.153-.6.003ZM2.067.916C1.825 1.13 1 2.389.607 3.14-.06 4.42-.153 5.09.231 5.861c.5 1.01 1.644 1.523 2.768 1.242 1.11-.277 1.917-1.413 1.74-2.451-.068-.403-.181-.713-.49-1.339-.437-.887-1.345-2.27-1.605-2.444a.484.484 0 0 0-.577.047ZM17.33.89c-.201.151-1.05 1.423-1.441 2.16-.73 1.372-.82 2.026-.396 2.86a2.374 2.374 0 0 0 1.537 1.2c1.262.31 2.554-.427 2.896-1.652.172-.616.027-1.245-.538-2.328-.406-.778-1.352-2.2-1.522-2.286a.546.546 0 0 0-.536.046ZM5.371 8.856a2.49 2.49 0 0 0-1.1.62c-.255.238-.371.423-.876 1.385l-.583 1.11h-1.11c-1.07 0-1.117.005-1.287.114-.554.358-.554 1.012 0 1.37.154.099.242.113.69.113.281 0 .512.011.512.025 0 .014-.281.385-.625.826-.987 1.265-.989 1.271-.989 2.97 0 .872.02 1.915.071 2.078.093.296.36.665.583.803l.178.11v.66c.001.828.093 1.107.492 1.49.444.424.64.47 2.008.47 1.37 0 1.565-.046 2.008-.47.383-.367.492-.673.492-1.378v-.547h8.33v.547c0 .705.11 1.01.492 1.377.443.425.639.471 2.008.471s1.564-.046 2.008-.47c.399-.383.49-.662.492-1.49v-.66l.178-.11c.222-.138.49-.507.583-.803.052-.163.071-1.206.071-2.079 0-1.698-.002-1.704-.989-2.969a18.376 18.376 0 0 1-.625-.826c0-.014.23-.025.513-.025.447 0 .535-.014.688-.113.555-.358.555-1.012 0-1.37-.169-.11-.217-.114-1.286-.114h-1.11l-.583-1.11c-.505-.962-.621-1.147-.875-1.385a2.447 2.447 0 0 0-1.124-.622c-.445-.111-8.802-.109-9.235.002Zm.438 1.554c-.307.073-.439.256-1.127 1.574l-.68 1.302.123.09a1.1 1.1 0 0 0 .304.142c.117.032 2.118.05 5.571.05 3.454 0 5.454-.018 5.571-.05a1.1 1.1 0 0 0 .304-.141l.122-.09-.68-1.303c-.56-1.073-.713-1.327-.872-1.444l-.193-.14-4.17-.008c-2.293-.004-4.216.004-4.273.018Zm-2.786 5.597c-.584.183-.908.595-.908 1.154 0 .687.502 1.166 1.22 1.166.72 0 1.217-.476 1.217-1.166 0-.478-.229-.842-.664-1.056-.224-.111-.665-.16-.865-.098Zm13.329 0c-.584.183-.907.595-.907 1.154 0 .687.501 1.166 1.22 1.166.72 0 1.216-.476 1.216-1.166 0-.478-.228-.842-.663-1.056-.225-.111-.666-.16-.866-.098Z"/>
</svg>
