<svg xmlns="http://www.w3.org/2000/svg" width="25" height="25" fill="currentColor" viewBox="0 0 25 25">
  <path d="M3.228 20.197h7.53v-2.152h3.23V24.5h-3.23v-2.151h-7.53V24.5H0v-6.455h3.228v2.152Zm10.76-6.57h1.133c.626 0 1.254.025 1.402.055.466.092.964.353 1.317.691.358.342.214.092 2.724 4.726l1.327 2.45 1.199.002a1.2 1.2 0 0 1 1.2 1.201v.396a1.35 1.35 0 0 1-1.351 1.351c-1.457 0-1.765-.037-2.227-.26a2.836 2.836 0 0 1-.935-.743c-.101-.133-.998-1.738-1.994-3.568l-1.81-3.328-1.986-.01v.379H0V8.36h13.987v5.267Zm-6.995-3.114a2.152 2.152 0 1 0 .002 4.304 2.152 2.152 0 0 0-.002-4.304ZM7.892.664c.5.5 2.075 2.074 3.5 3.495l2.59 2.585-3.477.013c-1.912.007-5.059.007-6.991 0L0 6.744l6.982-6.99.91.91Z"/>
</svg>
