<svg xmlns="http://www.w3.org/2000/svg" width="21" height="23" fill="currentColor" viewBox="0 0 21 23">
  <path d="M10.315 14.23a11.075 11.075 0 0 1 10.262 6.91c.2.49-.18 1-.708 1h-7.985l-.769-3.006.376-.429c.007-.008.011-.018.018-.026a.767.767 0 0 0 .04-.056c.016-.024.032-.049.046-.074.01-.019.017-.038.025-.058a.77.77 0 0 0 .03-.08c.007-.022.01-.045.015-.067a.782.782 0 0 0 0-.301c-.004-.022-.008-.045-.015-.066-.008-.028-.019-.054-.03-.08-.008-.02-.015-.04-.025-.06a.755.755 0 0 0-.088-.13c-.006-.008-.01-.016-.016-.022l-.595-.68-.583-.667-.584.667-.592.68-.017.02c-.017.02-.03.043-.045.065-.015.022-.03.044-.042.068-.01.019-.017.039-.025.058a.776.776 0 0 0-.045.144.762.762 0 0 0-.014.081c-.002.024-.002.048-.002.072 0 .024 0 .049.002.073a.704.704 0 0 0 .014.08.774.774 0 0 0 .045.145l.025.058a.764.764 0 0 0 .043.07c.014.02.027.041.042.06l.019.026.374.428-.767 3.008H.763c-.529 0-.909-.511-.71-1.001a11.075 11.075 0 0 1 10.262-6.91Zm1.64-9.841a7.293 7.293 0 0 0 4.688 1.869v.066a6.328 6.328 0 1 1-12.613-.72 7.294 7.294 0 0 0 3.036.657 7.294 7.294 0 0 0 4.888-1.872Zm-1.31-4.38a6.331 6.331 0 0 1 5.775 4.655 5.721 5.721 0 0 1-3.875-1.919.791.791 0 0 0-1.184 0A5.724 5.724 0 0 1 7.065 4.68a5.715 5.715 0 0 1-2.649-.648A6.33 6.33 0 0 1 10.646.01Z"/>
</svg>
