<svg xmlns="http://www.w3.org/2000/svg" width="22" height="22" fill="currentColor" viewBox="0 0 22 22">
  <path fill-rule="evenodd" d="M2.095 4.498A10.95 10.95 0 0 0 0 10.957c0 2.413.777 4.645 2.095 6.458l.062-.046c.97-.656 1.784-1.587 2.352-2.711a8.22 8.22 0 0 0 .87-3.701 8.221 8.221 0 0 0-.87-3.701 7.135 7.135 0 0 0-2.352-2.712.997.997 0 0 1-.062-.046Zm1.298-1.487a9.141 9.141 0 0 1 2.87 3.358 10.185 10.185 0 0 1 1.081 4.588c0 1.601-.37 3.18-1.082 4.587a9.14 9.14 0 0 1-2.869 3.359 10.961 10.961 0 0 0 6.625 3.01V0a10.962 10.962 0 0 0-6.625 3.01Zm8.59 18.902a10.962 10.962 0 0 0 6.624-3.01 9.14 9.14 0 0 1-2.87-3.359 10.184 10.184 0 0 1-1.081-4.587c0-1.602.37-3.181 1.082-4.588a9.14 9.14 0 0 1 2.869-3.358A10.962 10.962 0 0 0 11.982 0v21.913ZM22 10.957a10.95 10.95 0 0 1-2.095 6.458.932.932 0 0 0-.062-.046c-.97-.656-1.784-1.587-2.352-2.711a8.222 8.222 0 0 1-.87-3.701c0-1.302.3-2.576.87-3.701.568-1.125 1.381-2.056 2.352-2.712a.951.951 0 0 0 .062-.046A10.95 10.95 0 0 1 22 10.957Z"/>
</svg>
