<svg xmlns="http://www.w3.org/2000/svg" width="25" height="22" fill="currentColor" viewBox="0 0 25 22">
  <path fill-rule="evenodd" d="M4.296.075C3.129.42 2.13 1.353 1.42 2.757.25 5.075-.021 8.364.726 11.17c.582 2.19 1.777 3.839 3.198 4.414l.325.132.012 2.023.013 2.023H0v1.536l12.3-.012 12.298-.012.013-.768.014-.768-1.154.014-1.153.013v-1.539h1.587l-.014-.78-.013-.78-.514-.014-.515-.013-.013-2.203c-.013-2.153-.016-2.206-.115-2.338a1.065 1.065 0 0 0-.264-.232c-.16-.094-.249-.095-5.922-.095-6.414 0-5.927-.026-6.176.323l-.112.156-.013 2.195-.014 2.194-.514.014-.515.013-.013.78-.013.78h1.586v1.536H5.856v-2.02c0-2.011 0-2.02.1-2.047.223-.058.853-.397 1.133-.609 2.247-1.697 3.308-6.025 2.454-10.011C9.021 2.638 7.675.716 6.101.162c-.353-.124-.495-.148-.965-.16-.42-.01-.621.008-.84.073Zm7.991 18.919v.768h8.495v-1.536h-8.495v.768ZM.02 20.53c0 .435.007.614.016.396a11.62 11.62 0 0 0 0-.792c-.01-.218-.016-.04-.016.396Z"/>
</svg>
