<svg xmlns="http://www.w3.org/2000/svg" width="11" height="11" fill="currentColor" viewBox="0 0 11 11">
  <path d="M0 .786v2.75a.393.393 0 0 0 .671.278l1.015-1.017 1.687 1.686a.786.786 0 0 0 1.111-1.11L2.798 1.685 3.814.671A.393.393 0 0 0 3.536 0H.393A.393.393 0 0 0 0 .393v.393Zm4.484 6.84a.786.786 0 0 0-1.11-1.11L1.685 8.202.671 7.186A.393.393 0 0 0 0 7.464v3.143A.393.393 0 0 0 .393 11h3.143a.393.393 0 0 0 .278-.671L2.797 9.314l1.687-1.687Zm2.032-1.11a.786.786 0 0 1 1.11 0l1.688 1.686 1.015-1.016a.393.393 0 0 1 .671.278v3.143a.393.393 0 0 1-.393.393H7.464a.393.393 0 0 1-.278-.671l1.016-1.015-1.686-1.687a.786.786 0 0 1 0-1.111ZM7.464 0a.393.393 0 0 0-.278.671l1.016 1.015-1.686 1.687a.786.786 0 0 0 1.11 1.111l1.688-1.686 1.015 1.016A.393.393 0 0 0 11 3.536V.393A.393.393 0 0 0 10.607 0H7.464Z"/>
</svg>
