<svg xmlns="http://www.w3.org/2000/svg" width="26" height="22" fill="currentColor" viewBox="0 0 26 22">
  <path d="M20.778.008c.337-.025 1.284.01 2.264.082.428.031 1.17.074 1.65.095.995.043.98.034.808.502-.209.566-.215.674-.217 3.584-.002 2.672-.006 2.803-.107 3.34-.14.738-.33 1.219-.626 1.584-.305.377-.61.537-1.09.57l-.36.026-.182-.214c-.217-.254-.402-.686-.783-1.837-.374-1.128-.618-1.706-.82-1.933-.142-.162-.194-.185-.379-.177-.12.005-.324.073-.466.154-1.031.59-1.262 3.021-.476 5.007.085.215.788 1.653 1.562 3.194.397.791.765 1.532 1.033 2.08.263-.197.512-.392.742-.586.583-.488 1.49-.35 1.842.325.232.447.14.996-.241 1.324-.45.386-.958.787-1.524 1.183-2.743 1.923-6.855 3.757-12.303 3.413-4.713-.298-8.23-2.087-10.699-4.023a1.092 1.092 0 0 1-.264-1.391c.354-.641 1.213-.782 1.795-.336.334.256.69.507 1.068.753.171-.386.524-1.083 1.243-2.516.652-1.3 1.212-2.421 1.247-2.497.096-.212.158-1.959.1-2.796-.057-.806-.165-1.261-.336-1.41-.285-.246-.809.222-1.044.933-.232.7-.367 1.656-.367 2.584 0 .683-.007.69-.628.65-1.19-.077-1.514-.221-1.704-.754-.099-.276-.091-.728.024-1.478.19-1.226.529-2.103 1.058-2.727.534-.63 1.033-.903 1.855-1.015.647-.088.94-.023 1.646.364.683.376.827.386 1.48.11 1.224-.516 2.491-.666 4.263-.505 1.246.113 1.712.058 2.293-.267.494-.276.832-.666 1.586-1.832.388-.601.87-1.297 1.069-1.545C17.836.728 18.999.14 20.778.008Zm-5.423 12.767c-.79-.12-2.784-.166-3.592-.083-.744.077-1.985.29-2.687.46l-.5.123-1.97 2.45c-.672.838-1.293 1.6-1.681 2.076 1.75.831 3.847 1.45 6.327 1.607 3.926.248 7.048-.771 9.377-2.068-.339-.41-.769-.938-1.294-1.592-1.149-1.43-2.127-2.613-2.175-2.632-.14-.049-1.179-.245-1.806-.34Z"/>
</svg>
