<svg xmlns="http://www.w3.org/2000/svg" width="16" height="20" fill="currentColor" viewBox="0 0 16 20">
  <path d="M8.114 0c1.603 0 2.981.293 4.135.879 1.163.586 2.056 1.392 2.679 2.418.622 1.016.933 2.179.933 3.488 0 1.291-.31 2.418-.933 3.38-.623.962-1.516 1.713-2.679 2.253-1.154.531-2.532.797-4.135.797h-3.16V19.6a.4.4 0 0 1-.4.399H.535a.4.4 0 0 1-.401-.4V.4a.4.4 0 0 1 .4-.4h7.581Zm-3.16 9.492h3.16c.678 0 1.228-.115 1.649-.344a2.1 2.1 0 0 0 .92-.948 3.12 3.12 0 0 0 .301-1.387c0-.549-.1-1.058-.301-1.525a2.46 2.46 0 0 0-.92-1.126c-.421-.293-.971-.44-1.649-.44h-3.16v5.77Z"/>
</svg>
