<svg xmlns="http://www.w3.org/2000/svg" width="13" height="13" fill="currentColor" viewBox="0 0 13 13">
  <path d="M7.484 1.325c.432 1.103.725 2.207.88 3.31 1.104.155 2.207.449 3.31.88.192.075.384.154.576.238v1.5a16.74 16.74 0 0 1-.575.237 14.702 14.702 0 0 1-3.312.88 14.705 14.705 0 0 1-.879 3.305 18.38 18.38 0 0 1-.237.575h-1.5a16.824 16.824 0 0 1-.237-.575 14.707 14.707 0 0 1-.88-3.306 14.705 14.705 0 0 1-3.305-.879 16.755 16.755 0 0 1-.575-.237v-1.5c.192-.084.384-.163.575-.237a14.708 14.708 0 0 1 3.304-.88c.156-1.104.449-2.207.88-3.31.076-.193.155-.384.238-.576h1.5c.083.192.162.383.237.575Z"/>
</svg>
