<svg xmlns="http://www.w3.org/2000/svg" width="26" height="23" fill="currentColor" viewBox="0 0 26 23">
  <path d="M13.37.077a.929.929 0 0 0-.74 0L.56 5.307a.929.929 0 0 0 0 1.704l1.657.718v10.384a2.302 2.302 0 1 0 1.863-.002V8.536l8.55 3.705a.93.93 0 0 0 .74 0l12.07-5.23a.929.929 0 0 0 0-1.704L13.37.077ZM5.49 16.095l-.01-4.422 6.227 2.698a3.25 3.25 0 0 0 2.584 0l6.229-2.698v4.42a.93.93 0 0 1-.189.561l-.74-.561.74.561-.001.002-.002.002-.003.005-.01.012-.028.035a5.817 5.817 0 0 1-.44.467 8.06 8.06 0 0 1-1.345 1.026c-1.205.74-3.02 1.456-5.502 1.456-2.483 0-4.295-.716-5.499-1.457a8.042 8.042 0 0 1-1.342-1.026 5.791 5.791 0 0 1-.438-.468l-.028-.035-.01-.012-.003-.005-.002-.002s-.001-.002.74-.561l-.741.56a.929.929 0 0 1-.188-.558Z"/>
</svg>
