<svg xmlns="http://www.w3.org/2000/svg" width="18" height="18" fill="currentColor" viewBox="0 0 18 18">
  <path d="M16.002 17.063.938 1.998l1.06-1.06 15.064 15.064-1.06 1.06ZM11.058 3a.563.563 0 0 0-.867-.474L7.138 4.49l3.92 3.92V3Z"/>
  <path d="M5.08 5.812H1.497a.562.562 0 0 0-.562.563v5.25c0 .31.251.562.562.562h3.585l5.11 3.286a.563.563 0 0 0 .867-.474v-3.938L5.524 5.527l-.443.285ZM15.558 9c0-1.216-.48-2.344-1.303-3.244l1.106-1.013c1.053 1.15 1.697 2.63 1.697 4.257 0 1.49-.542 2.86-1.444 3.964l-1.068-1.067c.645-.836 1.012-1.833 1.012-2.897Zm-3.001 0a2.95 2.95 0 0 0-.596-1.795l1.192-.91A4.45 4.45 0 0 1 14.057 9a4.49 4.49 0 0 1-.447 1.961l-1.16-1.16c.07-.253.107-.522.107-.801Z"/>
</svg>
