<svg xmlns="http://www.w3.org/2000/svg" width="25" height="19" fill="currentColor" viewBox="0 0 25 19">
  <path d="M12.077.514c-1.639 1.978-2.662 4.348-3.025 7.01l-.083.61.794.873c1.151 1.266 1.943 2.586 2.547 4.25l.206.567.228-.645A12.146 12.146 0 0 1 15.3 8.952l.721-.78-.049-.474c-.192-1.85-.944-4.025-1.973-5.707C13.672 1.458 12.593 0 12.525 0c-.013 0-.214.231-.448.514Zm-6.325.56c-.565 1.534-.892 3.353-.765 4.255l.048.346.698.338c.384.186.996.526 1.36.755.363.23.68.417.707.417.026 0 .106-.328.178-.729.165-.917.353-1.593.725-2.618l.294-.808-.355-.386a7.605 7.605 0 0 0-.888-.779C7.249 1.492 6.09.859 5.914.859c-.046 0-.119.097-.162.215Zm12.858-.011c-.805.37-1.848 1.115-2.377 1.698l-.247.273.258.65c.401 1.016.712 2.163.892 3.291l.047.298.27-.173c.765-.49 1.321-.807 1.864-1.06.331-.156.626-.321.655-.37.096-.155.06-1.575-.058-2.245-.146-.83-.681-2.567-.79-2.563-.046.002-.277.092-.514.201ZM.012 6.033c.02.14.057.5.082.8.124 1.486.632 3.434 1.238 4.751.927 2.014 2.235 3.605 3.99 4.857.765.545 2.179 1.3 3.147 1.68.795.312 2.387.75 2.992.823l.469.056-.043-1.085c-.13-3.248-1.092-5.86-2.901-7.869-1.305-1.449-2.525-2.3-4.471-3.12a17.387 17.387 0 0 0-3.379-.997c-1.138-.212-1.17-.209-1.124.104Zm23.711-.097c-1.69.323-2.93.754-4.39 1.525-2.155 1.138-3.739 2.706-4.846 4.8-.795 1.502-1.332 3.85-1.335 5.838-.001 1.03-.096.965 1.049.718 6.195-1.34 10.048-5.645 10.726-11.984.116-1.085.122-1.055-.198-1.046-.15.005-.603.072-1.006.149Z"/>
</svg>
