<svg xmlns="http://www.w3.org/2000/svg" width="24" height="22" fill="currentColor" viewBox="0 0 24 22">
  <path d="M6.9.033c-.298.076-.542.284-.713.574l-3.224 5.5H1.2c-.662 0-1.2.548-1.2 1.223v4.89c0 .165.048.345.113.496l2.737 6.496C3.511 20.784 5.297 22 6.974 22h10.052c1.677 0 3.463-1.218 4.124-2.788l2.737-6.495A1.31 1.31 0 0 0 24 12.22V7.33c0-.675-.538-1.222-1.2-1.222h-1.763L17.813.607c-.17-.29-.415-.498-.713-.574a1.166 1.166 0 0 0-.9.153 1.195 1.195 0 0 0-.413 1.643L18.3 6.108H5.7l2.513-4.279c.34-.58.156-1.296-.413-1.643a1.166 1.166 0 0 0-.9-.153Zm.3 10.965c.662 0 1.2.547 1.2 1.222v2.445c0 .675-.538 1.223-1.2 1.223-.662 0-1.2-.548-1.2-1.223V12.22c0-.675.538-1.222 1.2-1.222Zm4.8 0c.662 0 1.2.547 1.2 1.222v3.668c0 .674-.538 1.222-1.2 1.222-.662 0-1.2-.548-1.2-1.222V12.22c0-.675.538-1.222 1.2-1.222Zm4.8 0c.662 0 1.2.547 1.2 1.222v2.445c0 .675-.538 1.223-1.2 1.223-.662 0-1.2-.548-1.2-1.223V12.22c0-.675.538-1.222 1.2-1.222Z"/>
</svg>
