<svg xmlns="http://www.w3.org/2000/svg" width="26" height="26" fill="currentColor" viewBox="0 0 26 26">
  <g clip-path="url(#a)">
    <path d="m5.198 19.026-1.097 1.102c-1.145 1.15-1.273 1.25-1.587 1.252-.27.001-.433-.094-.833-.486-.405-.398-.533-.604-.533-.864 0-.32.076-.419 1.229-1.573a45.91 45.91 0 0 1 1.125-1.107c.012 0 .399.377.86.838l.836.838Zm1.269-1.267-.428.43-.85-.849-.848-.847.428-.43.43-.43.847.848.85.848-.43.43ZM18.269 1.53a5.722 5.722 0 0 1 2.996 3.404c.203.608.279 1.052.307 1.782.117 3.097-1.833 6.237-4.82 7.76-1.341.684-2.712.976-4.11.874l-.54-.04-1.925.682c-1.058.374-1.96.68-2.006.68-.216 0-.406-.15-1.27-1.008-.866-.861-1.04-1.078-1.042-1.294 0-.051.306-.957.68-2.015l.68-1.93-.041-.538c-.106-1.373.19-2.765.875-4.107 1.302-2.554 3.838-4.404 6.543-4.773 1.28-.175 2.588.011 3.673.523Zm-7.226 7.719a.721.721 0 1 0-1.02 1.02.721.721 0 0 0 1.02-1.02Zm2.252 2.252a.72.72 0 1 0-1.019 1.02.72.72 0 0 0 1.02-1.02Zm-.841-5.915a.72.72 0 1 0-1.02 1.02.72.72 0 0 0 1.02-1.02Zm2.252 2.252a.72.72 0 1 0-1.02 1.02.72.72 0 0 0 1.02-1.02Zm2.252 2.253a.72.72 0 1 0-1.019 1.02.72.72 0 0 0 1.02-1.02Zm-.842-5.916a.721.721 0 1 0-1.02 1.02.721.721 0 0 0 1.02-1.02Zm2.253 2.253a.72.72 0 1 0-1.02 1.02.72.72 0 0 0 1.02-1.02Z"/>
    <circle cx="17.027" cy="19.096" r="2.5"/>
  </g>
  <defs>
    <clipPath id="a">
      <path d="M0 0h26v26H0z"/>
    </clipPath>
  </defs>
</svg>
