<svg xmlns="http://www.w3.org/2000/svg" width="18" height="18" fill="currentColor" viewBox="0 0 18 18">
  <path d="M14.044.063s.732.432.892.541c.32.218.748.536 1.18.932.828.76 1.824 1.951 1.824 3.385 0 2.126-1.744 3.85-3.896 3.85-2.151 0-3.896-1.724-3.896-3.85 0-1.434.997-2.626 1.824-3.385.432-.396.86-.714 1.18-.932.16-.11.892-.541.892-.541Zm-10.086 0s.732.432.892.541c.32.218.749.536 1.18.932.828.76 1.824 1.951 1.824 3.385 0 2.126-1.744 3.85-3.896 3.85C1.807 8.77.062 7.047.062 4.92c0-1.434.997-2.626 1.824-3.385.432-.396.86-.714 1.18-.932.16-.11.892-.541.892-.541Zm5.043 9.166s.732.432.892.542c.32.218.748.535 1.18.931.828.76 1.824 1.952 1.824 3.386 0 2.126-1.744 3.85-3.896 3.85-2.151 0-3.896-1.724-3.896-3.85 0-1.434.997-2.626 1.824-3.385.432-.397.86-.714 1.18-.932.16-.11.892-.542.892-.542Z"/>
</svg>
